<?xml version="1.0" encoding="UTF-8"?>
<!DOCTYPE svg PUBLIC "-//W3C//DTD SVG 1.1//EN" "http://www.w3.org/Graphics/SVG/1.1/DTD/svg11.dtd">
<!-- Creator: CorelDRAW X7 -->
<svg xmlns="http://www.w3.org/2000/svg" xml:space="preserve" width="41.5744mm" height="39.7095mm" version="1.1" style="shape-rendering:geometricPrecision; text-rendering:geometricPrecision; image-rendering:optimizeQuality; fill-rule:evenodd; clip-rule:evenodd"
viewBox="0 0 4157 3971"
 xmlns:xlink="http://www.w3.org/1999/xlink">
 <defs>
  <style type="text/css">
   <![CDATA[
    .str0 {stroke:#898989;stroke-width:25.0001;stroke-linecap:round;stroke-linejoin:round}
    .fil0 {fill:none;fill-rule:nonzero}
    .fil1 {fill:#FEFEFE;fill-rule:nonzero}
   ]]>
  </style>
 </defs>
 <g id="Слой_x0020_1">
  <metadata id="CorelCorpID_0Corel-Layer"/>
  <g id="_782858416">
   <g>
    <path class="fil0 str0" d="M688 62c0,14 -11,33 -35,57 -10,10 -18,17 -25,20 -6,3 -16,6 -32,9 -5,27 -15,70 -30,127 -17,65 -32,116 -45,154 -7,20 -18,49 -34,87 -8,19 -17,32 -28,40 -30,24 -60,35 -89,35 -29,0 -43,-12 -43,-37 0,-20 11,-62 33,-125 4,-15 23,-72 56,-171 6,-19 15,-47 28,-85 1,-5 4,-17 10,-34l-137 -2c-10,32 -24,75 -42,129 0,1 -2,4 -2,8 -22,64 -40,122 -55,176 -16,52 -28,87 -38,103 -1,3 -5,8 -10,14 -18,17 -40,26 -67,26 -17,0 -32,-4 -45,-11 -16,-9 -23,-22 -23,-39 0,-9 3,-28 11,-55 5,-19 12,-46 23,-81 15,-51 35,-113 58,-189 9,-26 19,-54 31,-86 -22,-4 -33,-14 -33,-29 0,-23 12,-46 36,-70 7,-7 13,-11 17,-14 7,-4 16,-6 26,-6 3,0 5,0 9,0 40,0 87,1 139,5 15,1 63,4 142,9 62,4 111,5 144,5 34,0 50,10 50,30l0 0zm245 102c42,0 62,5 62,15 0,11 -9,17 -28,18 -45,3 -83,25 -115,67 -33,41 -49,90 -49,145 0,28 6,50 17,69 15,22 35,33 60,33 25,0 44,-13 60,-38 13,-22 20,-46 20,-71 0,-50 -19,-90 -58,-120 -8,-6 -12,-11 -12,-14 0,-11 20,-25 60,-40 16,-6 29,-9 40,-9 26,0 48,13 66,38 18,25 27,57 27,93 0,28 -6,57 -16,85 -11,30 -26,55 -45,73 -23,22 -51,41 -83,55 -34,15 -66,22 -97,22 -27,0 -54,-4 -82,-13 -30,-10 -54,-24 -72,-42 -22,-22 -33,-53 -33,-95 0,-66 30,-128 88,-186 59,-57 122,-85 190,-85l0 0zm483 218l0 1 -2 -1c-1,0 -4,0 -6,0 -5,1 -11,1 -20,1 -15,0 -22,-3 -22,-8 0,-3 2,-6 5,-10 26,-28 39,-62 41,-101 0,-1 0,-4 1,-7 0,-4 1,-6 1,-8 0,-4 -3,-6 -9,-6 -11,0 -28,12 -50,36 -31,33 -54,71 -69,115 -7,21 -10,39 -10,55 0,17 3,25 11,25 9,0 28,-13 59,-39 17,-15 40,-32 70,-53l0 0zm-21 89l-12 8c-1,1 -4,4 -11,9 -87,68 -149,103 -185,103 -25,0 -44,-9 -58,-28 -11,-17 -18,-38 -18,-64 0,-70 36,-139 106,-207 71,-68 142,-102 215,-102 71,0 108,24 108,72 0,20 -9,45 -24,75 22,1 33,15 33,40 0,52 -16,118 -46,199 -30,76 -79,132 -150,168 -32,17 -61,25 -84,25 -19,0 -37,-7 -52,-24 -16,-15 -23,-33 -23,-52 0,-28 12,-54 36,-77 22,-22 54,-43 96,-63 8,-4 14,-6 18,-6 5,0 7,2 7,7 0,2 -2,6 -5,11 -9,14 -16,32 -22,54 -7,23 -10,42 -10,58 0,19 3,29 9,29 6,0 15,-12 24,-34 23,-60 39,-116 45,-167 1,-6 1,-18 3,-34zm500 -103l-8 2c-18,6 -33,8 -44,8 -11,0 -16,-2 -16,-8 0,-2 2,-7 7,-15 15,-24 23,-47 23,-67 0,-9 -1,-18 -5,-28 -3,-13 -9,-20 -15,-20 -5,0 -12,5 -21,14 -56,60 -85,116 -85,166 0,13 3,24 7,34 7,13 15,19 27,19 19,0 59,-31 120,-95l11 -9 -1 -1 0 0zm-26 96l0 1 -1 -1c-51,59 -95,98 -131,118 -19,10 -35,14 -51,14 -32,0 -58,-10 -78,-31 -20,-21 -30,-48 -30,-79 0,-46 19,-95 56,-150 29,-41 64,-76 106,-105 47,-33 94,-49 138,-49 29,0 55,6 78,17 29,14 44,34 44,61 0,16 -6,33 -17,52 14,0 23,2 26,4 6,3 9,11 9,23 -1,2 -2,8 -3,17 -1,22 -2,48 -2,78 0,20 1,37 2,50 1,10 1,16 3,21 1,13 5,26 10,38 -32,33 -64,48 -95,48 -43,0 -64,-35 -64,-108 0,-8 0,-15 0,-19l0 0zm340 26c9,22 23,34 45,34 33,0 58,-26 75,-77 8,-24 12,-49 12,-75 0,-50 -6,-75 -16,-75 -7,0 -26,24 -56,73 -24,40 -42,74 -53,100 -3,8 -5,14 -7,20l0 0zm33 -180l12 -24c10,-17 21,-35 35,-54 18,-24 37,-40 57,-48 9,-3 19,-5 30,-5 44,0 76,24 94,73 9,23 13,50 13,80 0,43 -9,84 -28,125 -19,40 -45,74 -78,99 -33,26 -66,38 -100,38 -37,0 -66,-19 -86,-56l-3 7 -3 9c-11,40 -25,83 -43,129 -11,27 -20,44 -28,51 -6,6 -13,8 -21,8 -34,0 -51,-30 -51,-89 0,-66 12,-147 38,-242 22,-83 46,-143 71,-180 12,-17 23,-29 32,-37 8,-4 16,-7 25,-7 26,0 40,14 40,41 0,10 -1,23 -3,40 -3,22 -5,35 -5,40l2 2 0 0zm521 -12l5 -17c9,-31 20,-52 33,-65 21,-22 44,-33 67,-33 18,0 27,8 27,24 0,15 -9,46 -27,92 -17,43 -39,92 -66,145 -40,81 -83,145 -128,191 -40,41 -78,70 -115,86 -18,8 -35,11 -50,11 -12,0 -19,-5 -19,-16 0,-22 7,-44 22,-65 7,-9 16,-18 29,-27 15,-10 36,-22 64,-34 -29,-49 -51,-91 -67,-129 -23,-54 -34,-103 -34,-148 0,-67 18,-107 54,-121 17,-7 31,-10 44,-10 22,0 37,15 45,45 1,6 4,30 8,73 5,56 13,110 24,161 1,7 3,18 7,34l1 0c6,-14 15,-34 25,-60 4,-11 14,-35 29,-74 8,-21 15,-42 22,-63l0 0zm393 -28c9,-12 20,-21 32,-28 12,-6 24,-9 36,-9 22,0 37,7 45,20 6,10 10,28 10,51 0,12 -2,28 -4,48 -3,30 -5,56 -5,80 0,29 2,51 4,67 1,5 4,17 10,37 2,6 3,12 3,16 0,4 -2,8 -5,11 -22,19 -45,28 -70,28 -34,0 -58,-21 -74,-62 -2,-6 -6,-21 -10,-45 0,-11 -1,-21 -1,-30 0,-5 0,-10 1,-15 -34,9 -61,25 -81,47 -7,8 -15,19 -22,32 -9,16 -16,29 -23,37 -9,12 -17,22 -23,30 -11,10 -23,15 -36,15 -19,0 -34,-7 -45,-22 -10,-13 -15,-30 -15,-50 0,-25 6,-62 18,-110 9,-42 23,-86 41,-132 25,-66 56,-99 92,-99 29,0 44,19 44,57 0,15 -8,65 -23,152 17,-4 37,-11 59,-20 7,-7 13,-16 16,-28 4,-10 7,-21 10,-33 2,-10 7,-25 16,-45l0 0zm562 -9c0,5 0,10 0,14 0,21 -6,38 -19,50 -12,12 -26,17 -42,17 -5,0 -10,-1 -16,-2 -6,-2 -11,-3 -15,-3 -11,0 -24,4 -38,13 -11,7 -21,13 -32,21 17,0 31,9 42,27 6,7 13,22 21,44 10,24 24,39 40,44 9,2 18,4 26,6 8,4 13,11 16,23 0,2 0,3 0,4 0,15 -12,29 -35,43 -22,14 -41,22 -57,23 -4,0 -8,0 -11,0 -17,0 -31,-3 -42,-11 -18,-12 -31,-32 -40,-59 -2,-5 -11,-38 -26,-97 -12,10 -21,22 -29,37 -4,20 -9,47 -18,79 -8,19 -14,31 -19,37 -8,9 -20,14 -36,14 -30,0 -51,-16 -63,-47 -7,-15 -10,-32 -10,-52 0,-30 4,-63 12,-99 4,-23 13,-58 26,-106 17,-48 36,-78 59,-91 10,-6 19,-9 29,-9 12,0 24,5 35,15 9,7 15,17 18,27 3,11 4,21 4,31 0,10 -2,28 -8,52 -3,13 -8,32 -14,58 13,-22 27,-45 42,-67 16,-26 33,-46 50,-61 25,-20 52,-31 80,-31 18,0 33,6 46,15 13,11 21,24 24,41l0 0zm268 193l-7 6c-2,1 -11,8 -28,22 -36,28 -58,45 -66,50 -28,20 -51,35 -72,45 -14,7 -25,11 -34,11 -17,0 -30,-7 -39,-22 -7,-12 -11,-27 -11,-45 0,-71 18,-154 55,-249 19,-48 42,-77 69,-88 10,-4 22,-6 34,-6 18,0 32,5 42,16 11,11 17,26 17,44 0,12 -2,25 -6,39 -1,0 -7,17 -21,48l-5 12c-23,59 -36,89 -36,93 0,7 3,10 7,10 8,0 24,-14 48,-42 12,-13 24,-27 36,-39l15 -16 14 -14c23,-24 46,-44 69,-61 18,-12 33,-18 44,-18 23,0 34,20 34,58 0,7 -1,21 -3,43 -4,38 -5,71 -5,97 0,1 0,3 0,5 0,4 0,9 0,17 1,7 1,13 1,16 1,12 2,26 4,44 1,9 2,17 3,24 0,10 -10,19 -31,25 -16,4 -30,6 -44,6 -38,0 -63,-14 -77,-42 -6,-14 -9,-31 -9,-51 0,1 0,2 0,2 0,0 1,-13 2,-40l0 0zm-3353 823c0,46 -9,91 -27,138 -19,46 -43,87 -74,119 -70,75 -165,112 -283,112 -16,0 -38,-1 -68,-5 -29,-2 -51,-4 -66,-4 -10,0 -19,0 -29,1 -2,1 -4,1 -6,1 -18,0 -33,-6 -45,-18 -15,-13 -22,-28 -22,-45 0,-23 13,-42 40,-56 4,-3 11,-4 18,-4 7,0 14,0 22,2l55 -189c22,-72 43,-119 62,-141 6,-7 24,-18 52,-32 -38,6 -85,33 -139,80 -18,16 -30,25 -37,28 -4,2 -7,3 -11,3 -2,0 -4,0 -6,-2 -5,0 -9,-3 -14,-8 -4,-7 -5,-22 -5,-43 0,-13 3,-26 9,-43 3,-6 13,-18 31,-35 9,-9 33,-21 71,-37 37,-15 67,-25 89,-29 34,-7 70,-11 107,-11 7,0 15,0 22,1 59,2 106,11 141,27 75,33 113,97 113,190l0 0zm-156 68c0,-33 -5,-64 -15,-91 -11,-27 -24,-48 -42,-65 -20,-18 -49,-29 -89,-32 14,7 21,17 21,31 0,3 0,5 -1,9l-77 284c-1,3 -2,8 -3,16 -5,21 -11,38 -18,51 -5,11 -14,18 -26,22 18,7 35,11 50,11 14,0 28,-2 43,-5 32,-6 60,-22 84,-47 49,-49 73,-110 73,-184l0 0zm318 173c12,-8 22,-16 29,-26 13,-16 25,-37 34,-62 8,-19 12,-36 16,-51 3,-19 5,-37 5,-54 0,-15 -4,-23 -10,-23 -9,0 -23,20 -41,59 -24,53 -37,97 -37,132 0,6 2,14 4,25l0 0zm0 14c3,17 14,25 33,25 21,0 48,-12 82,-37 19,-14 32,-21 39,-21 7,0 14,1 21,5 9,4 13,9 13,15 0,5 -4,12 -12,20 -50,50 -103,83 -160,100 -18,6 -34,9 -48,9 -34,0 -62,-10 -83,-29 -21,-20 -32,-47 -32,-81 0,-57 20,-115 61,-176 23,-33 49,-60 82,-81 39,-27 76,-40 113,-40 28,0 49,9 63,27 15,17 21,39 21,67 0,47 -23,95 -70,141 -41,40 -76,61 -104,61 -6,0 -12,-2 -19,-5l0 0zm625 -208c1,5 1,10 1,14 0,21 -6,38 -19,51 -12,11 -26,16 -42,16 -5,0 -10,-1 -16,-2 -6,-2 -11,-2 -15,-2 -11,0 -24,4 -39,12 -10,7 -21,14 -31,21 17,1 30,9 42,27 6,8 13,22 21,44 10,24 24,39 40,44 9,2 17,5 26,7 8,3 13,11 16,23 0,1 0,2 0,3 0,15 -12,29 -36,44 -21,13 -40,21 -56,22 -4,0 -8,0 -12,0 -16,0 -30,-3 -41,-11 -18,-12 -31,-32 -41,-58 -1,-6 -10,-39 -25,-98 -12,10 -22,23 -29,37 -4,20 -9,47 -19,79 -7,19 -13,31 -18,37 -9,10 -20,14 -36,14 -30,0 -52,-15 -64,-47 -6,-15 -9,-32 -9,-52 0,-30 4,-63 12,-99 4,-22 13,-58 26,-106 16,-48 36,-78 59,-91 9,-6 19,-8 29,-8 12,0 24,5 34,14 10,8 15,17 19,27 3,11 4,21 4,32 0,10 -2,27 -8,51 -4,13 -9,32 -15,59 14,-23 28,-45 43,-68 16,-26 33,-46 50,-60 25,-21 51,-31 80,-31 17,0 33,5 46,15 13,10 21,23 23,40l0 0zm285 -96c42,0 63,4 63,15 0,10 -9,16 -28,17 -45,3 -84,25 -116,67 -32,42 -48,90 -48,145 0,28 6,51 17,69 14,22 34,33 60,33 24,0 44,-12 60,-37 13,-23 20,-46 20,-72 0,-50 -20,-90 -59,-120 -7,-6 -12,-10 -12,-14 0,-11 20,-25 61,-40 15,-6 29,-8 40,-8 26,0 48,12 65,37 19,26 28,57 28,93 0,28 -6,57 -16,85 -12,31 -26,55 -45,73 -23,22 -51,41 -83,55 -34,15 -66,23 -97,23 -27,0 -55,-5 -82,-14 -31,-10 -55,-24 -72,-42 -22,-22 -34,-53 -34,-95 0,-66 30,-128 89,-186 59,-56 121,-84 189,-84l0 0zm325 325c8,22 23,34 45,34 33,0 58,-26 75,-77 8,-23 12,-48 12,-74 0,-51 -5,-76 -16,-76 -7,0 -26,24 -55,74 -25,40 -42,73 -53,100 -4,7 -6,14 -8,19l0 0zm33 -180l13 -24c10,-17 21,-35 34,-54 18,-24 37,-39 57,-47 9,-4 20,-6 30,-6 45,0 76,25 94,73 9,23 13,51 13,81 0,43 -9,84 -28,124 -20,41 -45,74 -78,99 -32,26 -66,39 -100,39 -37,0 -66,-19 -86,-57l-3 7 -2 9c-11,40 -26,83 -44,129 -11,28 -20,45 -28,51 -6,6 -13,9 -21,9 -34,0 -51,-30 -51,-90 0,-66 13,-146 38,-242 22,-83 46,-143 71,-180 11,-17 22,-29 33,-37 7,-4 15,-6 24,-6 27,0 40,13 40,40 0,11 -1,23 -3,40 -3,22 -4,36 -5,40l2 2 0 0zm-1691 938l-77 164 114 0 -35 -164 -2 0zm-35 -110l-26 -46c6,-5 12,-8 18,-11 21,-7 47,-10 78,-10 51,0 87,30 107,91 9,26 17,66 26,118 3,27 7,47 10,58 8,31 15,54 20,70 4,15 10,31 17,49 19,50 41,98 66,146 -44,31 -79,46 -104,46 -16,0 -30,-3 -41,-10 -12,-7 -22,-17 -30,-30 -9,-16 -20,-42 -32,-77 -3,-10 -6,-19 -9,-27 -33,13 -58,21 -76,21 -11,0 -20,-1 -27,-2 -7,0 -37,-1 -89,-2l-5 8c-17,36 -31,60 -43,75 -24,31 -61,47 -112,47 -28,0 -41,-8 -41,-22 0,-9 14,-35 46,-76 11,-16 19,-27 24,-34 -30,-6 -44,-16 -44,-31 0,-13 12,-31 35,-55 12,-13 24,-21 37,-24 8,-2 23,-4 45,-4l42 -79c6,-11 15,-25 24,-42l33 -59c13,-22 30,-51 51,-88l0 0zm482 415c7,22 22,34 44,34 33,0 58,-26 75,-77 8,-23 12,-48 12,-74 0,-51 -5,-76 -16,-76 -7,0 -25,24 -55,74 -25,40 -43,73 -54,100 -3,7 -5,14 -6,19zm32 -179l13 -25c9,-17 21,-35 34,-53 18,-24 37,-40 57,-48 9,-4 20,-5 30,-5 45,0 76,24 94,72 9,23 13,51 13,81 0,43 -9,84 -28,124 -20,41 -45,74 -78,99 -32,26 -66,39 -99,39 -38,0 -67,-19 -87,-57l-3 7 -2 10c-11,39 -26,82 -44,129 -11,27 -20,44 -28,50 -6,6 -13,9 -21,9 -34,0 -51,-30 -51,-89 0,-66 13,-147 38,-243 22,-83 46,-143 71,-180 11,-16 22,-29 33,-36 7,-5 15,-7 24,-7 27,0 40,14 40,40 0,11 -1,24 -3,40 -3,22 -4,36 -5,40l2 3 0 0z"/>
    <path id="1" class="fil1" d="M688 62c0,14 -11,33 -35,57 -10,10 -18,17 -25,20 -6,3 -16,6 -32,9 -5,27 -15,70 -30,127 -17,65 -32,116 -45,154 -7,20 -18,49 -34,87 -8,19 -17,32 -28,40 -30,24 -60,35 -89,35 -29,0 -43,-12 -43,-37 0,-20 11,-62 33,-125 4,-15 23,-72 56,-171 6,-19 15,-47 28,-85 1,-5 4,-17 10,-34l-137 -2c-10,32 -24,75 -42,129 0,1 -2,4 -2,8 -22,64 -40,122 -55,176 -16,52 -28,87 -38,103 -1,3 -5,8 -10,14 -18,17 -40,26 -67,26 -17,0 -32,-4 -45,-11 -16,-9 -23,-22 -23,-39 0,-9 3,-28 11,-55 5,-19 12,-46 23,-81 15,-51 35,-113 58,-189 9,-26 19,-54 31,-86 -22,-4 -33,-14 -33,-29 0,-23 12,-46 36,-70 7,-7 13,-11 17,-14 7,-4 16,-6 26,-6 3,0 5,0 9,0 40,0 87,1 139,5 15,1 63,4 142,9 62,4 111,5 144,5 34,0 50,10 50,30l0 0zm245 102c42,0 62,5 62,15 0,11 -9,17 -28,18 -45,3 -83,25 -115,67 -33,41 -49,90 -49,145 0,28 6,50 17,69 15,22 35,33 60,33 25,0 44,-13 60,-38 13,-22 20,-46 20,-71 0,-50 -19,-90 -58,-120 -8,-6 -12,-11 -12,-14 0,-11 20,-25 60,-40 16,-6 29,-9 40,-9 26,0 48,13 66,38 18,25 27,57 27,93 0,28 -6,57 -16,85 -11,30 -26,55 -45,73 -23,22 -51,41 -83,55 -34,15 -66,22 -97,22 -27,0 -54,-4 -82,-13 -30,-10 -54,-24 -72,-42 -22,-22 -33,-53 -33,-95 0,-66 30,-128 88,-186 59,-57 122,-85 190,-85l0 0zm483 218l0 1 -2 -1c-1,0 -4,0 -6,0 -5,1 -11,1 -20,1 -15,0 -22,-3 -22,-8 0,-3 2,-6 5,-10 26,-28 39,-62 41,-101 0,-1 0,-4 1,-7 0,-4 1,-6 1,-8 0,-4 -3,-6 -9,-6 -11,0 -28,12 -50,36 -31,33 -54,71 -69,115 -7,21 -10,39 -10,55 0,17 3,25 11,25 9,0 28,-13 59,-39 17,-15 40,-32 70,-53l0 0zm-21 89l-12 8c-1,1 -4,4 -11,9 -87,68 -149,103 -185,103 -25,0 -44,-9 -58,-28 -11,-17 -18,-38 -18,-64 0,-70 36,-139 106,-207 71,-68 142,-102 215,-102 71,0 108,24 108,72 0,20 -9,45 -24,75 22,1 33,15 33,40 0,52 -16,118 -46,199 -30,76 -79,132 -150,168 -32,17 -61,25 -84,25 -19,0 -37,-7 -52,-24 -16,-15 -23,-33 -23,-52 0,-28 12,-54 36,-77 22,-22 54,-43 96,-63 8,-4 14,-6 18,-6 5,0 7,2 7,7 0,2 -2,6 -5,11 -9,14 -16,32 -22,54 -7,23 -10,42 -10,58 0,19 3,29 9,29 6,0 15,-12 24,-34 23,-60 39,-116 45,-167 1,-6 1,-18 3,-34zm500 -103l-8 2c-18,6 -33,8 -44,8 -11,0 -16,-2 -16,-8 0,-2 2,-7 7,-15 15,-24 23,-47 23,-67 0,-9 -1,-18 -5,-28 -3,-13 -9,-20 -15,-20 -5,0 -12,5 -21,14 -56,60 -85,116 -85,166 0,13 3,24 7,34 7,13 15,19 27,19 19,0 59,-31 120,-95l11 -9 -1 -1 0 0zm-26 96l0 1 -1 -1c-51,59 -95,98 -131,118 -19,10 -35,14 -51,14 -32,0 -58,-10 -78,-31 -20,-21 -30,-48 -30,-79 0,-46 19,-95 56,-150 29,-41 64,-76 106,-105 47,-33 94,-49 138,-49 29,0 55,6 78,17 29,14 44,34 44,61 0,16 -6,33 -17,52 14,0 23,2 26,4 6,3 9,11 9,23 -1,2 -2,8 -3,17 -1,22 -2,48 -2,78 0,20 1,37 2,50 1,10 1,16 3,21 1,13 5,26 10,38 -32,33 -64,48 -95,48 -43,0 -64,-35 -64,-108 0,-8 0,-15 0,-19l0 0zm340 26c9,22 23,34 45,34 33,0 58,-26 75,-77 8,-24 12,-49 12,-75 0,-50 -6,-75 -16,-75 -7,0 -26,24 -56,73 -24,40 -42,74 -53,100 -3,8 -5,14 -7,20l0 0zm33 -180l12 -24c10,-17 21,-35 35,-54 18,-24 37,-40 57,-48 9,-3 19,-5 30,-5 44,0 76,24 94,73 9,23 13,50 13,80 0,43 -9,84 -28,125 -19,40 -45,74 -78,99 -33,26 -66,38 -100,38 -37,0 -66,-19 -86,-56l-3 7 -3 9c-11,40 -25,83 -43,129 -11,27 -20,44 -28,51 -6,6 -13,8 -21,8 -34,0 -51,-30 -51,-89 0,-66 12,-147 38,-242 22,-83 46,-143 71,-180 12,-17 23,-29 32,-37 8,-4 16,-7 25,-7 26,0 40,14 40,41 0,10 -1,23 -3,40 -3,22 -5,35 -5,40l2 2 0 0zm521 -12l5 -17c9,-31 20,-52 33,-65 21,-22 44,-33 67,-33 18,0 27,8 27,24 0,15 -9,46 -27,92 -17,43 -39,92 -66,145 -40,81 -83,145 -128,191 -40,41 -78,70 -115,86 -18,8 -35,11 -50,11 -12,0 -19,-5 -19,-16 0,-22 7,-44 22,-65 7,-9 16,-18 29,-27 15,-10 36,-22 64,-34 -29,-49 -51,-91 -67,-129 -23,-54 -34,-103 -34,-148 0,-67 18,-107 54,-121 17,-7 31,-10 44,-10 22,0 37,15 45,45 1,6 4,30 8,73 5,56 13,110 24,161 1,7 3,18 7,34l1 0c6,-14 15,-34 25,-60 4,-11 14,-35 29,-74 8,-21 15,-42 22,-63l0 0zm393 -28c9,-12 20,-21 32,-28 12,-6 24,-9 36,-9 22,0 37,7 45,20 6,10 10,28 10,51 0,12 -2,28 -4,48 -3,30 -5,56 -5,80 0,29 2,51 4,67 1,5 4,17 10,37 2,6 3,12 3,16 0,4 -2,8 -5,11 -22,19 -45,28 -70,28 -34,0 -58,-21 -74,-62 -2,-6 -6,-21 -10,-45 0,-11 -1,-21 -1,-30 0,-5 0,-10 1,-15 -34,9 -61,25 -81,47 -7,8 -15,19 -22,32 -9,16 -16,29 -23,37 -9,12 -17,22 -23,30 -11,10 -23,15 -36,15 -19,0 -34,-7 -45,-22 -10,-13 -15,-30 -15,-50 0,-25 6,-62 18,-110 9,-42 23,-86 41,-132 25,-66 56,-99 92,-99 29,0 44,19 44,57 0,15 -8,65 -23,152 17,-4 37,-11 59,-20 7,-7 13,-16 16,-28 4,-10 7,-21 10,-33 2,-10 7,-25 16,-45l0 0zm562 -9c0,5 0,10 0,14 0,21 -6,38 -19,50 -12,12 -26,17 -42,17 -5,0 -10,-1 -16,-2 -6,-2 -11,-3 -15,-3 -11,0 -24,4 -38,13 -11,7 -21,13 -32,21 17,0 31,9 42,27 6,7 13,22 21,44 10,24 24,39 40,44 9,2 18,4 26,6 8,4 13,11 16,23 0,2 0,3 0,4 0,15 -12,29 -35,43 -22,14 -41,22 -57,23 -4,0 -8,0 -11,0 -17,0 -31,-3 -42,-11 -18,-12 -31,-32 -40,-59 -2,-5 -11,-38 -26,-97 -12,10 -21,22 -29,37 -4,20 -9,47 -18,79 -8,19 -14,31 -19,37 -8,9 -20,14 -36,14 -30,0 -51,-16 -63,-47 -7,-15 -10,-32 -10,-52 0,-30 4,-63 12,-99 4,-23 13,-58 26,-106 17,-48 36,-78 59,-91 10,-6 19,-9 29,-9 12,0 24,5 35,15 9,7 15,17 18,27 3,11 4,21 4,31 0,10 -2,28 -8,52 -3,13 -8,32 -14,58 13,-22 27,-45 42,-67 16,-26 33,-46 50,-61 25,-20 52,-31 80,-31 18,0 33,6 46,15 13,11 21,24 24,41l0 0zm268 193l-7 6c-2,1 -11,8 -28,22 -36,28 -58,45 -66,50 -28,20 -51,35 -72,45 -14,7 -25,11 -34,11 -17,0 -30,-7 -39,-22 -7,-12 -11,-27 -11,-45 0,-71 18,-154 55,-249 19,-48 42,-77 69,-88 10,-4 22,-6 34,-6 18,0 32,5 42,16 11,11 17,26 17,44 0,12 -2,25 -6,39 -1,0 -7,17 -21,48l-5 12c-23,59 -36,89 -36,93 0,7 3,10 7,10 8,0 24,-14 48,-42 12,-13 24,-27 36,-39l15 -16 14 -14c23,-24 46,-44 69,-61 18,-12 33,-18 44,-18 23,0 34,20 34,58 0,7 -1,21 -3,43 -4,38 -5,71 -5,97 0,1 0,3 0,5 0,4 0,9 0,17 1,7 1,13 1,16 1,12 2,26 4,44 1,9 2,17 3,24 0,10 -10,19 -31,25 -16,4 -30,6 -44,6 -38,0 -63,-14 -77,-42 -6,-14 -9,-31 -9,-51 0,1 0,2 0,2 0,0 1,-13 2,-40l0 0zm-3353 823c0,46 -9,91 -27,138 -19,46 -43,87 -74,119 -70,75 -165,112 -283,112 -16,0 -38,-1 -68,-5 -29,-2 -51,-4 -66,-4 -10,0 -19,0 -29,1 -2,1 -4,1 -6,1 -18,0 -33,-6 -45,-18 -15,-13 -22,-28 -22,-45 0,-23 13,-42 40,-56 4,-3 11,-4 18,-4 7,0 14,0 22,2l55 -189c22,-72 43,-119 62,-141 6,-7 24,-18 52,-32 -38,6 -85,33 -139,80 -18,16 -30,25 -37,28 -4,2 -7,3 -11,3 -2,0 -4,0 -6,-2 -5,0 -9,-3 -14,-8 -4,-7 -5,-22 -5,-43 0,-13 3,-26 9,-43 3,-6 13,-18 31,-35 9,-9 33,-21 71,-37 37,-15 67,-25 89,-29 34,-7 70,-11 107,-11 7,0 15,0 22,1 59,2 106,11 141,27 75,33 113,97 113,190l0 0zm-156 68c0,-33 -5,-64 -15,-91 -11,-27 -24,-48 -42,-65 -20,-18 -49,-29 -89,-32 14,7 21,17 21,31 0,3 0,5 -1,9l-77 284c-1,3 -2,8 -3,16 -5,21 -11,38 -18,51 -5,11 -14,18 -26,22 18,7 35,11 50,11 14,0 28,-2 43,-5 32,-6 60,-22 84,-47 49,-49 73,-110 73,-184l0 0zm318 173c12,-8 22,-16 29,-26 13,-16 25,-37 34,-62 8,-19 12,-36 16,-51 3,-19 5,-37 5,-54 0,-15 -4,-23 -10,-23 -9,0 -23,20 -41,59 -24,53 -37,97 -37,132 0,6 2,14 4,25l0 0zm0 14c3,17 14,25 33,25 21,0 48,-12 82,-37 19,-14 32,-21 39,-21 7,0 14,1 21,5 9,4 13,9 13,15 0,5 -4,12 -12,20 -50,50 -103,83 -160,100 -18,6 -34,9 -48,9 -34,0 -62,-10 -83,-29 -21,-20 -32,-47 -32,-81 0,-57 20,-115 61,-176 23,-33 49,-60 82,-81 39,-27 76,-40 113,-40 28,0 49,9 63,27 15,17 21,39 21,67 0,47 -23,95 -70,141 -41,40 -76,61 -104,61 -6,0 -12,-2 -19,-5l0 0zm625 -208c1,5 1,10 1,14 0,21 -6,38 -19,51 -12,11 -26,16 -42,16 -5,0 -10,-1 -16,-2 -6,-2 -11,-2 -15,-2 -11,0 -24,4 -39,12 -10,7 -21,14 -31,21 17,1 30,9 42,27 6,8 13,22 21,44 10,24 24,39 40,44 9,2 17,5 26,7 8,3 13,11 16,23 0,1 0,2 0,3 0,15 -12,29 -36,44 -21,13 -40,21 -56,22 -4,0 -8,0 -12,0 -16,0 -30,-3 -41,-11 -18,-12 -31,-32 -41,-58 -1,-6 -10,-39 -25,-98 -12,10 -22,23 -29,37 -4,20 -9,47 -19,79 -7,19 -13,31 -18,37 -9,10 -20,14 -36,14 -30,0 -52,-15 -64,-47 -6,-15 -9,-32 -9,-52 0,-30 4,-63 12,-99 4,-22 13,-58 26,-106 16,-48 36,-78 59,-91 9,-6 19,-8 29,-8 12,0 24,5 34,14 10,8 15,17 19,27 3,11 4,21 4,32 0,10 -2,27 -8,51 -4,13 -9,32 -15,59 14,-23 28,-45 43,-68 16,-26 33,-46 50,-60 25,-21 51,-31 80,-31 17,0 33,5 46,15 13,10 21,23 23,40l0 0zm285 -96c42,0 63,4 63,15 0,10 -9,16 -28,17 -45,3 -84,25 -116,67 -32,42 -48,90 -48,145 0,28 6,51 17,69 14,22 34,33 60,33 24,0 44,-12 60,-37 13,-23 20,-46 20,-72 0,-50 -20,-90 -59,-120 -7,-6 -12,-10 -12,-14 0,-11 20,-25 61,-40 15,-6 29,-8 40,-8 26,0 48,12 65,37 19,26 28,57 28,93 0,28 -6,57 -16,85 -12,31 -26,55 -45,73 -23,22 -51,41 -83,55 -34,15 -66,23 -97,23 -27,0 -55,-5 -82,-14 -31,-10 -55,-24 -72,-42 -22,-22 -34,-53 -34,-95 0,-66 30,-128 89,-186 59,-56 121,-84 189,-84l0 0zm325 325c8,22 23,34 45,34 33,0 58,-26 75,-77 8,-23 12,-48 12,-74 0,-51 -5,-76 -16,-76 -7,0 -26,24 -55,74 -25,40 -42,73 -53,100 -4,7 -6,14 -8,19l0 0zm33 -180l13 -24c10,-17 21,-35 34,-54 18,-24 37,-39 57,-47 9,-4 20,-6 30,-6 45,0 76,25 94,73 9,23 13,51 13,81 0,43 -9,84 -28,124 -20,41 -45,74 -78,99 -32,26 -66,39 -100,39 -37,0 -66,-19 -86,-57l-3 7 -2 9c-11,40 -26,83 -44,129 -11,28 -20,45 -28,51 -6,6 -13,9 -21,9 -34,0 -51,-30 -51,-90 0,-66 13,-146 38,-242 22,-83 46,-143 71,-180 11,-17 22,-29 33,-37 7,-4 15,-6 24,-6 27,0 40,13 40,40 0,11 -1,23 -3,40 -3,22 -4,36 -5,40l2 2 0 0zm-1691 938l-77 164 114 0 -35 -164 -2 0zm-35 -110l-26 -46c6,-5 12,-8 18,-11 21,-7 47,-10 78,-10 51,0 87,30 107,91 9,26 17,66 26,118 3,27 7,47 10,58 8,31 15,54 20,70 4,15 10,31 17,49 19,50 41,98 66,146 -44,31 -79,46 -104,46 -16,0 -30,-3 -41,-10 -12,-7 -22,-17 -30,-30 -9,-16 -20,-42 -32,-77 -3,-10 -6,-19 -9,-27 -33,13 -58,21 -76,21 -11,0 -20,-1 -27,-2 -7,0 -37,-1 -89,-2l-5 8c-17,36 -31,60 -43,75 -24,31 -61,47 -112,47 -28,0 -41,-8 -41,-22 0,-9 14,-35 46,-76 11,-16 19,-27 24,-34 -30,-6 -44,-16 -44,-31 0,-13 12,-31 35,-55 12,-13 24,-21 37,-24 8,-2 23,-4 45,-4l42 -79c6,-11 15,-25 24,-42l33 -59c13,-22 30,-51 51,-88l0 0zm482 415c7,22 22,34 44,34 33,0 58,-26 75,-77 8,-23 12,-48 12,-74 0,-51 -5,-76 -16,-76 -7,0 -25,24 -55,74 -25,40 -43,73 -54,100 -3,7 -5,14 -6,19zm32 -179l13 -25c9,-17 21,-35 34,-53 18,-24 37,-40 57,-48 9,-4 20,-5 30,-5 45,0 76,24 94,72 9,23 13,51 13,81 0,43 -9,84 -28,124 -20,41 -45,74 -78,99 -32,26 -66,39 -99,39 -38,0 -67,-19 -87,-57l-3 7 -2 10c-11,39 -26,82 -44,129 -11,27 -20,44 -28,50 -6,6 -13,9 -21,9 -34,0 -51,-30 -51,-89 0,-66 13,-147 38,-243 22,-83 46,-143 71,-180 11,-16 22,-29 33,-36 7,-5 15,-7 24,-7 27,0 40,14 40,40 0,11 -1,24 -3,40 -3,22 -4,36 -5,40l2 3 0 0z"/>
   </g>
   <g>
    <path class="fil0 str0" d="M1391 2291c41,0 63,5 63,15 0,11 -10,16 -29,18 -45,2 -83,24 -115,66 -32,42 -49,90 -49,146 0,27 6,50 18,69 14,22 34,32 59,32 24,0 44,-12 60,-37 14,-22 20,-46 20,-72 0,-50 -19,-90 -58,-119 -8,-7 -12,-11 -12,-15 0,-11 20,-24 60,-39 16,-6 29,-9 40,-9 26,0 48,13 66,38 18,25 27,56 27,93 0,27 -5,56 -16,84 -11,31 -26,55 -45,74 -22,22 -50,40 -83,55 -33,14 -66,22 -96,22 -27,0 -55,-5 -82,-14 -31,-10 -55,-24 -73,-41 -22,-22 -33,-54 -33,-95 0,-67 29,-129 89,-186 58,-57 121,-85 189,-85l0 0zm483 198l17 -38c33,-67 61,-110 84,-127 11,-9 24,-13 37,-13 36,0 64,48 85,147 9,50 14,95 14,133 0,56 -13,93 -41,108 -14,9 -33,13 -55,13 -22,0 -34,-11 -38,-32 -2,-12 -3,-31 -3,-56 0,-46 -2,-90 -6,-131 -1,-2 -2,-13 -4,-34l-3 0c-2,5 -3,8 -4,10l-4 8c-16,37 -35,81 -53,131 -18,50 -31,81 -38,92 -2,2 -5,5 -9,8 -13,10 -32,15 -57,15 -24,0 -38,-11 -43,-32 -2,-12 -3,-31 -4,-56 -1,-50 -9,-112 -23,-189 -3,-11 -7,-30 -13,-57l-2 0c-6,18 -10,32 -13,43 -7,36 -12,87 -12,153l0 19c0,36 -8,64 -25,80 -21,22 -44,34 -68,34 -20,0 -31,-19 -31,-58 0,-46 9,-103 28,-172 16,-57 38,-111 65,-160 17,-32 34,-52 51,-59 8,-4 18,-6 29,-6 53,0 92,43 118,129 7,26 12,49 15,69 1,7 3,16 3,28l3 0 0 0zm588 5l-8 3c-18,5 -32,8 -44,8 -10,0 -16,-3 -16,-8 0,-2 2,-8 6,-16 16,-23 24,-46 24,-67 0,-8 -2,-18 -4,-27 -4,-14 -9,-21 -16,-21 -5,0 -12,5 -21,15 -56,60 -84,115 -84,165 0,13 2,24 7,34 6,13 15,20 26,20 19,0 59,-32 120,-95l12 -9 -2 -2 0 0zm-26 96l0 2 -1 -2c-51,59 -94,99 -131,118 -18,10 -36,15 -51,15 -32,0 -57,-11 -78,-32 -20,-20 -30,-47 -30,-79 0,-45 19,-95 56,-150 29,-40 64,-75 106,-105 47,-32 93,-48 137,-48 30,0 56,6 79,17 29,13 44,33 44,61 0,16 -6,33 -17,51 14,0 23,2 26,4 5,3 9,11 9,24 -1,1 -2,7 -3,17 -1,22 -2,48 -2,78 0,19 1,36 2,50 1,9 1,16 3,20 2,13 6,26 10,39 -32,32 -64,48 -94,48 -44,0 -65,-36 -65,-108 0,-9 0,-15 0,-20l0 0zm646 -30l-114 118c-25,25 -47,38 -66,38 -18,0 -32,-6 -43,-19 -11,-13 -17,-29 -17,-46 0,-20 9,-53 26,-99 2,-5 5,-13 10,-24l-2 -2c-25,26 -52,56 -80,90 -16,20 -30,35 -40,46 -17,18 -33,32 -46,41 -10,6 -20,9 -28,9 -20,0 -35,-8 -46,-26 -9,-14 -12,-31 -12,-53 0,-31 12,-82 40,-151 24,-62 42,-103 55,-123 19,-29 41,-44 66,-44 14,0 25,4 35,9 12,8 18,18 18,30 0,20 -11,57 -31,113 -4,13 -8,25 -12,37l1 2c13,-13 30,-33 50,-59 39,-47 68,-81 90,-99 26,-25 50,-37 71,-37 21,0 37,12 48,35 5,11 7,23 7,35 0,11 -9,42 -25,92 -3,9 -8,22 -14,39l2 2 10 -11c4,-2 7,-6 11,-10l10 -9c17,-17 36,-36 57,-58 24,-25 39,-40 47,-46 12,-8 23,-12 33,-12 36,0 54,24 54,70 0,11 -3,33 -7,68 -7,54 -11,96 -11,123 0,15 2,32 5,51 3,16 8,39 14,70 -3,11 -11,20 -26,28 -12,5 -24,9 -37,9 -23,0 -44,-11 -64,-31 -17,-18 -27,-39 -31,-64 -2,-13 -4,-30 -4,-52 0,-15 2,-44 6,-88l-2 -2 -8 10 0 0zm458 21l-8 6c-1,1 -11,8 -28,21 -36,28 -58,45 -66,51 -27,20 -51,35 -71,45 -14,7 -26,11 -35,11 -17,0 -30,-8 -38,-22 -8,-13 -12,-27 -12,-46 0,-71 19,-154 56,-248 18,-48 41,-77 68,-88 11,-4 22,-7 34,-7 17,0 32,6 43,17 11,11 16,25 16,43 0,12 -2,25 -7,39 0,1 -6,17 -20,49l-5 12c-24,58 -35,89 -35,93 0,6 1,9 6,9 8,0 24,-14 47,-41 13,-14 25,-27 37,-39l16 -16 13 -14c23,-24 46,-45 70,-61 17,-12 32,-19 44,-19 22,0 33,20 33,58 0,7 -1,21 -3,44 -3,38 -5,70 -5,96 0,2 0,4 0,6 0,3 0,9 0,16 0,7 1,13 1,17 1,11 3,25 4,43 1,10 2,18 3,24 0,11 -10,19 -31,25 -15,5 -30,7 -44,7 -37,0 -63,-14 -76,-43 -7,-13 -10,-31 -10,-51 0,2 0,2 0,2 0,0 1,-13 3,-39l0 0zm-2852 671c0,14 -11,33 -35,57 -10,10 -18,17 -25,20 -6,3 -16,5 -32,9 -5,27 -15,70 -30,126 -17,66 -32,117 -45,155 -7,20 -18,49 -34,87 -8,19 -17,32 -28,40 -30,23 -60,35 -89,35 -29,0 -43,-12 -43,-37 0,-21 11,-63 33,-125 4,-15 23,-72 56,-171 6,-19 15,-48 28,-85 1,-5 4,-17 10,-34l-137 -2c-10,32 -24,75 -42,128 0,2 -2,5 -2,9 -22,63 -40,122 -55,175 -16,53 -28,88 -38,103 -1,4 -5,9 -10,15 -18,17 -40,25 -67,25 -17,0 -32,-4 -45,-11 -16,-9 -23,-21 -23,-38 0,-10 3,-28 11,-56 5,-18 12,-45 23,-81 15,-50 35,-113 58,-188 9,-26 19,-54 31,-87 -22,-3 -33,-13 -33,-28 0,-23 12,-46 36,-70 7,-7 13,-12 17,-14 7,-5 16,-7 26,-7 3,0 5,0 9,0 40,0 87,2 139,6 15,1 63,3 142,9 62,3 111,5 144,5 34,0 50,10 50,30l0 0zm245 102c42,0 62,5 62,15 0,11 -9,17 -28,18 -45,2 -83,24 -115,66 -33,42 -49,90 -49,146 0,27 6,50 17,69 15,22 35,33 60,33 25,0 44,-13 60,-38 13,-22 20,-46 20,-72 0,-49 -19,-90 -58,-119 -8,-6 -12,-11 -12,-14 0,-12 20,-25 60,-40 16,-6 29,-9 40,-9 26,0 48,13 66,38 18,25 27,56 27,93 0,28 -6,57 -16,85 -11,30 -26,54 -45,73 -23,22 -51,40 -83,55 -34,14 -66,22 -97,22 -27,0 -54,-4 -82,-14 -30,-10 -54,-23 -72,-41 -22,-22 -33,-53 -33,-95 0,-67 30,-129 88,-186 59,-57 122,-85 190,-85l0 0zm399 17c20,0 37,6 50,18 13,12 19,28 19,46 0,37 -17,68 -50,93 -15,11 -30,16 -45,16 -8,0 -12,-2 -12,-9 0,-2 1,-7 4,-14 11,-19 16,-40 16,-64 0,-12 -1,-18 -3,-18 -11,0 -22,17 -35,51 -20,51 -31,95 -31,130 0,41 11,61 33,61 22,0 50,-18 83,-52 6,-8 11,-12 16,-12 6,0 10,4 10,12 0,34 -14,66 -40,93 -16,16 -36,31 -59,42 -25,13 -48,20 -69,20 -33,0 -61,-11 -82,-31 -23,-20 -34,-47 -34,-80 0,-65 26,-132 79,-200 24,-32 52,-58 83,-79 22,-15 44,-23 65,-23l2 0 0 0zm350 117l5 -18c9,-30 20,-51 33,-64 22,-22 44,-33 67,-33 18,0 27,8 27,24 0,14 -9,45 -27,91 -17,44 -39,92 -65,145 -40,81 -83,145 -129,192 -40,41 -78,69 -115,86 -18,7 -35,11 -50,11 -12,0 -18,-6 -18,-17 0,-22 7,-44 22,-64 6,-9 16,-18 28,-28 15,-9 36,-21 64,-34 -28,-48 -50,-91 -66,-128 -23,-54 -35,-104 -35,-148 0,-67 18,-107 55,-121 16,-7 31,-10 43,-10 23,0 38,15 45,45 2,5 4,29 8,73 5,56 14,110 25,161 1,6 3,17 6,33l1 0c7,-14 15,-33 26,-60 4,-10 13,-35 29,-73 8,-21 15,-42 21,-63l0 0zm433 83l0 2 -1 -2c-1,1 -4,1 -6,1 -5,1 -12,1 -21,1 -14,0 -21,-3 -21,-8 0,-3 1,-6 5,-10 26,-28 38,-62 40,-101 0,-1 0,-4 1,-8 1,-3 1,-5 1,-7 0,-4 -3,-6 -8,-6 -11,0 -28,11 -50,35 -32,33 -54,72 -70,116 -6,20 -10,39 -10,55 0,16 4,25 12,25 8,0 28,-13 59,-40 17,-14 40,-31 69,-53l0 0zm-21 90l-11 8c-1,0 -4,3 -11,8 -87,69 -150,103 -185,103 -25,0 -44,-9 -58,-27 -12,-17 -18,-38 -18,-64 0,-70 36,-139 106,-207 70,-68 142,-102 215,-102 71,0 107,24 107,72 0,20 -8,45 -23,75 22,1 33,15 33,40 0,52 -16,118 -47,199 -29,76 -79,132 -149,168 -32,17 -61,24 -84,24 -20,0 -38,-7 -52,-23 -16,-15 -23,-33 -23,-52 0,-28 12,-54 35,-78 23,-22 55,-43 97,-63 8,-4 14,-6 17,-6 5,0 8,3 8,8 0,1 -2,5 -6,11 -8,14 -15,32 -22,54 -6,23 -9,41 -9,58 0,19 2,29 8,29 7,0 16,-12 24,-34 24,-60 39,-116 46,-168 1,-6 1,-17 2,-33l0 0z"/>
    <path id="1" class="fil1" d="M1391 2291c41,0 63,5 63,15 0,11 -10,16 -29,18 -45,2 -83,24 -115,66 -32,42 -49,90 -49,146 0,27 6,50 18,69 14,22 34,32 59,32 24,0 44,-12 60,-37 14,-22 20,-46 20,-72 0,-50 -19,-90 -58,-119 -8,-7 -12,-11 -12,-15 0,-11 20,-24 60,-39 16,-6 29,-9 40,-9 26,0 48,13 66,38 18,25 27,56 27,93 0,27 -5,56 -16,84 -11,31 -26,55 -45,74 -22,22 -50,40 -83,55 -33,14 -66,22 -96,22 -27,0 -55,-5 -82,-14 -31,-10 -55,-24 -73,-41 -22,-22 -33,-54 -33,-95 0,-67 29,-129 89,-186 58,-57 121,-85 189,-85l0 0zm483 198l17 -38c33,-67 61,-110 84,-127 11,-9 24,-13 37,-13 36,0 64,48 85,147 9,50 14,95 14,133 0,56 -13,93 -41,108 -14,9 -33,13 -55,13 -22,0 -34,-11 -38,-32 -2,-12 -3,-31 -3,-56 0,-46 -2,-90 -6,-131 -1,-2 -2,-13 -4,-34l-3 0c-2,5 -3,8 -4,10l-4 8c-16,37 -35,81 -53,131 -18,50 -31,81 -38,92 -2,2 -5,5 -9,8 -13,10 -32,15 -57,15 -24,0 -38,-11 -43,-32 -2,-12 -3,-31 -4,-56 -1,-50 -9,-112 -23,-189 -3,-11 -7,-30 -13,-57l-2 0c-6,18 -10,32 -13,43 -7,36 -12,87 -12,153l0 19c0,36 -8,64 -25,80 -21,22 -44,34 -68,34 -20,0 -31,-19 -31,-58 0,-46 9,-103 28,-172 16,-57 38,-111 65,-160 17,-32 34,-52 51,-59 8,-4 18,-6 29,-6 53,0 92,43 118,129 7,26 12,49 15,69 1,7 3,16 3,28l3 0 0 0zm588 5l-8 3c-18,5 -32,8 -44,8 -10,0 -16,-3 -16,-8 0,-2 2,-8 6,-16 16,-23 24,-46 24,-67 0,-8 -2,-18 -4,-27 -4,-14 -9,-21 -16,-21 -5,0 -12,5 -21,15 -56,60 -84,115 -84,165 0,13 2,24 7,34 6,13 15,20 26,20 19,0 59,-32 120,-95l12 -9 -2 -2 0 0zm-26 96l0 2 -1 -2c-51,59 -94,99 -131,118 -18,10 -36,15 -51,15 -32,0 -57,-11 -78,-32 -20,-20 -30,-47 -30,-79 0,-45 19,-95 56,-150 29,-40 64,-75 106,-105 47,-32 93,-48 137,-48 30,0 56,6 79,17 29,13 44,33 44,61 0,16 -6,33 -17,51 14,0 23,2 26,4 5,3 9,11 9,24 -1,1 -2,7 -3,17 -1,22 -2,48 -2,78 0,19 1,36 2,50 1,9 1,16 3,20 2,13 6,26 10,39 -32,32 -64,48 -94,48 -44,0 -65,-36 -65,-108 0,-9 0,-15 0,-20l0 0zm646 -30l-114 118c-25,25 -47,38 -66,38 -18,0 -32,-6 -43,-19 -11,-13 -17,-29 -17,-46 0,-20 9,-53 26,-99 2,-5 5,-13 10,-24l-2 -2c-25,26 -52,56 -80,90 -16,20 -30,35 -40,46 -17,18 -33,32 -46,41 -10,6 -20,9 -28,9 -20,0 -35,-8 -46,-26 -9,-14 -12,-31 -12,-53 0,-31 12,-82 40,-151 24,-62 42,-103 55,-123 19,-29 41,-44 66,-44 14,0 25,4 35,9 12,8 18,18 18,30 0,20 -11,57 -31,113 -4,13 -8,25 -12,37l1 2c13,-13 30,-33 50,-59 39,-47 68,-81 90,-99 26,-25 50,-37 71,-37 21,0 37,12 48,35 5,11 7,23 7,35 0,11 -9,42 -25,92 -3,9 -8,22 -14,39l2 2 10 -11c4,-2 7,-6 11,-10l10 -9c17,-17 36,-36 57,-58 24,-25 39,-40 47,-46 12,-8 23,-12 33,-12 36,0 54,24 54,70 0,11 -3,33 -7,68 -7,54 -11,96 -11,123 0,15 2,32 5,51 3,16 8,39 14,70 -3,11 -11,20 -26,28 -12,5 -24,9 -37,9 -23,0 -44,-11 -64,-31 -17,-18 -27,-39 -31,-64 -2,-13 -4,-30 -4,-52 0,-15 2,-44 6,-88l-2 -2 -8 10 0 0zm458 21l-8 6c-1,1 -11,8 -28,21 -36,28 -58,45 -66,51 -27,20 -51,35 -71,45 -14,7 -26,11 -35,11 -17,0 -30,-8 -38,-22 -8,-13 -12,-27 -12,-46 0,-71 19,-154 56,-248 18,-48 41,-77 68,-88 11,-4 22,-7 34,-7 17,0 32,6 43,17 11,11 16,25 16,43 0,12 -2,25 -7,39 0,1 -6,17 -20,49l-5 12c-24,58 -35,89 -35,93 0,6 1,9 6,9 8,0 24,-14 47,-41 13,-14 25,-27 37,-39l16 -16 13 -14c23,-24 46,-45 70,-61 17,-12 32,-19 44,-19 22,0 33,20 33,58 0,7 -1,21 -3,44 -3,38 -5,70 -5,96 0,2 0,4 0,6 0,3 0,9 0,16 0,7 1,13 1,17 1,11 3,25 4,43 1,10 2,18 3,24 0,11 -10,19 -31,25 -15,5 -30,7 -44,7 -37,0 -63,-14 -76,-43 -7,-13 -10,-31 -10,-51 0,2 0,2 0,2 0,0 1,-13 3,-39l0 0zm-2852 671c0,14 -11,33 -35,57 -10,10 -18,17 -25,20 -6,3 -16,5 -32,9 -5,27 -15,70 -30,126 -17,66 -32,117 -45,155 -7,20 -18,49 -34,87 -8,19 -17,32 -28,40 -30,23 -60,35 -89,35 -29,0 -43,-12 -43,-37 0,-21 11,-63 33,-125 4,-15 23,-72 56,-171 6,-19 15,-48 28,-85 1,-5 4,-17 10,-34l-137 -2c-10,32 -24,75 -42,128 0,2 -2,5 -2,9 -22,63 -40,122 -55,175 -16,53 -28,88 -38,103 -1,4 -5,9 -10,15 -18,17 -40,25 -67,25 -17,0 -32,-4 -45,-11 -16,-9 -23,-21 -23,-38 0,-10 3,-28 11,-56 5,-18 12,-45 23,-81 15,-50 35,-113 58,-188 9,-26 19,-54 31,-87 -22,-3 -33,-13 -33,-28 0,-23 12,-46 36,-70 7,-7 13,-12 17,-14 7,-5 16,-7 26,-7 3,0 5,0 9,0 40,0 87,2 139,6 15,1 63,3 142,9 62,3 111,5 144,5 34,0 50,10 50,30l0 0zm245 102c42,0 62,5 62,15 0,11 -9,17 -28,18 -45,2 -83,24 -115,66 -33,42 -49,90 -49,146 0,27 6,50 17,69 15,22 35,33 60,33 25,0 44,-13 60,-38 13,-22 20,-46 20,-72 0,-49 -19,-90 -58,-119 -8,-6 -12,-11 -12,-14 0,-12 20,-25 60,-40 16,-6 29,-9 40,-9 26,0 48,13 66,38 18,25 27,56 27,93 0,28 -6,57 -16,85 -11,30 -26,54 -45,73 -23,22 -51,40 -83,55 -34,14 -66,22 -97,22 -27,0 -54,-4 -82,-14 -30,-10 -54,-23 -72,-41 -22,-22 -33,-53 -33,-95 0,-67 30,-129 88,-186 59,-57 122,-85 190,-85l0 0zm399 17c20,0 37,6 50,18 13,12 19,28 19,46 0,37 -17,68 -50,93 -15,11 -30,16 -45,16 -8,0 -12,-2 -12,-9 0,-2 1,-7 4,-14 11,-19 16,-40 16,-64 0,-12 -1,-18 -3,-18 -11,0 -22,17 -35,51 -20,51 -31,95 -31,130 0,41 11,61 33,61 22,0 50,-18 83,-52 6,-8 11,-12 16,-12 6,0 10,4 10,12 0,34 -14,66 -40,93 -16,16 -36,31 -59,42 -25,13 -48,20 -69,20 -33,0 -61,-11 -82,-31 -23,-20 -34,-47 -34,-80 0,-65 26,-132 79,-200 24,-32 52,-58 83,-79 22,-15 44,-23 65,-23l2 0 0 0zm350 117l5 -18c9,-30 20,-51 33,-64 22,-22 44,-33 67,-33 18,0 27,8 27,24 0,14 -9,45 -27,91 -17,44 -39,92 -65,145 -40,81 -83,145 -129,192 -40,41 -78,69 -115,86 -18,7 -35,11 -50,11 -12,0 -18,-6 -18,-17 0,-22 7,-44 22,-64 6,-9 16,-18 28,-28 15,-9 36,-21 64,-34 -28,-48 -50,-91 -66,-128 -23,-54 -35,-104 -35,-148 0,-67 18,-107 55,-121 16,-7 31,-10 43,-10 23,0 38,15 45,45 2,5 4,29 8,73 5,56 14,110 25,161 1,6 3,17 6,33l1 0c7,-14 15,-33 26,-60 4,-10 13,-35 29,-73 8,-21 15,-42 21,-63l0 0zm433 83l0 2 -1 -2c-1,1 -4,1 -6,1 -5,1 -12,1 -21,1 -14,0 -21,-3 -21,-8 0,-3 1,-6 5,-10 26,-28 38,-62 40,-101 0,-1 0,-4 1,-8 1,-3 1,-5 1,-7 0,-4 -3,-6 -8,-6 -11,0 -28,11 -50,35 -32,33 -54,72 -70,116 -6,20 -10,39 -10,55 0,16 4,25 12,25 8,0 28,-13 59,-40 17,-14 40,-31 69,-53l0 0zm-21 90l-11 8c-1,0 -4,3 -11,8 -87,69 -150,103 -185,103 -25,0 -44,-9 -58,-27 -12,-17 -18,-38 -18,-64 0,-70 36,-139 106,-207 70,-68 142,-102 215,-102 71,0 107,24 107,72 0,20 -8,45 -23,75 22,1 33,15 33,40 0,52 -16,118 -47,199 -29,76 -79,132 -149,168 -32,17 -61,24 -84,24 -20,0 -38,-7 -52,-23 -16,-15 -23,-33 -23,-52 0,-28 12,-54 35,-78 23,-22 55,-43 97,-63 8,-4 14,-6 17,-6 5,0 8,3 8,8 0,1 -2,5 -6,11 -8,14 -15,32 -22,54 -6,23 -9,41 -9,58 0,19 2,29 8,29 7,0 16,-12 24,-34 24,-60 39,-116 46,-168 1,-6 1,-17 2,-33l0 0z"/>
   </g>
  </g>
 </g>
</svg>
