<?xml version="1.0" encoding="UTF-8"?>
<!DOCTYPE svg PUBLIC "-//W3C//DTD SVG 1.1//EN" "http://www.w3.org/Graphics/SVG/1.1/DTD/svg11.dtd">
<!-- Creator: CorelDRAW X7 -->
<svg xmlns="http://www.w3.org/2000/svg" xml:space="preserve" width="41.3241mm" height="39.4627mm" version="1.1" style="shape-rendering:geometricPrecision; text-rendering:geometricPrecision; image-rendering:optimizeQuality; fill-rule:evenodd; clip-rule:evenodd"
viewBox="0 0 6383 6095"
 xmlns:xlink="http://www.w3.org/1999/xlink">
 <defs>
  <style type="text/css">
   <![CDATA[
    .fil0 {fill:#FEFEFE;fill-rule:nonzero}
   ]]>
  </style>
 </defs>
 <g id="Слой_x0020_1">
  <metadata id="CorelCorpID_0Corel-Layer"/>
  <g id="_782858416">
   <path class="fil0" d="M1044 77c0,21 -18,50 -54,88 -16,15 -29,26 -40,31 -8,4 -24,8 -49,13 -8,42 -23,108 -46,196 -26,101 -49,180 -70,239 -11,30 -28,75 -52,134 -12,29 -27,49 -43,62 -47,36 -93,54 -138,54 -44,0 -66,-19 -66,-57 0,-32 17,-97 50,-193 7,-24 37,-112 88,-265 9,-29 23,-73 42,-131 2,-8 7,-26 16,-52l-212 -3c-15,49 -36,115 -64,198 -1,2 -3,7 -4,13 -33,99 -62,189 -85,271 -24,81 -43,135 -58,160 -2,5 -8,12 -16,22 -28,26 -62,39 -103,39 -27,0 -50,-6 -70,-17 -24,-14 -36,-33 -36,-59 0,-15 6,-44 17,-85 8,-30 20,-72 36,-126 24,-78 54,-174 90,-291 13,-40 29,-84 48,-134 -34,-6 -51,-21 -51,-44 0,-35 19,-71 56,-108 10,-11 19,-18 26,-22 11,-6 24,-10 40,-10 4,0 8,0 13,0 63,0 135,3 216,9 23,1 96,5 219,13 96,6 171,8 222,8 52,0 78,16 78,47zm378 157c64,0 96,8 96,23 0,17 -14,26 -43,28 -70,4 -129,38 -179,103 -50,64 -75,139 -75,225 0,42 9,77 27,106 22,34 53,51 92,51 38,0 68,-20 93,-59 20,-34 31,-71 31,-110 0,-77 -30,-139 -90,-185 -13,-9 -19,-16 -19,-21 0,-18 31,-39 93,-62 25,-9 45,-14 62,-14 40,0 74,20 102,59 27,39 41,87 41,143 0,44 -8,88 -24,132 -17,46 -40,84 -70,113 -35,34 -78,62 -128,85 -52,22 -102,34 -149,34 -42,0 -84,-7 -127,-21 -47,-16 -84,-37 -111,-64 -35,-34 -52,-83 -52,-147 0,-103 46,-198 137,-287 90,-88 188,-132 293,-132zm746 336l0 3 -3 -3c-2,1 -6,1 -10,1 -7,1 -17,2 -31,2 -22,0 -33,-5 -33,-13 0,-4 3,-9 8,-15 39,-44 60,-96 62,-156 0,-2 1,-6 2,-11 0,-6 1,-10 1,-13 0,-6 -4,-9 -13,-9 -17,0 -43,18 -77,55 -48,51 -84,110 -107,178 -11,32 -16,61 -16,86 0,25 6,38 18,38 13,0 43,-20 91,-61 26,-22 62,-49 108,-82zm-33 138l-18 13c-1,1 -6,5 -17,13 -135,106 -230,159 -286,159 -38,0 -68,-14 -89,-43 -18,-26 -28,-58 -28,-98 0,-108 55,-215 164,-320 109,-105 219,-158 332,-158 110,0 166,37 166,112 0,31 -13,69 -37,115 34,2 51,23 51,62 0,81 -24,183 -71,307 -46,118 -122,205 -231,260 -50,26 -94,38 -130,38 -30,0 -58,-11 -81,-36 -24,-23 -35,-51 -35,-81 0,-43 18,-83 55,-119 35,-34 84,-67 149,-97 12,-7 22,-10 28,-10 7,0 10,4 10,11 0,3 -3,9 -8,17 -13,22 -24,50 -34,84 -10,35 -15,65 -15,90 0,29 5,44 14,44 10,0 23,-18 37,-52 36,-93 60,-179 70,-259 1,-9 2,-27 4,-52zm772 -159l-12 3c-27,9 -50,13 -67,13 -17,0 -26,-4 -26,-13 0,-3 4,-11 11,-23 24,-37 36,-72 36,-104 0,-13 -2,-27 -7,-43 -6,-20 -14,-31 -24,-31 -7,0 -18,8 -32,22 -87,93 -131,179 -131,256 0,20 4,37 11,53 10,20 23,30 41,30 29,0 91,-49 185,-147l18 -14 -3 -2zm-39 148l0 2 -2 -2c-78,91 -146,152 -203,183 -28,15 -54,22 -78,22 -49,0 -89,-16 -120,-49 -32,-32 -47,-73 -47,-122 0,-70 29,-147 87,-232 44,-63 98,-117 163,-161 73,-51 145,-76 213,-76 45,0 85,9 121,26 45,22 68,53 68,94 0,25 -9,52 -26,81 21,0 35,2 40,5 9,5 13,18 13,37 -1,2 -2,11 -4,26 -2,34 -3,74 -3,120 0,31 1,57 3,78 1,14 2,24 4,31 3,21 9,41 16,60 -50,50 -98,74 -146,74 -67,0 -100,-55 -100,-167 0,-13 1,-23 1,-30zm525 40c13,35 36,53 69,53 51,0 90,-40 116,-119 12,-37 18,-75 18,-115 0,-78 -8,-117 -24,-117 -11,0 -40,37 -86,113 -38,62 -65,114 -82,155 -5,12 -8,21 -11,30zm50 -277l20 -38c15,-26 32,-54 53,-83 28,-37 57,-61 88,-74 15,-5 30,-8 46,-8 69,0 118,38 146,113 14,36 20,77 20,124 0,66 -14,130 -44,192 -29,63 -69,115 -120,154 -50,39 -102,58 -154,58 -58,0 -102,-29 -133,-86l-5 11 -4 14c-17,61 -39,127 -67,199 -16,42 -31,68 -43,78 -9,9 -20,13 -33,13 -52,0 -78,-46 -78,-137 0,-103 19,-227 59,-374 34,-129 70,-222 109,-279 18,-26 35,-45 50,-56 12,-7 25,-11 38,-11 41,0 62,21 62,63 0,15 -2,36 -5,62 -4,34 -7,54 -7,62l2 3zm805 -19l8 -27c14,-47 31,-80 51,-100 33,-34 68,-50 103,-50 28,0 42,12 42,36 0,23 -14,71 -42,142 -26,67 -60,142 -101,224 -62,126 -128,224 -198,296 -62,63 -121,107 -178,132 -28,12 -54,17 -77,17 -19,0 -29,-8 -29,-25 0,-34 11,-68 34,-100 10,-14 25,-28 44,-41 23,-16 56,-34 99,-53 -44,-75 -78,-141 -103,-199 -35,-84 -53,-160 -53,-229 0,-103 28,-165 84,-187 26,-10 48,-15 67,-15 35,0 58,23 70,70 2,8 6,45 12,112 8,87 21,170 38,249 2,10 5,27 10,52l2 0c10,-21 23,-52 39,-93 6,-16 21,-54 45,-114 12,-32 23,-64 33,-97zm608 -44c13,-18 30,-32 49,-42 19,-10 37,-15 56,-15 34,0 57,11 69,31 10,16 15,43 15,79 0,19 -2,44 -6,75 -5,45 -7,86 -7,123 0,44 2,79 6,104 1,7 6,26 15,56 4,10 5,19 5,25 0,7 -3,12 -8,17 -34,29 -70,43 -108,43 -52,0 -90,-32 -114,-95 -4,-10 -9,-33 -15,-70 -1,-17 -2,-32 -2,-46 0,-8 0,-16 1,-23 -52,14 -94,38 -125,72 -11,12 -23,29 -34,50 -14,25 -25,44 -36,57 -14,19 -25,34 -35,46 -17,16 -35,23 -55,23 -30,0 -53,-11 -70,-34 -15,-20 -23,-46 -23,-77 0,-39 9,-95 27,-169 15,-65 36,-133 64,-204 39,-102 86,-153 142,-153 45,0 68,29 68,88 0,22 -12,100 -36,235 27,-7 57,-18 91,-32 12,-11 21,-25 26,-43 5,-16 10,-33 15,-50 3,-16 11,-39 25,-71zm867 -13c1,8 1,15 1,22 0,32 -10,58 -30,77 -18,18 -40,26 -65,26 -7,0 -15,-1 -24,-3 -10,-3 -18,-4 -23,-4 -17,0 -37,6 -59,19 -17,11 -33,21 -50,32 26,1 48,15 65,42 9,12 20,34 33,68 15,37 36,60 62,69 13,3 27,6 40,9 12,6 20,17 24,35 0,3 0,5 0,7 0,22 -18,44 -54,66 -34,21 -63,33 -88,35 -6,1 -12,1 -17,1 -26,0 -47,-6 -65,-18 -27,-19 -48,-49 -62,-91 -3,-8 -16,-58 -40,-150 -18,16 -32,35 -44,58 -6,31 -15,72 -28,122 -12,29 -22,47 -29,56 -13,15 -32,23 -56,23 -47,0 -79,-25 -98,-74 -10,-23 -15,-49 -15,-80 0,-46 6,-97 18,-152 7,-36 21,-90 41,-164 26,-74 56,-121 91,-141 15,-9 29,-13 44,-13 20,0 38,7 54,22 14,12 24,27 28,42 5,17 7,33 7,48 0,16 -4,43 -13,81 -5,19 -12,49 -22,89 21,-34 43,-69 65,-103 26,-41 52,-72 78,-94 39,-32 80,-48 123,-48 28,0 51,8 72,23 20,16 32,37 36,63zm415 298l-11 10c-3,1 -18,12 -43,33 -56,43 -90,69 -103,78 -42,31 -78,54 -110,69 -22,11 -40,17 -54,17 -26,0 -46,-11 -59,-34 -12,-19 -18,-42 -18,-70 0,-109 29,-237 86,-384 29,-74 64,-119 106,-136 16,-6 34,-9 52,-9 28,0 50,8 66,25 17,17 25,39 25,67 0,19 -3,39 -9,60 -1,1 -11,27 -32,75l-7 19c-37,90 -56,137 -56,143 0,10 4,15 10,15 13,0 37,-21 74,-64 19,-21 38,-42 56,-61l24 -24 21 -22c35,-37 71,-68 107,-94 27,-19 50,-28 68,-28 35,0 52,30 52,90 0,10 -2,32 -5,66 -5,59 -8,109 -8,149 0,3 0,6 0,9 0,5 1,14 1,25 1,11 1,20 1,26 2,18 4,40 6,67 2,15 4,27 5,37 0,16 -16,29 -48,39 -24,6 -46,10 -68,10 -58,0 -97,-22 -118,-65 -10,-22 -15,-48 -15,-79 0,1 0,2 0,2 0,0 2,-20 4,-61zm-5180 1271c0,71 -14,141 -42,213 -28,72 -65,134 -113,184 -109,116 -255,173 -437,173 -25,0 -60,-2 -105,-7 -45,-4 -79,-7 -102,-7 -16,0 -30,1 -45,2 -4,1 -7,1 -10,1 -27,0 -50,-9 -70,-27 -23,-20 -34,-43 -34,-70 0,-36 21,-65 62,-87 7,-4 17,-6 29,-6 10,0 21,1 33,4l86 -292c33,-112 65,-185 95,-218 10,-11 37,-28 81,-49 -60,9 -132,50 -215,123 -28,25 -47,39 -57,43 -6,3 -12,4 -17,4 -3,0 -7,0 -10,-2 -7,-1 -14,-5 -22,-12 -5,-12 -7,-34 -7,-67 0,-20 4,-41 14,-66 4,-10 20,-28 48,-55 13,-13 50,-32 110,-57 57,-23 103,-38 137,-45 53,-11 108,-16 165,-16 11,0 23,0 34,1 91,3 164,17 218,41 116,52 174,150 174,294zm-241 105c0,-51 -8,-98 -23,-141 -16,-41 -37,-74 -65,-100 -30,-28 -76,-44 -137,-49 22,10 33,26 33,47 0,5 0,9 -2,14l-119 440c-1,4 -3,12 -5,24 -8,32 -16,58 -27,79 -8,16 -22,27 -41,34 28,10 54,16 78,16 21,0 43,-3 66,-7 49,-10 92,-34 130,-72 75,-76 112,-170 112,-285zm491 268c19,-13 34,-26 45,-40 21,-26 39,-58 53,-96 12,-30 19,-56 24,-80 5,-29 8,-57 8,-82 0,-24 -5,-36 -15,-36 -14,0 -35,31 -63,91 -38,82 -57,150 -57,204 0,9 2,22 5,39zm1 21c5,26 22,39 51,39 32,0 74,-19 126,-57 30,-22 50,-33 60,-33 11,0 22,2 33,8 14,6 20,14 20,23 0,8 -6,18 -18,31 -77,77 -160,128 -248,155 -27,9 -52,13 -74,13 -53,0 -95,-15 -128,-45 -33,-31 -49,-72 -49,-124 0,-88 31,-179 94,-272 35,-51 76,-93 126,-126 60,-41 118,-61 175,-61 43,0 75,14 98,41 22,26 32,60 32,103 0,74 -36,147 -108,219 -63,62 -117,93 -161,93 -9,0 -19,-3 -29,-7zm965 -321c1,8 2,15 2,22 0,32 -10,58 -30,78 -18,17 -40,25 -65,25 -7,0 -15,-1 -25,-3 -9,-3 -17,-4 -23,-4 -16,0 -36,7 -59,20 -16,10 -33,21 -49,31 26,2 47,15 65,42 9,12 20,35 33,68 15,37 36,60 62,69 13,3 26,7 40,10 12,5 20,17 24,35 0,2 0,4 0,6 0,22 -18,44 -55,67 -33,20 -62,32 -87,35 -6,0 -12,0 -18,0 -25,0 -47,-6 -64,-18 -27,-19 -48,-49 -63,-90 -2,-9 -16,-59 -39,-151 -18,16 -33,36 -45,58 -5,31 -14,72 -28,122 -12,29 -21,48 -29,57 -13,15 -31,22 -55,22 -47,0 -80,-24 -99,-73 -9,-23 -14,-50 -14,-80 0,-47 6,-98 18,-153 7,-35 21,-90 41,-164 25,-74 56,-121 91,-141 14,-9 29,-13 44,-13 19,0 38,8 54,22 14,13 23,27 28,42 5,17 7,33 7,49 0,16 -4,42 -13,80 -5,19 -13,49 -23,90 22,-35 44,-69 66,-104 26,-41 52,-72 78,-94 39,-32 79,-47 123,-47 27,0 51,7 71,23 21,15 33,36 36,62zm441 -149c64,0 96,7 96,23 0,16 -14,26 -43,27 -69,4 -129,39 -179,103 -49,65 -74,140 -74,225 0,42 9,78 27,106 21,34 52,51 92,51 37,0 68,-19 92,-58 21,-35 31,-71 31,-111 0,-77 -30,-139 -90,-185 -12,-9 -19,-16 -19,-21 0,-18 31,-39 94,-62 24,-9 45,-13 62,-13 40,0 74,19 101,58 28,39 42,87 42,144 0,43 -8,87 -24,131 -18,47 -41,84 -70,113 -36,34 -78,63 -128,85 -52,23 -102,34 -149,34 -42,0 -85,-7 -128,-21 -47,-16 -84,-37 -111,-64 -34,-34 -52,-83 -52,-147 0,-102 46,-198 138,-287 90,-87 187,-131 292,-131zm502 502c12,35 35,53 69,53 50,0 89,-40 116,-119 12,-36 18,-74 18,-115 0,-78 -8,-117 -24,-117 -11,0 -40,38 -86,114 -38,62 -65,113 -82,155 -5,11 -9,21 -11,29zm50 -277l20 -37c15,-27 32,-55 53,-84 28,-37 57,-61 88,-73 14,-6 30,-9 46,-9 69,0 118,38 146,113 13,36 20,78 20,125 0,66 -15,129 -44,191 -30,64 -70,115 -120,154 -50,39 -102,59 -154,59 -58,0 -102,-29 -134,-87l-4 11 -4 14c-17,61 -39,128 -67,199 -17,43 -31,69 -43,78 -10,9 -21,14 -33,14 -52,0 -79,-46 -79,-138 0,-102 20,-227 59,-374 34,-129 71,-222 110,-279 17,-26 34,-44 50,-56 12,-7 24,-10 38,-10 41,0 62,20 62,62 0,16 -2,36 -5,62 -5,34 -7,55 -8,62l3 3zm-2611 1449l-119 252 176 0 -54 -252 -3 0zm-55 -170l-40 -71c10,-8 19,-13 28,-17 33,-11 73,-16 120,-16 79,0 134,46 165,140 14,41 27,102 40,182 6,43 12,73 16,91 13,47 23,83 31,107 7,23 16,48 26,76 30,77 64,152 103,225 -69,48 -122,72 -161,72 -25,0 -46,-5 -63,-15 -19,-11 -35,-27 -47,-47 -14,-25 -31,-65 -49,-119 -5,-15 -9,-29 -14,-42 -51,21 -90,32 -118,32 -17,0 -31,-1 -42,-2 -11,0 -56,-2 -137,-4l-7 13c-27,55 -49,93 -67,116 -37,47 -95,72 -173,72 -43,0 -64,-12 -64,-34 0,-14 23,-53 71,-117 18,-25 30,-42 37,-53 -45,-9 -67,-25 -67,-48 0,-19 18,-47 54,-85 18,-19 37,-32 57,-37 12,-3 35,-5 69,-6l66 -121c9,-18 22,-40 37,-66l51 -91c19,-34 45,-79 78,-135zm744 640c12,35 35,53 69,53 50,0 89,-40 116,-119 12,-36 18,-74 18,-114 0,-79 -8,-118 -24,-118 -11,0 -40,38 -86,114 -38,62 -66,114 -83,155 -4,11 -8,21 -10,29zm50 -276l20 -38c14,-27 32,-54 53,-83 27,-37 57,-62 88,-74 14,-6 30,-8 46,-8 69,0 117,37 146,112 13,36 20,78 20,125 0,66 -15,130 -44,192 -30,63 -70,114 -120,153 -50,39 -102,59 -154,59 -58,0 -102,-29 -134,-87l-4 11 -4 15c-17,60 -39,127 -67,199 -17,42 -31,68 -43,78 -10,8 -21,13 -33,13 -52,0 -79,-46 -79,-138 0,-102 20,-227 59,-374 34,-129 71,-222 110,-278 17,-26 34,-45 50,-57 12,-7 24,-10 38,-10 41,0 62,21 62,62 0,16 -2,37 -5,62 -5,34 -7,55 -8,62l3 4z"/>
   <path class="fil0" d="M2129 3519c64,0 97,8 97,23 0,17 -15,26 -44,28 -69,3 -129,38 -178,102 -50,65 -75,140 -75,226 0,41 9,77 27,106 22,34 52,50 92,50 37,0 68,-19 92,-58 21,-34 31,-71 31,-110 0,-78 -30,-139 -90,-185 -12,-10 -18,-17 -18,-22 0,-18 31,-38 93,-61 24,-9 45,-14 62,-14 40,0 74,20 101,59 28,38 42,86 42,143 0,43 -8,87 -24,131 -17,47 -41,85 -70,113 -35,35 -78,63 -128,85 -52,23 -102,35 -149,35 -42,0 -85,-8 -127,-22 -47,-15 -84,-37 -112,-63 -34,-34 -51,-83 -51,-147 0,-103 45,-199 137,-287 90,-88 188,-132 292,-132zm746 306l27 -58c50,-104 93,-170 129,-197 18,-14 37,-20 58,-20 55,0 98,75 130,227 15,78 23,147 23,206 0,87 -21,143 -64,167 -22,13 -51,20 -85,20 -34,0 -53,-17 -58,-49 -3,-20 -5,-49 -5,-88 0,-71 -3,-139 -10,-202 -1,-3 -3,-20 -6,-52l-4 0c-3,7 -5,13 -7,16l-5 12c-26,57 -54,125 -83,202 -28,78 -48,125 -59,142 -3,4 -7,8 -13,13 -20,15 -50,23 -88,23 -37,0 -59,-17 -66,-50 -4,-19 -6,-48 -7,-87 -1,-77 -13,-173 -36,-291 -4,-17 -10,-47 -19,-88l-3 0c-10,27 -16,49 -20,66 -12,56 -19,135 -19,237l0 29c0,56 -12,98 -38,123 -33,35 -68,53 -105,53 -32,0 -49,-30 -49,-90 0,-71 15,-159 44,-265 25,-89 59,-172 100,-248 27,-49 53,-79 78,-90 13,-7 29,-10 46,-10 82,0 142,67 182,200 11,40 19,75 23,106 2,11 4,25 5,43l4 0zm908 8l-12 4c-28,9 -50,13 -68,13 -16,0 -25,-4 -25,-13 0,-3 4,-11 10,-24 25,-36 37,-71 37,-103 0,-13 -3,-28 -7,-43 -6,-21 -14,-31 -24,-31 -8,0 -18,7 -32,22 -87,93 -131,178 -131,256 0,20 4,37 11,52 10,20 23,30 40,30 30,0 92,-49 186,-146l18 -14 -3 -3zm-39 148l0 3 -2 -3c-79,92 -146,153 -203,183 -28,15 -55,23 -78,23 -49,0 -89,-17 -121,-49 -31,-32 -46,-73 -46,-123 0,-69 29,-146 87,-231 44,-63 98,-117 163,-162 73,-50 144,-75 212,-75 46,0 86,9 122,26 45,21 68,52 68,94 0,25 -9,52 -26,80 21,0 35,2 40,5 8,6 13,18 13,38 -1,2 -2,10 -4,26 -2,34 -3,74 -3,120 0,30 1,56 3,78 1,13 2,24 4,31 3,20 9,40 16,60 -50,49 -99,74 -146,74 -67,0 -100,-56 -100,-167 0,-13 0,-23 1,-31zm997 -46l-176 182c-39,39 -73,59 -102,59 -27,0 -49,-10 -66,-30 -18,-20 -27,-44 -27,-71 0,-31 14,-82 40,-152 4,-8 9,-21 16,-38l-3 -3c-39,41 -80,87 -123,139 -26,31 -47,55 -62,71 -27,29 -51,50 -72,63 -15,10 -30,15 -42,15 -32,0 -55,-13 -71,-40 -14,-22 -20,-49 -20,-83 0,-48 20,-126 62,-232 37,-96 66,-160 86,-190 29,-45 63,-68 102,-68 21,0 38,5 54,14 18,11 27,27 27,46 0,30 -16,88 -47,175 -7,19 -13,38 -19,57l2 2c19,-20 45,-51 77,-91 60,-72 105,-124 138,-153 41,-38 78,-56 110,-56 32,0 57,18 74,54 8,17 12,35 12,53 0,18 -14,66 -40,142 -4,14 -11,34 -21,61l3 3 16 -17c5,-4 10,-10 16,-15l16 -15c27,-25 56,-55 88,-89 37,-38 61,-62 73,-71 18,-12 35,-18 51,-18 55,0 83,36 83,108 0,16 -4,50 -11,104 -11,84 -16,148 -16,190 0,23 3,50 7,79 5,25 12,61 21,109 -4,17 -17,31 -39,42 -19,9 -38,14 -58,14 -35,0 -68,-16 -99,-48 -26,-27 -42,-60 -48,-98 -3,-20 -5,-47 -5,-81 0,-22 2,-67 8,-136l-3 -3 -12 16zm707 32l-11 9c-3,2 -18,13 -44,33 -55,44 -89,70 -102,79 -42,31 -78,54 -110,69 -22,11 -40,17 -54,17 -26,0 -46,-12 -59,-34 -12,-19 -18,-42 -18,-70 0,-110 29,-238 86,-384 29,-74 64,-119 106,-136 16,-6 33,-10 52,-10 27,0 50,9 66,25 17,17 25,40 25,67 0,19 -3,39 -10,60 0,2 -10,27 -31,76l-8 19c-37,89 -55,137 -55,143 0,9 3,14 10,14 13,0 37,-21 73,-63 19,-22 38,-42 57,-61l24 -24 21 -22c35,-37 70,-69 107,-94 27,-19 50,-29 68,-29 34,0 52,30 52,90 0,10 -2,32 -5,67 -5,59 -8,108 -8,149 0,3 0,6 0,9 0,5 0,13 1,24 0,12 1,21 1,27 1,17 4,39 6,66 2,16 3,28 5,37 0,17 -16,30 -48,39 -24,7 -46,11 -68,11 -58,0 -97,-22 -118,-66 -10,-21 -15,-48 -15,-79 0,2 0,2 0,2 0,0 2,-20 4,-60zm-4404 1037c0,21 -18,50 -54,88 -16,15 -29,26 -40,31 -8,4 -24,8 -49,13 -8,42 -23,108 -46,196 -26,101 -49,180 -70,239 -11,30 -28,75 -52,134 -12,29 -27,49 -43,62 -47,36 -93,54 -138,54 -44,0 -66,-19 -66,-57 0,-32 17,-97 50,-193 7,-24 37,-112 88,-265 9,-29 23,-73 42,-131 2,-8 7,-26 16,-52l-212 -3c-15,49 -36,115 -64,198 -1,2 -3,7 -4,13 -33,98 -62,189 -85,270 -24,82 -43,136 -58,160 -2,6 -8,13 -16,23 -28,26 -62,38 -103,38 -27,0 -50,-5 -70,-16 -24,-14 -36,-33 -36,-59 0,-16 6,-44 17,-86 8,-29 20,-71 36,-126 24,-77 54,-174 90,-290 13,-40 29,-84 48,-134 -34,-6 -51,-21 -51,-44 0,-35 19,-71 56,-108 10,-11 19,-18 26,-22 11,-7 24,-10 40,-10 4,0 8,0 13,0 63,0 135,3 216,9 23,1 96,5 219,13 96,5 171,8 222,8 52,0 78,16 78,47zm378 157c64,0 96,8 96,23 0,17 -14,26 -43,28 -70,4 -129,38 -179,103 -50,64 -75,139 -75,225 0,42 9,77 27,106 22,34 53,51 92,51 38,0 68,-20 93,-59 20,-34 31,-71 31,-110 0,-77 -30,-139 -90,-185 -13,-9 -19,-16 -19,-21 0,-18 31,-39 93,-62 25,-9 45,-14 62,-14 40,0 74,20 102,59 27,39 41,86 41,143 0,44 -8,88 -24,132 -17,46 -40,84 -70,113 -35,34 -78,62 -128,84 -52,23 -102,35 -149,35 -42,0 -84,-7 -127,-22 -47,-15 -84,-36 -111,-63 -35,-34 -52,-83 -52,-147 0,-103 46,-199 137,-287 90,-88 188,-132 293,-132zm616 27c31,0 58,9 78,28 20,18 29,42 29,71 0,57 -26,104 -78,143 -23,17 -46,25 -69,25 -13,0 -19,-4 -19,-14 0,-3 2,-11 7,-22 17,-29 25,-62 25,-99 0,-18 -2,-28 -6,-28 -16,0 -34,27 -54,79 -31,79 -47,147 -47,201 0,63 17,94 51,94 34,0 77,-27 128,-80 9,-12 17,-18 24,-18 10,0 16,6 16,18 0,53 -21,102 -62,144 -25,25 -56,47 -91,65 -39,20 -74,30 -107,30 -50,0 -93,-16 -126,-47 -35,-32 -53,-73 -53,-124 0,-101 41,-204 123,-309 37,-49 80,-90 127,-122 35,-23 68,-35 101,-35l3 0zm541 180l8 -28c14,-46 31,-79 51,-99 33,-34 68,-50 103,-50 28,0 42,12 42,36 0,23 -14,71 -42,142 -26,67 -60,142 -101,224 -62,125 -128,224 -198,296 -62,63 -121,107 -178,132 -28,11 -54,17 -77,17 -19,0 -29,-8 -29,-25 0,-34 11,-68 34,-100 10,-14 25,-28 44,-42 23,-15 56,-33 99,-53 -44,-74 -78,-140 -103,-198 -35,-84 -53,-161 -53,-229 0,-103 28,-165 84,-187 26,-10 48,-15 67,-15 35,0 58,23 70,70 2,8 6,45 12,112 8,87 21,170 38,249 2,10 5,27 10,51l2 0c10,-21 23,-51 39,-92 6,-16 21,-54 45,-114 12,-32 23,-64 33,-97zm669 129l0 2 -2 -2c-2,1 -6,1 -10,1 -7,1 -18,1 -32,1 -21,0 -32,-4 -32,-12 0,-4 2,-9 8,-15 39,-44 59,-96 62,-156 0,-2 0,-6 1,-12 1,-5 2,-9 2,-12 0,-6 -5,-9 -13,-9 -17,0 -43,18 -77,55 -49,51 -84,110 -108,178 -10,32 -16,61 -16,86 0,25 7,38 19,38 12,0 43,-20 91,-61 26,-22 62,-49 107,-82zm-33 138l-17 13c-1,0 -6,5 -17,13 -135,106 -231,159 -286,159 -38,0 -68,-15 -89,-43 -19,-26 -28,-58 -28,-98 0,-108 55,-215 163,-320 109,-105 220,-158 333,-158 110,0 165,37 165,111 0,32 -12,70 -36,116 34,2 51,23 51,62 0,81 -24,183 -72,307 -45,118 -122,205 -230,260 -50,26 -94,38 -130,38 -31,0 -58,-12 -81,-36 -24,-23 -35,-51 -35,-81 0,-43 18,-83 55,-120 35,-34 84,-66 149,-97 12,-6 21,-9 27,-9 7,0 11,4 11,11 0,3 -3,8 -8,17 -13,22 -24,50 -34,84 -10,35 -15,64 -15,90 0,29 4,44 13,44 11,0 24,-18 37,-52 37,-93 60,-179 71,-259 1,-9 2,-27 3,-52z"/>
  </g>
 </g>
</svg>
