<?xml version="1.0" encoding="UTF-8"?>
<!DOCTYPE svg PUBLIC "-//W3C//DTD SVG 1.1//EN" "http://www.w3.org/Graphics/SVG/1.1/DTD/svg11.dtd">
<!-- Creator: CorelDRAW X7 -->
<svg xmlns="http://www.w3.org/2000/svg" xml:space="preserve" width="40.8229mm" height="29.3866mm" version="1.1" style="shape-rendering:geometricPrecision; text-rendering:geometricPrecision; image-rendering:optimizeQuality; fill-rule:evenodd; clip-rule:evenodd"
viewBox="0 0 2547 1834"
 xmlns:xlink="http://www.w3.org/1999/xlink">
 <defs>
  <style type="text/css">
   <![CDATA[
    .fil0 {fill:#6E6F73}
    .fil7 {fill:#6F7074}
    .fil19 {fill:#727176}
    .fil73 {fill:#727274}
    .fil16 {fill:#757479}
    .fil72 {fill:#757576}
    .fil84 {fill:#79797A}
    .fil82 {fill:#7D7D7E}
    .fil34 {fill:#858586}
    .fil31 {fill:#8A8A8D}
    .fil21 {fill:#8C8B8E}
    .fil77 {fill:#8C8B91}
    .fil14 {fill:#8E8E92}
    .fil46 {fill:#919192}
    .fil59 {fill:#929295}
    .fil79 {fill:#949398}
    .fil93 {fill:#959596}
    .fil90 {fill:#969699}
    .fil35 {fill:#97989A}
    .fil57 {fill:#98979C}
    .fil68 {fill:#99999A}
    .fil23 {fill:#9A9A9E}
    .fil64 {fill:#9C9B9E}
    .fil78 {fill:#9C9BA1}
    .fil41 {fill:#9D9D9E}
    .fil56 {fill:#9E9EA1}
    .fil89 {fill:#9FA0A3}
    .fil28 {fill:#A09FA4}
    .fil50 {fill:#A1A1A2}
    .fil60 {fill:#A2A2A6}
    .fil38 {fill:#A4A3A6}
    .fil53 {fill:#A4A3A9}
    .fil75 {fill:#A5A5A6}
    .fil26 {fill:#A6A6A9}
    .fil39 {fill:#A8A7AB}
    .fil44 {fill:#AAAAAD}
    .fil83 {fill:#ACABAE}
    .fil52 {fill:#ACABB1}
    .fil43 {fill:#ADADAE}
    .fil11 {fill:#AEAEB1}
    .fil69 {fill:#AFB0B2}
    .fil40 {fill:#B0AFB4}
    .fil51 {fill:#B1B1B2}
    .fil54 {fill:#B2B2B5}
    .fil18 {fill:#B4B3B6}
    .fil22 {fill:#B4B3B9}
    .fil42 {fill:#B5B5B6}
    .fil25 {fill:#B6B6B9}
    .fil36 {fill:#B8B7BB}
    .fil58 {fill:#B9B9BA}
    .fil30 {fill:#BABABD}
    .fil71 {fill:#BCBBC1}
    .fil20 {fill:#BDBDBE}
    .fil55 {fill:#BEBEC1}
    .fil49 {fill:#C0BFC3}
    .fil67 {fill:#C0C0C1}
    .fil88 {fill:#C1C1C2}
    .fil17 {fill:#C1C1C5}
    .fil63 {fill:#C4C3C5}
    .fil66 {fill:#C5C5C6}
    .fil27 {fill:#C6C6C9}
    .fil61 {fill:#C7C7CA}
    .fil47 {fill:#C8C7CB}
    .fil32 {fill:#C9C9C9}
    .fil74 {fill:#CACACD}
    .fil48 {fill:#CCCBCD}
    .fil76 {fill:#CCCBD0}
    .fil91 {fill:#CDCDCE}
    .fil85 {fill:#CECED1}
    .fil87 {fill:#CFD0D1}
    .fil81 {fill:#D0CFD3}
    .fil65 {fill:#D2D2D5}
    .fil37 {fill:#D4D3D5}
    .fil92 {fill:#D4D3D9}
    .fil24 {fill:#D5D5D6}
    .fil62 {fill:#D6D6D9}
    .fil80 {fill:#D7D7D9}
    .fil29 {fill:#D8D7DB}
    .fil86 {fill:#D9D9DA}
    .fil70 {fill:#DADADD}
    .fil33 {fill:#DCDBDD}
    .fil45 {fill:#DCDBE1}
    .fil12 {fill:#E2E2E5}
    .fil13 {fill:#E6E5EA}
    .fil9 {fill:#EAE9EE}
    .fil8 {fill:#EBEBED}
    .fil15 {fill:#EEEEF0}
    .fil10 {fill:#F0EFF3}
    .fil6 {fill:#F1F1F3}
    .fil5 {fill:#F4F3F5}
    .fil4 {fill:#F6F5F6}
    .fil3 {fill:#F7F7F9}
    .fil1 {fill:#FAF9FA}
    .fil2 {fill:#FAFAFC}
   ]]>
  </style>
 </defs>
 <g id="Слой_x0020_1">
  <metadata id="CorelCorpID_0Corel-Layer"/>
  <path class="fil0" d="M2106 1274c-52,57 -157,51 -222,44 -38,-4 -46,-3 -83,1l-13 4 -17 14c-2,5 -3,6 -5,9 -1,1 -3,4 -3,5 -6,6 -1,2 -7,7 -3,16 -3,20 4,29 14,5 12,6 24,10 16,4 13,3 24,10l9 -1 8 -5c18,-57 -5,-44 -4,-72 46,-4 56,48 41,87 -7,19 -16,29 -33,39 -9,5 -20,9 -33,10 -44,2 -33,-7 -36,-10l-5 0c-23,-6 -53,-34 -56,-63 0,-48 -5,-45 16,-82 7,-16 11,-19 27,-24 18,-12 47,-26 73,-30 20,-3 96,-3 102,-5 40,2 89,19 127,17 49,-2 7,3 39,6 9,-6 12,-11 21,-11 10,-16 18,-21 33,-25 -2,19 -12,30 -31,36zm-934 -101c6,0 4,-1 12,1 7,3 7,5 10,7 16,3 37,13 45,25l13 4c17,8 48,31 57,45l5 4 9 5 3 9 40 36 48 35c13,2 4,0 17,6 13,6 9,1 18,12 37,7 57,22 102,5 6,-7 0,-2 9,-9 5,-4 7,-4 11,-8 7,-7 9,-13 14,-21 3,-21 -5,-34 -19,-43 -19,-8 -18,-10 -32,-21l-14 2 -11 -2c-7,12 2,5 -13,13l-3 1 -1 17 -2 50c-33,2 -56,-51 -32,-71 0,-11 5,-18 11,-27 3,-3 7,-10 10,-13 10,-10 5,-6 16,-10 23,-29 98,-22 116,7 13,3 13,4 16,14 5,3 3,-1 6,5 5,7 1,-1 4,8l4 11 3 12c4,2 9,-4 12,30 2,23 -1,25 -7,34l-8 24 -1 11 -7 3c-3,9 0,3 -3,5 -5,20 -33,35 -51,41 -13,-1 -14,5 -34,7 -156,11 -208,-78 -236,-87l-21 -11c7,29 17,49 1,66 0,10 -4,16 -5,24 -9,44 -59,71 -106,48 -15,-7 -16,-16 -31,-25l0 -13c-4,-46 -7,-42 19,-72 9,-15 38,-15 48,-2 -4,4 -63,19 -35,59 7,10 4,3 6,12 24,10 23,14 55,6 6,-2 5,-1 9,-6 4,-14 11,-18 15,-37 5,-22 0,-31 0,-50 -5,-7 -13,-26 -18,-32 -6,-4 -2,0 -10,-8 -2,-2 -6,-7 -8,-10 -7,-3 -25,-17 -32,-25l-39 -23c-12,-2 -17,-5 -18,-15l2 -16c-15,-2 -27,-7 -45,-8 -19,-2 -33,5 -47,3 -1,0 -2,1 -2,2l-4 4c-11,9 -25,19 -9,40 8,-12 7,-25 20,-32 50,-29 80,51 23,72 -31,-3 -47,4 -67,-16 -23,-23 -11,-43 -7,-68 4,-12 8,-14 18,-22 11,-10 14,-11 28,-13l6 0c8,-21 59,-5 76,-5 17,0 7,2 11,-3l-3 3 -13 -1c-8,-14 -4,1 -12,-17l55 5 3 9zm-237 33c-1,3 -1,5 -4,9 -6,8 -2,4 -9,8l-14 16c-1,1 -2,1 -2,3 -1,6 -15,15 -24,18 -16,7 -31,23 -51,34 -19,11 -37,23 -61,30 -58,16 -107,13 -150,-15 -13,-5 -1,4 -12,-6 -5,-5 -5,-8 -8,-15 -3,-7 -7,-11 -8,-20 -23,-10 -11,-72 -2,-93 11,-22 37,-50 65,-53l46 0 11 2c19,8 33,22 39,39l0 3c11,7 2,-2 9,7 7,9 8,29 6,41 -3,17 -14,29 -31,30 -1,-31 2,-56 -25,-67l-20 -3 -34 24c-16,40 -15,22 1,57 29,15 47,25 89,11 13,-4 29,-9 42,-15 12,-6 23,-13 36,-18 4,-10 5,-8 15,-10 17,-5 36,-22 50,-25l25 -16c6,-15 29,-23 31,-23 25,-5 13,1 18,5 -5,11 2,3 -5,10 -5,4 -2,1 -8,4 -6,3 -9,5 -14,8 0,1 3,9 3,10 0,11 6,3 -4,10zm415 -181l1 -1c-1,19 -3,22 -6,39 -4,33 13,36 -28,36 -15,0 -15,3 -28,-4 -1,-7 -5,1 0,-11 5,-14 5,-7 9,-10 4,-11 0,-11 9,-21l-2 -13c1,-32 10,-50 7,-85 11,-15 9,-11 13,-30 1,-7 2,-13 3,-19 0,-2 1,-8 2,-10 2,-6 4,-8 5,-8 -3,-13 0,-20 3,-33 4,-20 0,-23 2,-41l68 -1c1,69 12,76 13,114 -1,16 2,19 10,28l0 38c10,8 8,6 10,24 4,31 20,74 19,81l-57 1c-9,-38 12,-99 -53,-74zm-420 57c13,-14 22,-99 22,-127l6 -6 16 -95 0 -40c12,-4 59,-4 69,0 0,3 10,85 10,88 -1,10 1,17 3,27 4,18 2,15 10,26 -1,28 11,113 22,127 11,5 6,-2 8,10 -9,12 -7,7 -26,7 -39,0 -31,12 -35,-55 1,-12 1,-22 -9,-24l-32 1c-8,13 -14,39 -13,56 1,25 2,22 -33,22 -19,0 -16,5 -26,-7 3,-13 -2,-4 8,-10zm-100 -241c-23,116 19,93 37,98 18,6 9,2 13,11l33 1c-1,25 -6,-2 -6,53 0,27 3,76 -43,88 -29,7 -39,-3 -56,-6 -12,-2 -25,-20 -29,-35 -2,-7 -1,-17 -4,-26 -3,-10 -3,0 -4,-10 -1,-16 0,-5 4,-9 9,-8 44,-6 54,-1 8,25 2,6 -1,13 -7,11 -4,25 -4,38 2,7 6,11 10,16l19 1c25,-22 13,-66 11,-99 -11,-5 -5,0 -15,-12l-22 -2 -13 -1c-11,-12 -11,-6 -20,-21 -4,-9 -8,-11 -9,-22 -6,-6 -3,0 -6,-10 -1,-3 -1,-13 -1,-16 0,-27 2,-44 24,-63 25,-21 71,-22 83,4 20,0 32,54 32,73l-45 3c-17,-2 -8,-2 -13,-6 -2,-27 -1,-6 6,-14l2 -8 -1 -25 -8 -16 -24 -1 -4 4zm971 32l24 107 2 1c7,4 6,1 12,5 4,-16 9,-42 14,-57 5,-18 7,-51 21,-60l12 -50c5,-8 0,-7 24,-6 12,0 20,-1 33,0 0,16 -11,87 -2,138 -1,16 -5,18 -5,68l4 75 -48 0c-1,-14 -1,-5 2,-15l0 -102 -9 13c-1,1 -2,2 -3,3 0,0 -1,1 -2,2l-4 33c0,16 -4,40 -14,51l3 24c10,6 12,5 21,13 7,6 11,9 19,17 17,13 38,19 59,22 36,5 47,-7 72,-16 20,-17 28,-47 12,-78 -6,-11 -16,-21 -27,-27 -9,-4 -39,-10 -45,2 -3,18 -6,19 10,33 14,11 9,3 11,15 -15,5 -23,1 -31,-9 -11,-16 -15,-19 -10,-44 5,-16 -2,-10 15,-16l3 -1c2,-4 -4,-10 24,-10 2,0 12,0 14,1 14,3 9,4 12,6 21,6 41,25 45,45 13,7 12,37 9,51 -1,6 -3,15 -6,20 -4,12 -5,12 -16,18 -43,36 -50,26 -109,23 -17,-1 -45,-18 -56,-30l-6 1c8,1 1,0 1,8 19,9 24,22 60,35 36,14 48,5 81,10l15 -3c-8,-3 -5,6 -4,-8l16 -2 5 -1c16,-26 -9,7 5,-9l21 -16c10,-10 12,-19 28,-31 11,-8 14,-28 19,-45 8,-27 -2,-36 -1,-59 -10,-9 -4,-2 -11,-15 -7,-15 -5,-2 -4,-14 -17,-10 -27,-22 -43,-29 -4,-2 -4,-1 -8,-4 -14,-8 -3,0 -9,-8l-3 4 -22 -1c0,14 5,21 -6,27 -11,24 -50,20 -56,-8 -3,-22 -4,-36 12,-44 20,-26 68,-9 95,-8l-10 -15c-13,-3 -18,-11 -29,-18 -10,-6 -11,-7 -15,-18l2 -1 -7 -2 -2 -13 2 1c-13,-10 -11,-35 -1,-46 4,-16 8,-21 16,-27 4,-9 1,-8 11,-15 8,-5 7,-4 16,-6 18,-3 24,-10 49,-9 20,0 32,6 47,11 15,5 14,3 20,17 18,38 20,40 6,88 -2,14 -9,17 -20,21 -7,13 -23,12 -42,12l6 13 10 11c15,6 22,13 27,28 11,-5 4,-2 10,9 1,3 6,16 8,20l-1 12c10,9 1,-9 8,10 2,4 2,9 3,13 6,17 12,54 2,71 -18,-5 -9,-1 -14,-20 -1,14 1,13 -5,24 -1,17 -11,40 -23,48l1 8 -9 3 1 -1c-4,10 -1,7 -14,19 -6,6 -10,9 -17,13 -13,9 -26,18 -43,21 -12,-1 -29,8 -44,10 -16,2 -46,2 -61,0 -30,-4 -62,-20 -81,-34 -11,-2 -6,0 -14,-5 -9,-7 -6,-7 -8,-11 -10,-3 0,6 -12,-7 -6,-6 -5,-5 -8,-14 -10,-17 -21,-30 -28,-56 -5,-18 -17,-55 -17,-72 -9,-10 -10,-25 -14,-37 -11,18 -4,79 -4,106 4,8 1,0 4,12l-49 1 2 -14c-1,-22 -1,-45 -1,-67 1,-31 0,-30 -7,-57 12,-21 8,-44 8,-69 0,-12 0,-26 -1,-38 0,-16 -5,-17 -5,-36l57 0 15 61zm-104 76l-2 14c-1,41 -4,91 4,127 -4,7 3,7 -24,7 -12,0 -16,1 -28,-1 -1,-14 2,-50 2,-69 1,-29 1,-44 -5,-72 8,-18 6,-48 6,-73 -1,-49 -5,-53 -5,-67 14,-5 41,-4 56,-1l-4 65c0,23 2,47 0,70zm-91 -6c-3,11 -2,4 -4,16 9,9 14,11 17,28 -2,27 3,47 -4,72 -5,24 -22,36 -52,39 -8,1 -68,2 -74,-3 -2,-4 -5,6 -3,-9 2,-15 5,6 5,-51 0,-25 2,-46 -3,-70 -1,-5 3,-51 3,-67 0,-24 -1,-50 0,-71 -8,-6 -5,4 -6,-13 36,-9 101,-7 122,18 21,23 26,97 -1,111zm-370 75c0,0 -4,-3 10,-5 7,-1 6,-1 10,3 5,5 3,18 3,26 0,27 6,36 7,52 -17,7 -128,7 -143,2 -1,-3 4,-47 4,-65 0,-13 0,-26 0,-38 0,-16 -5,-31 -5,-38 4,-34 5,-18 5,-69 0,-13 0,-25 0,-38 0,-17 -4,-18 -5,-35 16,-3 42,-4 57,2 -1,21 -13,96 -6,128 4,15 10,2 4,23 -8,27 -9,78 1,101 1,1 2,1 3,2 5,1 4,1 10,1l21 -4c5,-22 2,-41 24,-48zm459 -416l1 1 4 30c19,13 16,20 26,33 14,4 27,3 39,-6 13,-10 4,-13 20,-28l-1 -2 -1 -24c28,4 32,29 27,49 -4,17 -7,14 -9,15 -5,20 -29,38 -48,44 -9,1 -14,4 -29,4 -11,0 -23,-4 -30,-3 -23,-8 -40,-24 -48,-44 -7,-16 -13,-35 -13,-59 1,-37 10,-31 15,-53 3,-7 3,-8 7,-12 9,-10 2,-3 10,-5 3,-8 -6,0 7,-12 5,-5 8,-5 14,-8 36,-10 45,-19 91,-8 31,7 49,17 74,29 13,5 24,10 31,22 19,8 75,72 88,96 10,8 9,6 11,20 -2,1 -3,2 -4,2l-11 3c4,8 8,9 15,17l8 5c10,8 8,9 9,18 -17,-3 -19,-5 -28,-16 -5,-3 -10,-6 -14,-10 -5,-3 -3,-1 -7,-5 -5,-6 -1,-1 -6,-9 -7,-2 -12,-8 -18,-13 -12,-10 -9,-4 -15,-17 -5,-1 -3,0 -9,-3 -3,-2 -6,-4 -7,-5 -7,-6 -7,-7 -14,-10 -11,-6 -16,-11 -24,-17 -12,-8 -12,-6 -19,-15 -7,-1 -12,-3 -17,-6 -4,-3 -2,-1 -7,-5 -5,-5 -2,-3 -6,-9 -14,-3 -20,-10 -37,-12 -17,-2 -31,0 -45,1 -7,13 -17,19 -30,27zm-598 -5l-9 23c-4,7 -7,13 -11,18 -9,11 -4,6 -15,12l2 0 -22 26c-6,12 -10,12 -22,16l-3 5c-6,10 0,4 -9,9 -38,25 -121,37 -144,-24 -2,-12 -6,-19 -7,-32 -2,-17 3,-21 3,-35 5,-30 44,-56 69,-51 23,5 8,-1 10,8l14 2c7,2 10,2 15,7 11,9 3,-1 7,11l4 9c8,5 4,-4 10,9 3,5 2,22 -3,30 -13,20 -18,-4 -20,-15l1 -2 -16 -14c-9,-5 -17,-2 -26,-1 0,1 -1,2 -1,3 -17,27 -21,28 -10,54 13,13 30,10 49,7 10,-11 11,-7 22,-15 7,-4 6,-4 11,-8 12,-8 0,-1 13,-6l8 -8c7,-12 7,-12 18,-19l4 -5 15 -15c3,-10 9,-14 21,-22l3 -5 7 -8c0,-1 1,-1 1,-2 8,-12 17,-20 31,-24 -3,25 -10,9 -8,33 2,23 -3,25 -12,29zm-335 -72c-5,9 0,7 -12,10 -5,11 -9,14 -13,29l-25 85c-8,18 -1,3 -7,10 1,12 -4,26 -9,40 -3,10 -5,28 -15,33l1 7 -8 53 10 11c-10,21 -21,-2 -40,60 -4,14 -9,27 -13,41 -2,7 -4,13 -6,20 -4,14 -2,11 -11,19l-8 24c-2,30 -25,77 -24,94 0,18 1,3 3,16 3,22 -8,19 -29,18 -11,0 -20,-2 -27,-2 -18,-1 -39,8 -58,-1 1,-15 -4,-10 9,-16 3,-8 -6,2 3,-8 6,-7 3,-4 11,-8l7 -16c2,-14 -1,-15 10,-24l13 -48c2,-15 -1,-13 9,-20l9 -35c3,-14 4,-28 15,-37l8 -35 -1 -35c-9,-6 -6,6 -8,-7 3,-14 10,-3 25,-20 6,-6 3,-4 8,-8l10 -38c2,-11 6,-22 10,-33 1,-5 4,-14 6,-19 6,-17 2,-6 8,-10 -1,-23 37,-111 25,-118 -22,-4 -46,-3 -68,0 -7,15 -3,20 -5,40 -4,49 -14,40 -16,41l-2 1c-4,15 1,4 -5,11 -6,10 2,0 -9,6l1 -2c-4,11 -7,15 -22,19 -32,9 -33,0 -35,-11l0 -80c0,-74 -19,-44 -13,-75 21,-2 205,-3 229,1 19,4 43,-3 68,0 1,16 2,10 -9,17zm228 -106c-7,29 -5,31 11,53 23,32 19,16 49,12 8,-5 10,-5 11,-18l6 -35c41,12 27,71 5,76 -18,14 -19,19 -46,27 -30,10 -41,-3 -60,-9 -11,-4 -10,-2 -18,-12 -12,-15 -22,-33 -25,-53 -5,-24 -1,-64 22,-78 3,-14 2,-14 15,-16 19,-39 126,-29 157,4 9,3 13,7 19,9 12,2 11,-1 16,10l-2 -1c14,3 14,3 22,15l9 4c9,4 17,6 17,16 16,5 59,46 66,63l4 5c8,3 6,2 12,7 0,0 5,7 6,9 7,9 7,9 12,21 4,11 10,12 12,23 15,5 19,17 26,31 3,12 19,27 19,37 9,-3 7,6 7,-14 -8,-22 -4,-36 1,-58 3,-11 3,-23 16,-27 9,-10 5,-11 19,-18 8,-13 18,-16 37,-16 14,1 25,5 34,15l-1 -1c6,3 8,3 12,7 10,10 2,-2 6,12 10,19 6,26 6,49 -3,16 -7,20 -20,29l-5 -1c-7,7 11,4 -13,8 -17,2 -28,-6 -33,-21 24,3 14,7 33,-3 4,-2 4,-2 8,-6 1,-1 4,0 5,-4 0,-1 1,-1 2,-2 -1,-16 0,-26 -10,-37 -7,-8 -22,-15 -35,-14 -22,1 -40,26 -45,46 -2,24 -2,37 6,58 8,18 16,25 21,37 7,4 3,-1 11,7l20 24 1 1 16 17 -7 16c15,4 5,-2 11,11 6,6 21,12 30,12 29,4 59,9 57,-27l-12 6 -5 5c0,0 1,14 -28,5 -16,-5 -21,-17 -16,-32 4,-16 0,-4 8,-10l1 -4c0,-3 0,-8 3,-11 5,-3 34,-13 47,4l6 -1c16,7 18,9 21,25 7,4 2,-11 6,9 2,9 -2,25 -6,33 -4,6 -16,24 -25,20 -18,27 -64,8 -90,2 1,2 3,10 3,11 -19,-4 -46,-15 -59,-32 -10,-6 -30,-27 -38,-36 -10,-5 -17,-12 -22,-24 -6,-2 -6,-1 -5,-10 -7,-4 -2,0 -9,-6 -3,-3 -3,-3 -5,-6 -10,-11 -5,-3 -11,-16l-64 -89 -8 -11c-6,-2 -5,7 -6,-2l-1 -6c-9,-4 -1,6 -11,-7 -4,-5 -3,-5 -5,-11 -8,-3 -1,1 -7,-4 -1,-1 -3,-3 -4,-4l-57 -56c-6,-7 -3,-3 -8,-12l-13 -7c-9,-2 -8,1 -12,-9l-10 -7 -13 -8 1 1c-7,-2 -14,-4 -19,-6 -10,-4 -1,0 -8,-4l-5 -5 -45 -2 -24 17zm-37 -325l-98 25 -4 -2c-13,12 -57,23 -73,24l-65 21c-5,6 1,3 -7,7 -9,5 -1,2 -11,1 -6,8 -120,55 -122,55 -19,4 -36,20 -55,29 -7,11 0,4 -11,12 -6,4 -8,4 -13,7 -11,6 -11,8 -25,11l2 -1c-7,11 2,1 -9,11 -1,1 -7,5 -9,6 -9,6 -11,8 -21,9 -4,10 2,3 -7,9 -4,3 -2,1 -7,4 -12,7 -3,5 -19,10l-21 15c-5,11 4,2 -8,11 -5,4 -2,1 -9,2 -3,7 1,1 -4,7 -9,10 -71,64 -94,89 -9,11 -18,25 -30,31l0 8 -7 1c-4,11 -16,25 -24,36 0,7 2,4 -7,4l1 -2c-4,12 -5,16 -16,24l-42 74c-2,13 -8,23 -13,35 -1,4 -4,13 -6,16 -11,21 -1,5 -12,13l-7 31c-14,59 -29,105 -30,170 -1,35 1,62 4,96 3,25 16,63 14,84 2,3 2,0 6,10 1,4 3,9 4,14 4,12 6,16 8,29l6 22c11,5 3,-3 8,6 6,11 2,9 2,14 1,1 2,1 2,2 0,1 2,1 2,1l12 24c-1,12 20,39 25,51 7,4 3,0 8,6 4,4 2,2 5,7 3,5 6,12 10,20l36 53c8,4 3,0 9,5 1,1 5,6 7,8 8,9 9,6 14,19l11 14 8 2 1 8 7 -1 0 8c6,3 7,3 12,8 12,13 4,3 7,12 12,2 0,-6 14,8 4,4 6,6 12,11 10,10 14,10 22,23 9,0 4,-4 8,3l9 10c6,2 3,0 10,6 9,8 -2,-4 4,4 5,5 2,1 6,8l45 32c10,1 5,-1 12,3 12,9 3,2 8,11 20,13 83,55 104,60l115 52c2,1 6,2 8,3 13,7 5,3 10,9l3 -1c12,2 14,3 26,8 3,1 8,2 11,3 7,4 5,4 8,7l51 14c7,4 4,3 8,7l24 4c13,0 10,0 22,3 1,1 7,2 8,3 13,5 6,2 12,8 20,1 39,8 56,12 19,5 44,8 61,12l80 10c17,6 5,0 12,7l132 9c111,3 176,1 285,-11 32,-3 103,-21 126,-20 4,-8 -2,-5 12,-9 5,-1 12,-2 17,-3 59,-13 199,-59 209,-60 12,-2 56,-21 70,-29 11,-12 52,-29 66,-34l17 -5c5,-9 -4,-3 11,-12 8,-5 10,-5 19,-7l1 1c9,-10 14,-14 27,-16 0,0 1,-3 1,-2l47 -29c4,-9 -5,1 6,-10 5,-5 4,-3 11,-7 11,-7 14,-9 26,-13l11 -9c5,-11 -5,-1 9,-13 5,-5 8,-5 17,-8l5 -4 35 -32c4,-6 -1,-1 6,-6 9,-9 5,-5 14,-9l5 -7c3,-16 5,-12 13,-14 2,-10 -6,-1 4,-10 11,-10 2,-2 11,-5 4,-13 4,-8 12,-18 2,-2 7,-8 7,-9 7,-7 1,-2 10,-8l4 0c3,-7 3,-11 7,-16 8,-10 5,-5 13,-9l-2 0c4,-14 -5,0 7,-15 1,-1 3,-3 4,-4 6,-5 1,-1 9,-6 9,-20 32,-40 39,-65 7,-19 20,-36 28,-54l21 -52c5,-8 -1,-1 8,-7l3 -28 5 -26c13,7 2,-2 6,7 -1,-9 27,-112 16,-203 -3,-17 -8,-51 -7,-66 -10,-12 -9,-25 -15,-47 -3,-11 -11,-33 -11,-44l1 -4c-9,-7 -1,7 -9,-9 -1,-3 -3,-11 -3,-15l-5 -14c-7,-6 -9,-5 -9,-17l3 -4c-8,-6 -2,0 -8,-7 -2,-2 -4,-5 -4,-7 -4,-7 -5,-10 -7,-19l-11 -21c-14,-9 -12,-13 -20,-25 -7,-12 -10,-12 -14,-27l2 0c-11,-7 -25,-27 -31,-39l-26 -33c-16,-9 -25,-25 -36,-36 -9,-9 -28,-23 -33,-35 -8,-3 -3,0 -10,-5 0,0 -7,-7 -8,-8l-11 -15c-15,-2 -26,-13 -33,-25 -7,-2 -7,-2 -15,-7 -15,-12 -3,-2 -10,-13l-3 0 -13 -10c-7,-5 -7,-7 -14,-8 -14,-5 -30,-14 -38,-28l-23 -13 -12 -2 -2 -8 -13 -7c-6,-2 -5,-1 -10,-4 -8,-5 -2,-2 -7,-8l-6 1c-12,-4 -13,-1 -17,-12 -11,-3 -47,-22 -58,-28 -12,-7 -47,-23 -59,-24 -14,-2 -17,-4 -29,-9 -4,-1 -11,-3 -14,-5 -7,-3 -5,-2 -10,-8l-45 -14c-10,-1 -20,-4 -27,-7 -4,-1 -8,-2 -11,-3 -14,-8 0,1 -8,-7 -17,0 -60,-15 -83,-20 -80,-19 -203,-38 -286,-40 -51,-1 -171,-6 -216,2l-190 26z"/>
  <path class="fil1" d="M2461 1075c-4,12 -1,15 -11,19l-3 28c-3,17 -17,48 -25,63 -14,29 -15,42 -32,50 -7,25 -30,45 -39,65 -5,13 -8,18 -20,25l2 0c-5,13 -8,17 -20,25l-4 0c-4,18 -17,30 -29,35 -4,10 -5,12 -15,15l-5 8c-3,11 1,1 -8,6l-5 7c-6,12 -10,14 -21,23 -15,9 -16,18 -34,24l-5 4c-5,7 -1,2 -6,8 0,1 -5,5 -6,5 -5,4 -7,5 -14,8l-11 9c-8,13 -32,28 -43,30 -3,8 2,4 -11,12 -4,3 -6,4 -11,7 -13,9 -13,11 -26,12 -6,9 -16,15 -27,16l-1 -1c-8,12 -16,14 -30,19l-17 5c-6,9 1,2 -7,9l-59 25c-14,8 -58,27 -70,29 -12,11 -12,8 -28,14l-85 28c-32,9 -90,27 -125,30 -23,-1 -94,17 -126,20 -109,12 -174,14 -285,11l-132 -9 -80 -10c-18,-6 -5,-1 -12,-7 -17,-4 -42,-7 -61,-12 -17,-4 -36,-11 -56,-12 -8,-1 -15,-2 -23,-4 -4,-1 -5,0 -9,-2 -11,-5 -6,-4 -10,-8l-24 -4c-13,-1 -21,-4 -33,-8 -4,-2 -11,-3 -15,-5 -16,-6 -7,2 -11,-8 -15,1 -37,-6 -45,-18l-3 1c-14,0 -55,-21 -70,-27 -14,-6 -19,-9 -32,-15 -13,-7 -27,-10 -31,-22 -21,-5 -84,-47 -104,-60 -7,-2 -8,-1 -14,-5 -6,-5 -1,-1 -6,-9l-45 -32c-13,-4 -19,-11 -28,-19 -2,-2 -2,-2 -4,-5 -4,-4 -2,-2 -5,-7l-15 -7c-11,-9 -28,-25 -33,-35 -11,-5 -16,-9 -19,-20 -6,-2 -5,6 -7,-2l0 -5c-8,-1 -8,1 -9,-10l-11 -14c-10,-5 -3,0 -11,-7 -2,-2 -5,-4 -8,-7 -10,-10 -7,-4 -11,-18l-36 -53c-11,-7 0,4 -11,-8 0,0 -4,-6 -4,-7 -4,-6 -6,-10 -8,-18 -5,-12 -26,-39 -25,-51 -11,-6 -3,5 -13,-12 -3,-6 -2,-8 -3,-15 -1,0 -2,-1 -2,-1l-4 -5c0,-1 -1,-2 -1,-3 -2,-4 -2,-7 -3,-11l-6 -22c-8,-6 -3,5 -9,-13 -1,0 -3,-8 -4,-10 -5,-15 -7,-16 -5,-30 -5,-5 -2,10 -8,-19 -25,-106 -22,-212 9,-316 4,-15 -1,-11 11,-15l7 -31 28 -61c1,-2 2,-2 3,-3l42 -74c3,-14 3,-16 16,-24l-1 2c5,-15 4,-11 14,-24 2,-3 4,-7 8,-11 6,-6 2,-3 9,-5l2 -6c0,-6 -1,-5 5,-3 7,-20 43,-53 60,-70 12,-11 54,-53 68,-57l17 -13 21 -15c4,-7 -1,-2 8,-10 1,-1 5,-4 6,-5 12,-7 7,-6 19,-8 4,-6 -3,0 7,-8 1,-1 7,-5 9,-6 10,-8 9,-8 23,-12l-2 1c12,-16 32,-24 49,-30 19,-9 36,-25 55,-29 10,-13 42,-24 59,-32 13,-6 49,-23 63,-23 6,-9 6,-7 18,-8l65 -21c5,-6 -2,-4 17,-10 20,-6 35,-12 56,-14l4 2c8,-13 81,-25 98,-25l190 -26c45,-8 165,-3 216,-2 83,2 206,21 286,40 23,5 66,20 83,20 12,1 17,3 27,6 6,2 6,1 12,4 7,3 3,2 7,7l45 14c17,2 42,8 53,22 12,1 47,17 59,24 11,6 47,25 58,28 10,2 0,-3 11,3 9,6 0,0 6,9l6 -1c13,3 12,-1 17,12l13 7 9 5c7,0 5,-2 5,5l23 13c12,5 13,6 22,12 4,3 6,3 9,6 7,7 1,-2 7,10 7,1 7,3 14,8l8 2c7,0 5,-1 5,8l3 0c12,4 20,7 25,20 13,4 27,17 33,25 12,4 9,5 17,13 7,8 7,5 12,15 13,5 27,20 37,31 6,7 11,10 17,17 7,9 10,12 15,23l26 33c15,7 9,4 19,18 8,10 8,10 12,21l-2 0c14,9 30,36 34,52l11 21 7 6c2,3 3,5 4,8 5,9 5,9 8,19l-3 4c9,5 2,0 7,8 4,5 2,-5 2,9l5 14c8,6 2,-4 9,10 4,7 3,10 3,14l-1 4c10,6 6,2 11,22 2,6 5,13 7,21 4,15 7,30 8,48 -1,15 4,49 7,66 11,91 -17,194 -16,203zm-1621 -1020l-51 11c-10,13 -70,29 -84,33 -21,0 -59,24 -80,27 -6,8 2,2 -10,9 -1,1 -9,4 -11,4 -12,5 -11,6 -25,9l-4 0c-10,15 -47,31 -57,31 -4,7 -2,7 -14,8 -2,8 -1,6 -11,7l-10 7c-9,9 -25,18 -38,23 -19,0 -87,62 -104,66 -8,17 -22,25 -36,33l-17 14c-7,13 -18,25 -35,31l1 4c-5,9 1,1 -7,11 -1,0 -5,4 -6,5 -6,5 -8,8 -16,13l-6 4c-2,10 2,3 -6,12 -8,8 -6,5 -14,8l-3 1c-5,14 2,3 -6,14 -10,13 0,1 -11,7l-5 8c-3,7 0,7 -7,15 -8,9 -3,3 -11,7l-3 6c-5,19 -9,17 -18,31 -3,5 -5,10 -8,15 -7,11 1,12 -12,10l-4 9c-7,18 -13,25 -21,40 -5,9 -10,25 -22,33l1 3c-2,12 -4,16 -7,26 -2,4 -2,7 -4,11 -6,9 -3,2 -7,5l-19 61c-5,19 -2,10 -9,17l-1 17c1,17 -8,55 -11,76 -18,134 12,186 15,248 -2,20 24,85 33,104 9,18 14,33 24,49 7,14 17,31 22,43 14,7 18,18 22,31l15 26 1 0c12,7 16,17 24,26 11,12 15,8 18,27 5,3 2,0 6,5 1,0 6,5 6,6 5,7 4,5 8,14l0 1c13,6 16,12 24,21 5,5 8,6 12,11 12,12 4,1 6,12 9,3 7,2 15,9 11,10 6,3 11,15l5 3c14,7 14,7 21,20l2 0c7,3 7,2 14,8 9,8 5,6 9,13l7 5c18,8 51,36 69,48 4,3 9,6 11,8 10,9 3,2 9,11l5 -1c10,2 11,-1 15,10l9 5c6,2 13,4 18,7 17,11 4,1 11,12l2 1 11 4c18,5 5,0 10,9l-1 -2c11,3 14,4 24,10 11,6 10,3 17,13l5 0c15,3 43,18 59,25 2,1 6,2 7,3 9,6 4,-1 9,10l50 19c24,2 65,21 89,28 104,33 153,42 256,58 2,1 12,3 12,3 9,3 5,1 11,7 9,-2 71,5 85,7 30,3 58,4 90,5 41,0 154,-6 183,-1 4,-2 2,-3 10,-6l96 -10c31,-3 79,-17 107,-14 2,-2 -1,-3 10,-6l99 -19c-2,-5 20,-9 27,-11 12,-4 22,-7 35,-9l25 -6c6,-15 51,-25 63,-25 4,-4 -4,0 8,-6l84 -32c5,-8 -8,0 7,-8 9,-4 8,-2 16,-3 2,-2 -1,-3 5,-6 14,-7 5,-2 13,-2 2,-2 1,-2 6,-6 0,0 6,-4 6,-4 7,-4 12,-6 21,-9l50 -27c6,-8 2,-4 9,-10 1,-1 6,-3 7,-4 10,-6 10,-6 22,-9l13 -7c5,-10 5,-10 14,-12 8,-12 9,-14 26,-19 8,-5 11,-9 19,-11 7,-14 5,-8 18,-21 9,-8 8,-10 22,-12 3,-12 3,-8 14,-17 3,-3 6,-6 8,-7 9,-7 -1,-2 10,-4 3,-7 -5,-3 8,-10 4,-12 5,-12 17,-18 2,-1 6,-7 8,-8 8,-6 1,-3 11,-5 3,-11 -2,0 3,-8 0,-1 4,-5 5,-6 9,-10 4,-6 16,-11l-2 -2 26 -30c2,-13 3,-11 13,-18 9,-11 2,-3 9,-7 2,-15 3,-9 12,-14l12 -20c4,-9 45,-77 55,-83l6 -22 19 -34 16 -43c1,-7 1,-10 4,-18l8 -10c-1,-16 -1,-10 3,-24 4,-15 -1,-10 9,-20l8 -55c0,-35 7,-75 7,-116 0,-31 -11,-93 -8,-113l-5 -34 -17 -53 -12 -39c-7,-7 1,6 -8,-9l-11 -25c-5,-12 -12,-23 -14,-35 -10,-6 -6,-5 -14,-20 -4,-9 -7,-11 -10,-23 0,-1 -1,-5 -1,-8l-20 -25c-12,-21 -11,-10 -14,-28 -11,-2 -12,-5 -14,-16l-17 -18c-8,-10 -9,-8 -14,-20 -10,-5 -8,-5 -15,-15 -3,-4 -5,-5 -7,-8 -8,-9 -3,-2 -6,-9l-7 -5c-6,-3 -3,4 -6,-9l-2 -3c-14,-8 -10,-4 -15,-15 -5,-1 -10,5 -11,-12 -16,-4 -22,-19 -36,-26l-15 -13c-1,-1 -2,-2 -2,-2 -4,-3 -6,-4 -9,-6l-7 -8c-10,-16 -31,-19 -42,-38l2 1 -11 -2c-14,-8 -20,-9 -23,-20 -7,-3 -9,-3 -15,-8l-9 -10c0,-2 -1,-2 -1,-3l-9 -1c-9,-1 -11,2 -12,-8 -11,-9 -79,-50 -92,-51 -5,-1 -15,1 -13,-9 -6,-1 -7,0 -12,-3 -12,-6 -4,-3 -9,-9 -24,-5 -66,-35 -91,-36 -15,-3 -18,-1 -29,-13 -24,-9 -52,-18 -78,-27 -26,-10 -59,-16 -83,-24 -17,-1 -52,-7 -65,-18 -11,2 -88,-12 -108,-15 -127,-22 -338,-16 -346,-18 -7,8 -2,6 -24,8l-151 16c-50,7 -118,29 -162,31z"/>
  <path class="fil2" d="M544 654l-1 2c6,-12 3,-8 14,-17l2 -1c4,-17 8,-30 9,-48 0,-13 0,-38 11,-35 8,-9 -5,-3 10,-8 18,-7 54,0 68,6 4,32 -27,114 -34,122 0,13 -4,20 -9,33 -4,13 -3,26 -15,29l-10 38 -4 18 -9 4c-1,1 -2,1 -2,3l-5 5c-1,1 -2,3 -3,4 10,9 13,25 -1,36l-8 35c-1,13 -1,10 -5,21 0,1 -2,7 -3,8 -6,10 4,3 -7,8l-9 35c0,16 3,13 -9,20l-13 48c-1,7 1,6 -1,14 -6,14 -1,4 -9,10l-7 16c-6,15 -2,13 -14,16l-1 13c17,0 39,-4 51,-4 18,1 26,6 48,2 1,-55 -3,-34 15,-92l7 -20c4,-8 1,-3 6,-8l8 -24c1,-16 24,-105 47,-127l13 -13c-14,-10 -13,-17 -1,-50 5,-16 4,-9 9,-14l-1 -7c1,-14 17,-66 24,-73 -1,-19 14,-52 21,-75 7,-27 6,-16 11,-20 4,-15 8,-18 13,-29l8 -16c0,-2 1,-2 2,-4l-41 3c-17,0 -33,-4 -56,-4l-182 0c1,16 8,18 12,32 3,13 -1,93 2,123 27,1 29,-4 49,-15z"/>
  <path class="fil3" d="M1735 1079l-2 14 49 -1c-3,-12 0,-4 -4,-12 -5,-6 -3,3 -6,-15 -1,-4 -2,-88 5,-102 17,3 18,28 19,48 0,17 12,54 17,72 7,26 18,39 28,56 6,4 4,0 13,9 7,7 4,3 7,12 12,2 14,5 22,16 19,14 51,30 81,34 15,2 45,2 61,0 15,-2 32,-11 44,-10 11,-15 14,-8 39,-25 15,-11 21,-21 35,-28l-1 1 2 -8c1,-8 0,0 6,-3 2,-19 25,-36 20,-87 -3,-31 -10,-59 -27,-80 -40,-49 -101,-54 -162,-44 -16,8 -15,22 -12,44 8,5 -1,-3 10,8 2,2 4,6 6,8 18,1 25,4 34,-9 8,-25 -5,-12 0,-36 37,-6 35,7 35,7l-1 4 3 -4c18,1 42,18 52,28 13,11 21,24 23,42 -1,23 9,32 1,59 -5,17 -8,37 -19,45 -4,21 -36,50 -54,56l-5 1 -12 10 -15 3c13,16 -71,1 -82,-3 -15,-6 -54,-25 -59,-42 -17,-9 -28,-29 -29,-48 -1,-29 4,-19 5,-20 -1,-16 1,-13 4,-27 1,-3 2,-10 3,-13 4,-11 4,-7 7,-11l4 -33c1,-21 -2,-26 15,-33 5,12 11,104 -1,117 -3,10 -3,1 -2,15l48 0 -4 -75c0,-50 4,-52 5,-68 -10,-6 -6,11 -9,-15 0,-2 0,-16 0,-19 1,-35 -3,-70 6,-99l-52 1 -12 50 -28 122 -4 18c-16,3 -18,-13 -17,-29l-24 -107c-9,-12 -7,-11 -12,-29 -2,-10 -5,-17 -7,-27l-48 0c10,33 10,93 5,130 -2,18 2,47 2,69l0 49c-2,16 0,8 -6,14z"/>
  <path class="fil4" d="M1049 1182l-43 34c-1,-1 -2,1 -3,1 -4,25 -16,45 7,68 20,20 36,13 67,16 1,-1 2,-2 3,-3 0,-1 1,-2 2,-3 1,-1 1,-2 2,-2 44,-48 -3,-78 -32,-55 -10,9 -7,18 -6,32 -39,-1 -26,-58 3,-55 0,-1 1,-2 1,-2 1,0 2,-1 2,-2l14 -5c38,-11 108,15 133,40l21 16c14,7 24,21 34,29 12,10 23,18 29,31 13,8 20,18 26,28 28,9 80,98 236,87 20,-2 21,-8 34,-7 3,-16 3,-2 26,-20l22 -19c0,0 2,-1 3,-2 3,-2 0,4 3,-5 1,-10 -2,-10 8,-14l8 -24 -5 -64 -3 -12c-10,-9 -11,-13 -14,-24 -5,-2 -3,1 -10,-6 -6,-6 -1,0 -6,-8 -18,-29 -93,-36 -116,-7 -8,15 -17,19 -27,36 -12,22 -8,32 -7,59l1 0c13,9 4,4 18,11 0,-16 -2,-45 13,-52l3 -1c4,-9 -5,-7 3,-9l10 -4 11 2c9,-11 -12,-8 14,-10 33,1 56,15 68,34 2,2 4,3 7,8l2 28c-15,79 -112,84 -171,64l-13 -8c-13,0 -22,-6 -32,-12 -6,-2 -10,-3 -15,-7 -10,-7 -7,-7 -10,-12 -16,-2 -15,-13 -31,-17l-47 -45 -14 -16c-8,-4 -4,-1 -10,-4 0,-1 -5,-5 -6,-6 -5,-5 -7,-8 -11,-13 -7,-5 -9,-7 -16,-14 -11,-4 -14,-6 -23,-16l-24 -14 -14 -9c-16,-3 -34,-12 -54,-16 -22,-4 -41,-3 -65,0l-6 0z"/>
  <path class="fil3" d="M960 366c-3,7 1,2 -6,9 -9,10 -2,3 -9,7 -5,29 -24,29 -15,82 4,25 26,43 36,61 19,6 30,19 60,9 27,-8 28,-13 46,-27 4,-9 1,-3 4,-10 1,-1 3,-4 3,-5 8,-13 8,-20 6,-36l-6 -9 -14 19 -4 0c-1,13 -3,13 -11,18 -20,33 -75,0 -85,-27 -6,-5 -4,8 -8,-12 -5,-20 20,-47 34,-56 61,-41 180,39 206,78 14,5 73,73 88,100 13,19 31,38 42,60 29,43 90,126 150,142 16,0 67,19 89,-28 7,-16 1,-20 4,-35l-5 -3c-3,-3 -2,-3 -5,-7l-11 -15 -6 1c-33,-3 -24,-5 -50,7l-1 4 -4 26c13,14 16,12 40,11l5 -5 2 -15c3,0 6,-10 15,4 11,17 -7,36 -24,41 -6,1 -12,2 -19,2 -19,-3 -14,-4 -19,-11 -9,0 -24,-6 -30,-12 -13,-4 -27,-11 -31,-23 -20,-11 -61,-70 -72,-92 0,-10 -16,-25 -19,-37 -10,-5 -3,0 -9,-6 -2,-2 -3,-4 -5,-7 -4,-6 -8,-10 -12,-18 -2,-11 -8,-12 -12,-23 -9,-5 -3,1 -11,-7 -2,-2 -4,-6 -6,-9 -8,-11 -8,-9 -13,-21l-4 -5 -66 -63c-11,-3 1,5 -10,-4 -6,-5 -5,-6 -7,-12l-9 -4c-8,-3 -8,-2 -14,-5 -8,-5 -4,0 -8,-10l2 1c-10,-2 -12,1 -16,-10 -6,-2 -10,-6 -19,-9 -19,-2 -19,-7 -38,-13 -12,-4 -30,-8 -41,-10 -36,-6 -56,16 -78,19z"/>
  <path class="fil3" d="M997 970l0 -4c0,-19 -2,-21 2,-41 3,-15 2,-19 10,-27 8,8 10,19 12,34l5 43 -2 14c-4,7 9,8 -15,9 -5,0 -13,-1 -16,-5 -5,-5 -8,-22 4,-23zm-39 -21l-6 6c0,28 -9,113 -22,127 -1,13 -9,10 45,10 -1,-39 -1,-80 34,-79 14,1 14,4 17,7 10,2 10,12 9,24 2,1 7,-1 9,21 1,10 -1,16 -1,27l42 0 3 -10c-11,-14 -23,-99 -22,-127 -8,-11 -6,-8 -10,-26 -2,-10 -4,-17 -3,-27 -5,-5 -4,4 -8,-13 -1,-3 -1,-10 -2,-13 -1,-9 -2,-17 -3,-26 -7,-8 -7,-7 -7,-17 0,-2 2,-10 3,-13l-54 0c7,34 -9,66 -14,100 -5,40 -2,24 -10,29z"/>
  <path class="fil3" d="M1566 968c29,-1 23,84 6,106 -36,9 -40,3 -40,-32 0,-21 -14,-92 28,-80 11,3 2,-1 6,6zm2 -26l-33 -1 1 -103 30 -2c21,9 21,28 21,54 0,12 -1,20 -3,31 -3,13 -4,18 -16,21zm-77 -115c18,3 3,123 3,131 1,12 5,28 4,69 0,29 0,37 -5,63 31,3 76,7 100,-11l22 -20c7,-25 2,-45 4,-72 -11,-8 -22,-23 -24,-36l11 -8c3,-22 11,-18 11,-53 0,-87 -61,-72 -123,-73l-3 10z"/>
  <path class="fil3" d="M1383 934l-1 13c1,16 1,11 5,25l-1 -2c10,11 8,5 6,22 -56,27 -31,-31 -30,-31 4,-17 -5,-42 12,-63 9,10 8,22 9,36zm-48 -46c1,18 -1,23 -5,38 -4,22 -4,16 -11,32 3,21 1,24 -3,44 -5,24 0,27 -11,38l2 13c4,12 3,7 0,19l-7 14c0,2 -1,3 -2,4l39 0c-13,-36 2,-31 3,-32 1,-5 1,-11 2,-16 1,-4 1,-6 3,-10 3,-6 3,-5 6,-8l-1 1c1,-3 -5,-14 28,-12 14,1 18,1 23,14 6,18 8,43 7,64l45 0c-9,-29 -20,-61 -22,-98l0 -38c-8,-9 -11,-12 -10,-28 -3,-3 -4,-4 -7,-10 -7,-18 -13,-84 -12,-99l-57 -1c2,21 1,39 -4,60 -5,21 -1,6 -6,11z"/>
  <path class="fil4" d="M592 1268c1,9 5,13 8,20 10,5 2,0 9,5 1,1 3,4 4,4 3,4 4,6 7,12 43,28 92,31 150,15 24,-7 42,-19 61,-30 20,-11 35,-27 51,-34 4,-8 0,-3 5,-9 1,0 3,-3 4,-4 4,-3 4,-2 8,-4 5,-13 -4,-6 8,-10 -5,-5 7,-5 -10,-6 -10,15 -42,34 -64,41l-20 5c-5,6 1,2 -7,7 -27,18 -83,22 -113,23 -29,-4 -45,-18 -57,-36 -11,-18 -28,-54 -5,-68 5,-23 54,-39 79,-29 26,10 31,34 32,64 28,-14 18,-42 9,-68l0 -3 -14 -13c-16,-20 -23,-13 -36,-28l-46 0c-10,12 -23,14 -33,24 -9,7 -20,18 -25,28 -19,37 -10,54 -5,94z"/>
  <path class="fil4" d="M1686 522c-5,11 -9,14 -21,20 -2,5 -1,5 -5,9 -10,10 -2,2 -12,8 -5,22 -14,16 -15,53 0,24 6,43 13,59 18,11 13,16 35,30 4,3 3,1 7,5 7,6 0,0 6,9 7,-1 19,3 30,3 15,0 20,-3 29,-4 15,-23 8,-3 36,-33l10 -9c0,0 1,-1 2,-2 1,-22 14,-37 -9,-55l-8 15 1 2c-3,28 -25,47 -57,42 -27,-5 -43,-20 -52,-42 -4,-4 -4,7 -7,-12 -1,-5 0,-10 1,-15 2,-6 6,-14 9,-19 29,-53 102,-51 117,-38 21,8 60,22 74,42 9,3 15,9 23,13 11,6 13,7 21,16 12,15 22,21 33,34 12,0 4,4 9,-3 -24,-40 -48,-52 -67,-73l-7 -12 -25 -14c-7,-6 -1,0 -6,-8 -25,-12 -43,-22 -74,-29 -46,-11 -55,-2 -91,8z"/>
  <path class="fil5" d="M1742 1286l-27 24c-21,37 -16,34 -16,82 7,6 1,-4 8,10 32,55 24,20 48,53l5 0c41,6 66,4 85,-22 18,-23 22,-48 13,-78l-24 -16 3 18c2,11 3,13 2,24 0,4 -2,9 -4,12 -7,11 -1,4 -10,8l-8 5 -3 6c-9,5 -16,8 -29,8 -9,0 -16,-3 -26,-5 -20,-14 -29,-27 -25,-61 4,-33 29,-49 29,-50 1,-2 2,-2 4,-2 17,-5 35,-32 121,-25 27,2 36,-2 41,9l12 -1c44,0 77,8 111,-10 -38,-1 -68,-7 -103,-12 -4,-1 -14,-2 -17,-3 -13,-3 -14,3 -15,-9 -6,2 -82,2 -102,5 -26,4 -55,18 -73,30z"/>
  <path class="fil5" d="M785 916c1,11 5,13 9,22l33 22 22 2c13,2 10,1 15,12 2,33 14,77 -11,99l-19 -1c-4,-5 -8,-9 -10,-16 -7,-6 -4,1 -7,-10 0,0 -1,-11 -1,-11 0,-10 5,-17 7,-24 -18,-1 -18,2 -38,-1 -7,7 -3,0 -4,13 3,9 3,22 8,34 4,11 13,18 19,29 17,3 27,13 56,6 46,-12 43,-61 43,-88 0,-55 5,-28 6,-53l-33 -1 -45 -9c-12,-12 -17,-21 -17,-43 -1,-23 -4,-43 12,-57l4 -4 24 1 8 16c4,4 3,-1 7,9 4,11 -1,23 -5,34l38 1 -7 -44 -11 -18c0,-1 -1,-2 -1,-3 -1,-1 -1,-2 -2,-2 -19,-4 -16,-14 -39,-14 -68,0 -60,72 -61,99z"/>
  <path class="fil5" d="M2059 758c-4,5 -2,3 -7,8 -3,3 -2,2 -6,5 -4,2 -8,5 -14,8 -8,6 -12,11 -16,27l1 46 -2 -1c1,1 3,1 3,2 0,2 2,2 2,3 4,6 2,-3 4,10l-2 1c7,4 3,-1 9,5 7,9 2,3 6,13 11,7 16,15 29,18 21,0 78,46 98,80 8,15 12,28 20,41l-5 -33 1 -12c-9,-5 -4,3 -12,-12 -4,-6 -5,-11 -6,-17 -11,-5 -6,-4 -14,-12 -5,-6 -2,-1 -6,-6 -5,-5 -4,-3 -7,-10l-10 -11c-12,-5 -3,0 -15,-8 -10,-6 0,-3 -13,-6l-19 -16 1 0c-20,-7 -38,-29 -36,-48 1,-18 3,-9 5,-11l0 -11c17,-12 25,-23 56,-23 28,-1 47,7 55,31 -1,24 -3,31 -6,48 -4,10 -9,11 -17,12 -1,1 -2,1 -3,2 0,1 -1,2 -2,2 -4,5 -1,1 -4,7l34 -4c3,-7 -2,-1 8,-11 4,-4 7,-7 12,-10 14,-48 12,-50 -6,-88 -7,-3 -4,0 -12,-6 -8,-7 -4,-5 -8,-11 -15,-5 -27,-11 -47,-11 -25,-1 -31,6 -49,9z"/>
  <path class="fil3" d="M1236 1018l-7 12c-16,22 -4,33 -14,43 -12,6 -32,7 -41,-2 -21,-20 1,-95 -5,-121 -8,-37 -3,-95 2,-132l-40 -2c1,26 2,48 2,74 0,13 0,25 0,38 0,16 -3,21 -3,30 0,43 9,90 -2,133l131 -1c-12,-58 -3,-34 -8,-70l-15 -2z"/>
  <path class="fil6" d="M860 615c0,14 -5,18 -3,35 1,13 5,20 7,32 19,12 11,14 27,25 47,33 102,-3 126,-10l3 -5c4,-5 6,-7 9,-10 10,-8 5,-4 13,-6 3,-10 -1,-3 6,-13 6,-9 4,0 8,-12l6 -14 -12 5 -4 2c-9,11 -23,25 -33,26 -17,21 -41,29 -69,26 -28,-2 -20,-4 -23,-7 57,-4 42,-3 84,-23 4,-4 8,-9 13,-14 8,-7 11,-9 21,-14 1,-8 -3,0 5,-10 3,-3 5,-5 9,-10 7,-9 11,-13 14,-21l-2 -7c-9,10 -2,3 -11,6 -2,9 2,4 -5,11 -5,5 -2,1 -10,4l-4 5c-5,12 7,4 -7,11 -7,14 0,4 -11,8l-8 8c-10,15 -29,25 -46,29 -19,3 -36,6 -49,-7 -9,0 -7,2 -7,-5l-3 0 -7 8c-1,0 -2,1 -2,2 -4,-5 -8,-8 -9,-14 -7,-22 3,-21 3,-21 7,-23 54,-54 73,-21l5 9 -1 2c1,1 8,7 8,7 4,3 1,2 10,4l-5 -35 -4 -9 -10 -6c-10,-4 -20,-7 -26,-14 -22,-1 -32,-2 -48,9 -7,5 -12,9 -16,15 -9,13 -1,9 -15,19z"/>
  <path class="fil1" d="M1655 969c3,6 0,-7 3,8l1 23c0,10 -1,21 -1,31 0,21 1,42 -4,58l39 2c-9,-26 -5,-41 -5,-68 0,-29 -5,-49 7,-60l2 -14c-6,-4 -4,7 -6,-13l4 -118 -44 -1c15,61 -1,139 4,152z"/>
  <path class="fil7" d="M2048 822c8,53 16,31 31,59l-1 0 11 2 8 5 11 6c9,-10 5,-15 28,-15 2,-3 0,-3 4,-6 12,-9 0,-2 13,-6 3,-17 5,-24 6,-48l-11 -11c-12,-12 -28,-15 -48,-14 -36,1 -32,13 -52,28z"/>
  <path class="fil8" d="M982 424l8 -5c3,-13 10,-16 24,-17l45 2c7,1 14,3 20,5 15,7 7,4 12,10l-1 -1 13 8 10 7 12 9 13 7c20,11 69,58 76,76 7,3 4,0 9,6 4,4 5,7 7,12l7 8c9,5 5,0 8,11l64 89c11,7 5,1 13,10 5,6 3,5 10,11 1,1 3,1 3,2 4,12 -2,-4 7,5l-4 -13 -15 -28c-13,-8 -18,-20 -26,-32l-10 -17c-6,-9 -8,-8 -12,-18 -7,-6 -17,-18 -24,-29l-48 -59c-9,-9 -19,-15 -27,-29 -20,-9 -24,-20 -48,-33 -11,-6 -15,-8 -26,-16 -18,-12 -6,-6 -26,-13 -35,-12 -75,-5 -92,20 0,1 -1,2 -1,2 -1,1 -1,2 -2,2l-6 16c5,-15 0,-2 7,-8z"/>
  <path class="fil9" d="M1230 1215c10,9 24,17 36,27 13,11 20,20 33,31 10,7 64,60 65,62 24,11 42,33 73,42 31,11 74,24 109,8 28,-13 65,-38 45,-81 1,23 2,31 -10,38 -4,14 -14,21 -30,25 -45,17 -65,2 -102,-5 -14,-3 -25,-7 -35,-18 -11,-2 -40,-27 -48,-35l-40 -36c-11,-8 -7,-3 -12,-14l-5 -4c-18,-7 -10,-6 -31,-22 -20,-14 -17,-9 -26,-23l-13 -4 -16 -3c1,1 2,3 3,4 0,1 2,5 2,4 0,-1 1,3 2,4z"/>
  <path class="fil10" d="M1264 1349c2,2 3,2 6,11l0 38c-1,9 -3,16 -7,24 -5,12 -6,10 -14,14 -4,5 -3,4 -9,6 -4,6 2,8 -14,10 -7,1 -13,0 -18,-1 -11,-1 -22,-5 -23,-15 -15,-5 -22,-22 -17,-40 3,-14 17,-25 23,-34l-25 5c-26,30 -23,26 -19,72 12,10 23,43 71,40 45,-3 54,-41 66,-50 1,-8 5,-14 5,-24 1,-41 0,-39 -13,-72l-17 -20c-16,-1 -1,-9 -7,3 8,6 20,20 12,33z"/>
  <path class="fil11" d="M1236 1018l15 2c5,36 -4,12 8,70l-131 1c11,-43 2,-90 2,-133 0,-9 3,-14 3,-30 0,-13 0,-25 0,-38 0,-26 -1,-48 -2,-74l40 2c-5,37 -10,95 -2,132 6,26 -16,101 5,121 9,9 29,8 41,2 10,-10 -2,-21 14,-43l7 -12zm0 0c-22,7 -19,26 -24,48l-21 4c-6,0 -5,0 -10,-1 -1,-1 -2,-1 -3,-2 -10,-23 -9,-74 -1,-101 6,-21 0,-8 -4,-23 -7,-32 5,-107 6,-128 -15,-6 -41,-5 -57,-2 1,17 5,18 5,35 0,13 0,25 0,38 0,51 -1,35 -5,69 0,7 5,22 5,38 0,12 0,25 0,38 0,18 -5,62 -4,65 15,5 126,5 143,-2 -1,-16 -7,-25 -7,-52 0,-8 2,-21 -3,-26 -4,-4 -3,-4 -10,-3 -14,2 -10,5 -10,5z"/>
  <path class="fil12" d="M1971 1015c-7,7 -9,9 -15,16 -5,25 -1,28 10,44l17 3c-5,-9 -16,-16 -14,-28 2,-24 1,-7 7,-14 6,-12 36,-6 45,-2 11,6 21,16 27,27 16,31 8,61 -12,78 -7,8 5,-1 -9,9 -4,3 -8,4 -12,6 -38,17 -74,-1 -89,2 23,5 18,9 21,12 59,3 66,13 109,-23 7,-13 13,-20 17,-39 3,-19 -2,-32 -4,-50 -4,-20 -24,-39 -45,-45 -23,-2 -27,-4 -50,3l-3 1z"/>
  <path class="fil13" d="M839 1223c-4,4 -2,3 -8,7 -1,1 -3,3 -4,2 0,-1 -2,1 -3,1 -13,5 -24,12 -36,18 -13,6 -29,11 -42,15 -42,14 -60,4 -89,-11 -20,-14 -13,-22 -21,-41 -3,4 -8,6 -7,22 5,46 70,64 121,49l48 -16c29,-20 74,-41 98,-63l6 -10 -13 2c-14,3 -33,20 -50,25z"/>
  <path class="fil8" d="M1777 1307c-9,10 -40,41 -41,55 -2,15 11,20 22,36l4 5c19,2 2,2 9,-6 -8,-3 -5,4 -11,-10 -7,-9 -7,-13 -4,-29l6 -19c5,-4 3,-1 9,-2 3,-7 -5,-3 7,-8l10 -6 13 -4c14,-31 110,9 197,-4 31,-5 41,-7 53,-17 1,-1 2,-2 3,-3l-37 6 -20 2 -134 -7c-35,4 -52,-10 -86,11z"/>
  <path class="fil14" d="M1055 1182c24,-3 43,-4 65,0 20,4 38,13 54,16 10,3 3,1 10,5 0,0 2,3 2,2 0,-1 1,2 2,2l24 14c1,0 11,5 12,6 1,0 4,2 5,3 6,5 2,1 6,7 7,7 9,9 16,14 12,5 5,0 14,10 4,4 7,7 13,13l14 16c8,4 5,2 13,8 4,4 6,7 11,11 12,12 16,14 23,26 16,4 15,15 31,17l15 6c0,-2 -1,-6 -1,-5 -1,0 -2,-4 -2,-4l-5 -5c-1,-1 -5,-2 -6,-3 0,0 -2,-1 -2,-1 -1,-1 -2,-2 -2,-3 -1,0 -2,-2 -3,-2 -1,-2 -55,-55 -65,-62 -13,-11 -20,-20 -33,-31 -12,-10 -26,-18 -36,-27l-48 -25 -40 -16c-4,5 6,3 -11,3 -17,0 -68,-16 -76,5z"/>
  <path class="fil15" d="M1398 502c-14,7 -10,8 -19,18 -5,13 1,-1 -4,10 -8,18 4,-11 -3,5 -3,9 -1,3 -2,10 -5,24 -8,45 3,63 -1,-18 -6,-32 6,-45 5,-20 23,-45 45,-46 13,-1 28,6 35,14 10,11 9,21 10,37l-12 21c-1,1 -1,2 -2,4l18 -6c5,-2 3,0 9,-7 1,-1 2,-4 3,-5 5,-6 1,-2 7,-7 0,-23 4,-30 -6,-49l-18 -19 1 1c-43,-10 -25,-13 -71,1z"/>
  <path class="fil8" d="M1696 603l-1 -1c7,-16 13,-21 30,-27 14,-1 28,-3 45,-1 17,2 23,9 37,12 7,3 13,7 18,9 10,6 6,1 12,11 9,2 14,4 23,11 3,3 8,7 10,9 9,8 3,1 10,12 7,3 7,4 14,10 1,1 4,3 7,5 6,3 4,2 9,3 28,15 11,11 17,-1 -10,-10 -22,-14 -28,-28 -13,-6 -12,-5 -20,-16 -7,-3 -12,-8 -18,-13 -29,-15 -50,-40 -87,-42 -45,-6 -88,5 -88,52 10,-5 3,0 10,-5z"/>
  <path class="fil16" d="M1568 942c11,-22 12,-25 12,-52 0,-25 0,-31 -12,-51 0,-1 -1,-2 -2,-3l-30 2 -1 103 33 1z"/>
  <path class="fil17" d="M1981 926c61,-10 122,-5 162,44 17,21 24,49 27,80 5,51 -18,68 -20,87 12,-8 22,-31 23,-48l4 -62 3 30c11,-8 13,15 13,-22 0,-6 -3,-15 -3,-21 -1,-4 -1,-9 -3,-13 -7,-19 2,-1 -8,-10l5 33c-8,-13 -12,-26 -20,-41 -20,-34 -77,-80 -98,-80l10 15c-27,-1 -75,-18 -95,8z"/>
  <path class="fil18" d="M544 654c-20,11 -22,16 -49,15 -3,-30 1,-110 -2,-123 -4,-14 -11,-16 -12,-32l182 0c23,0 39,4 56,4 9,-5 7,-4 20,-5 8,0 16,0 24,0l-1 12c11,-7 10,-1 9,-17 -25,-3 -49,4 -68,0 -24,-4 -208,-3 -229,-1 -6,31 13,1 13,75l0 80c2,11 3,20 35,11 15,-4 18,-8 22,-19z"/>
  <path class="fil19" d="M1566 968c-33,2 -29,0 -28,36 0,21 -3,43 2,63 14,5 14,4 28,0 12,-8 19,-62 2,-92l-4 -7z"/>
  <path class="fil20" d="M1566 1286c14,9 22,22 19,43l-4 13c12,-7 11,-15 10,-38 20,43 -17,68 -45,81 -35,16 -78,3 -109,-8l3 6 -13 0 13 8c59,20 156,15 171,-64l-2 -28c-3,-5 -5,-6 -7,-8l1 21c-8,-8 -17,-36 -46,-37 14,8 4,2 9,11z"/>
  <path class="fil21" d="M914 1182c14,-7 8,-6 25,-8 -10,16 -29,27 -43,32 -24,22 -69,43 -98,63 -1,1 -2,2 -3,4 0,2 -2,2 -3,3 0,1 -1,3 -2,3l23 -6 20 -5 64 -41c6,-7 5,-8 17,-11l20 -18 1 8c10,-7 4,1 4,-10 0,-1 -3,-9 -3,-10 5,-3 8,-5 14,-8 6,-3 3,0 8,-4 7,-7 0,1 5,-10 -5,-4 7,-10 -18,-5 -2,0 -25,8 -31,23z"/>
  <path class="fil22" d="M1699 1090l-50 4c8,-40 9,-84 6,-125 -5,-13 11,-91 -4,-152l44 1 -4 118c2,20 0,9 6,13 2,-23 0,-47 0,-70l4 -65c-15,-3 -42,-4 -56,1 0,14 4,18 5,67 0,25 2,55 -6,73 6,28 6,43 5,72 0,19 -3,55 -2,69 12,2 16,1 28,1 27,0 20,0 24,-7z"/>
  <path class="fil23" d="M1323 638l15 28c10,6 6,4 14,14 5,7 8,10 12,15 7,9 15,20 25,29 1,0 3,0 3,2 3,9 16,0 28,31 -9,-3 -14,-6 -21,-8 13,17 40,28 59,32 0,-1 -2,-9 -3,-11 26,6 72,25 90,-2 -26,13 -44,17 -68,1 -60,-16 -121,-99 -150,-142 -12,5 -6,-1 -4,11z"/>
  <path class="fil24" d="M965 457l-3 -24c10,4 6,1 11,10 2,6 2,8 5,14l4 -33c-7,6 -2,-7 -7,8l6 -16c1,0 1,-1 2,-2 0,0 1,-1 1,-2 17,-25 57,-32 92,-20 20,7 8,1 26,13 11,8 15,10 26,16 24,13 28,24 48,33 -12,-13 -4,-2 0,-4 4,10 10,13 21,17 -26,-39 -145,-119 -206,-78 -14,9 -39,36 -34,56 4,20 2,7 8,12z"/>
  <path class="fil25" d="M2083 1274c-10,7 -15,7 -30,12l-36 15 37 -6c-1,1 -2,2 -3,3 -12,10 -22,12 -53,17 -87,13 -183,-27 -197,4 37,-4 45,-5 83,-1 65,7 170,13 222,-44l4 -4c1,-1 4,-4 4,-5l-10 -2c-9,0 -12,5 -21,11z"/>
  <path class="fil25" d="M1615 1059l-22 20c-24,18 -69,14 -100,11 5,-26 5,-34 5,-63 1,-41 -3,-57 -4,-69 0,-8 15,-128 -3,-131 -1,21 0,47 0,71 0,16 -4,62 -3,67 5,24 3,45 3,70 0,57 -3,36 -5,51 -2,15 1,5 3,9 6,5 66,4 74,3 30,-3 47,-15 52,-39z"/>
  <path class="fil26" d="M1039 1822c-6,-6 -2,-4 -11,-7 0,0 -10,-2 -12,-3 -103,-16 -152,-25 -256,-58 -24,-7 -65,-26 -89,-28 8,8 0,5 22,13l61 21c76,22 210,62 285,62z"/>
  <path class="fil22" d="M840 55c44,-2 112,-24 162,-31l151 -16c22,-2 17,0 24,-8 -60,0 -120,10 -176,18 -22,3 -64,7 -82,13 -28,9 -56,9 -76,22 -1,0 -2,1 -3,2z"/>
  <path class="fil27" d="M88 1077c2,-21 -11,-59 -14,-84 -3,-34 -5,-61 -4,-96 1,-65 16,-111 30,-170 -12,4 -7,0 -11,15 -31,104 -34,210 -9,316 6,29 3,14 8,19z"/>
  <path class="fil28" d="M1941 1285l7 3c23,6 25,1 35,4 23,7 9,-1 14,11l20 -2 36 -15c15,-5 20,-5 30,-12 -32,-3 10,-8 -39,-6 -38,2 -87,-15 -127,-17 1,12 2,6 15,9 3,1 13,2 17,3 35,5 65,11 103,12 -34,18 -67,10 -111,10z"/>
  <path class="fil29" d="M1362 605l9 15c16,56 43,54 55,75 6,8 9,11 22,15l-8 -17c0,-1 -1,-2 -2,-3l-1 -1c-9,-5 -10,-7 -16,-13 -7,-7 -9,-9 -15,-18 -5,-12 -13,-19 -21,-37 -8,-21 -8,-34 -6,-58 -12,13 -7,27 -6,45 -11,-18 -8,-39 -3,-63l-7 2c-5,22 -9,36 -1,58z"/>
  <path class="fil25" d="M1735 1079c6,-6 4,2 6,-14l0 -49c0,-22 -4,-51 -2,-69 5,-37 5,-97 -5,-130l48 0c2,10 5,17 7,27 5,18 3,17 12,29l-15 -61 -57 0c0,19 5,20 5,36 1,12 1,26 1,38 0,25 4,48 -8,69 7,27 8,26 7,57 0,22 0,45 1,67z"/>
  <path class="fil30" d="M26 1085c-3,-62 -33,-114 -15,-248 3,-21 12,-59 11,-76 -4,5 -2,-1 -6,7l-11 69c-9,71 -6,162 11,232 2,6 1,3 3,8 4,7 2,3 7,8z"/>
  <path class="fil31" d="M1861 598c6,5 11,10 18,13 9,6 11,8 20,16 6,14 18,18 28,28l28 26c6,5 2,2 11,5l11 -3c1,0 2,-1 4,-2 -2,-14 -1,-12 -11,-20l3 14c-17,-5 -3,3 -15,-8l-11 -14c-11,-13 -21,-19 -33,-34 -5,-2 -7,-1 -13,-5 -9,-8 -2,-2 -8,-11 -8,-4 -14,-10 -23,-13l-13 -4 4 12z"/>
  <path class="fil32" d="M631 1199c-23,14 -6,50 5,68 12,18 28,32 57,36 5,-9 -5,-5 8,-8 4,0 15,1 19,0 15,0 19,-2 30,-10 -51,15 -116,-3 -121,-49 -1,-16 4,-18 7,-22 8,19 1,27 21,41 -16,-35 -17,-17 -1,-57 5,-13 -3,-9 13,-13 -23,3 -38,18 -44,39l6 -25z"/>
  <path class="fil33" d="M1157 1251l39 23c8,4 14,6 20,10 3,3 5,6 7,8 3,4 2,4 5,7 7,2 3,-1 10,5 2,3 6,9 8,13 5,6 13,25 18,32 8,-13 -4,-27 -12,-33 6,-12 -9,-4 7,-3 -12,-19 1,-12 -19,-27 -9,-6 -14,-9 -25,-18l-20 -13 -37 -19c-15,0 -6,-3 -15,7 24,4 7,1 14,8z"/>
  <path class="fil34" d="M1863 1296l134 7c-5,-12 9,-4 -14,-11 -10,-3 -12,2 -35,-4l-7 -3 -12 1c-29,-1 -70,-13 -95,0 10,3 26,2 29,10z"/>
  <path class="fil28" d="M1350 1025c65,-25 44,36 53,74l57 -1c1,-7 -15,-50 -19,-81 -2,-18 0,-16 -10,-24 2,37 13,69 22,98l-45 0c1,-21 -1,-46 -7,-64 -5,-13 -9,-13 -23,-14 -33,-2 -27,9 -28,12z"/>
  <path class="fil35" d="M1086 559c5,-2 12,-5 17,-7 -6,14 -10,20 -22,29 -3,12 -3,9 -14,16 -3,8 -7,12 -14,21 -4,5 -6,7 -9,10 -8,10 -4,2 -5,10l-5 9 12 -3 4 -2 51 -60 -4 15c9,-4 14,-6 12,-29 -2,-24 5,-8 8,-33 -14,4 -23,12 -31,24z"/>
  <path class="fil36" d="M2533 1025c22,-23 17,-220 -1,-229 -3,20 8,82 8,113 0,41 -7,81 -7,116z"/>
  <path class="fil28" d="M1825 1401c9,-4 3,3 10,-8 2,-3 4,-8 4,-12 1,-11 0,-13 -2,-24 -10,-14 -7,-12 -9,-24 18,4 21,8 30,22 9,30 5,55 -13,78 -19,26 -44,28 -85,22 3,3 -8,12 36,10 13,-1 24,-5 33,-10 17,-10 26,-20 33,-39 15,-39 5,-91 -41,-87 -1,28 22,15 4,72z"/>
  <path class="fil37" d="M1676 632l1 -29c4,8 2,13 7,22 7,13 6,4 13,17 7,-4 2,3 3,-9l-4 -30c-7,5 0,0 -10,5 0,-47 43,-58 88,-52 -14,-6 -25,-3 -43,-5 16,-10 44,-6 65,-3 -15,-13 -88,-15 -117,38 -3,5 -7,13 -9,19 -1,5 -2,10 -1,15 3,19 3,8 7,12z"/>
  <path class="fil38" d="M1610 1737c35,-3 93,-21 125,-30l85 -28c16,-6 16,-3 28,-14 -10,1 -150,47 -209,60 -5,1 -12,2 -17,3 -14,4 -8,1 -12,9z"/>
  <path class="fil22" d="M1566 968l4 7c17,30 10,84 -2,92 -14,4 -14,5 -28,0 -5,-20 -2,-42 -2,-63 -1,-36 -5,-34 28,-36zm0 0c-4,-7 5,-3 -6,-6 -42,-12 -28,59 -28,80 0,35 4,41 40,32 17,-22 23,-107 -6,-106z"/>
  <path class="fil39" d="M614 943c9,-8 7,-5 11,-19 2,-7 4,-13 6,-20 4,-14 9,-27 13,-41 19,-62 30,-39 40,-60l-10 -11 8 -53c-5,5 -4,-2 -9,14 -12,33 -13,40 1,50l-13 13c-23,22 -46,111 -47,127z"/>
  <path class="fil27" d="M1176 454c8,14 18,20 27,29l48 59c7,11 17,23 24,29l-2 -9c1,1 4,-1 4,1 2,6 4,2 8,4 -15,-27 -74,-95 -88,-100 -11,-4 -17,-7 -21,-17 -4,2 -12,-9 0,4z"/>
  <path class="fil40" d="M1491 827l3 -10c62,1 123,-14 123,73 0,35 -8,31 -11,53 27,-14 22,-88 1,-111 -21,-25 -86,-27 -122,-18 1,17 -2,7 6,13z"/>
  <path class="fil41" d="M1049 1215c14,2 28,-5 47,-3 18,1 30,6 45,8l-2 16 10 -5 9 5 37 19 10 3 -6 -12c-25,-25 -95,-51 -133,-40l-14 5c0,1 -1,2 -2,2 0,0 -1,1 -1,2z"/>
  <path class="fil42" d="M480 1076c-13,6 -8,1 -9,16 19,9 40,0 58,1 7,0 16,2 27,2 21,1 32,4 29,-18 -2,-13 -3,2 -3,-16 -1,-17 22,-64 24,-94 -5,5 -2,0 -6,8l-7 20c-18,58 -14,37 -15,92 -22,4 -30,-1 -48,-2 -12,0 -34,4 -51,4l1 -13z"/>
  <path class="fil26" d="M1774 556c37,2 58,27 87,42l-4 -12 13 4c-14,-20 -53,-34 -74,-42 -21,-3 -49,-7 -65,3 18,2 29,-1 43,5z"/>
  <path class="fil43" d="M1676 632c9,22 25,37 52,42 32,5 54,-14 57,-42 -16,15 -7,18 -20,28 -12,9 -25,10 -39,6 -10,-13 -7,-20 -26,-33 -1,12 4,5 -3,9 -7,-13 -6,-4 -13,-17 -5,-9 -3,-14 -7,-22l-1 29z"/>
  <path class="fil38" d="M982 424l-4 33c-3,-6 -3,-8 -5,-14 -5,-9 -1,-6 -11,-10l3 24c10,27 65,60 85,27 -30,4 -26,20 -49,-12 -16,-22 -18,-24 -11,-53l-8 5z"/>
  <path class="fil30" d="M1767 1302c0,10 -2,8 10,5 34,-21 51,-7 86,-11 -3,-8 -19,-7 -29,-10 25,-13 66,-1 95,0 -5,-11 -14,-7 -41,-9 -86,-7 -104,20 -121,25z"/>
  <path class="fil39" d="M1397 1833c36,2 124,-12 167,-19l39 -6c5,-2 6,-4 7,-5 -28,-3 -76,11 -107,14l-96 10c-8,3 -6,4 -10,6z"/>
  <path class="fil36" d="M1335 888c5,-5 1,10 6,-11 5,-21 6,-39 4,-60l57 1c-1,15 5,81 12,99 3,6 4,7 7,10 -1,-38 -12,-45 -13,-114l-68 1c-2,18 2,21 -2,41 -3,13 -6,20 -3,33z"/>
  <path class="fil44" d="M1077 1301c57,-21 27,-101 -23,-72 -13,7 -12,20 -20,32 -16,-21 -2,-31 9,-40l4 -4c0,-1 1,-2 2,-2 -29,-3 -42,54 -3,55 -1,-14 -4,-23 6,-32 29,-23 76,7 32,55 -1,0 -1,1 -2,2 -1,1 -2,2 -2,3 -1,1 -2,2 -3,3z"/>
  <path class="fil11" d="M1891 1138c11,12 39,29 56,30 -3,-3 2,-7 -21,-12 15,-3 51,15 89,-2 4,-2 8,-3 12,-6 14,-10 2,-1 9,-9 -25,9 -36,21 -72,16 -21,-3 -42,-9 -59,-22 -8,-2 -19,-7 -21,-7l7 12z"/>
  <path class="fil45" d="M1655 969c3,41 2,85 -6,125l50 -4c-8,-36 -5,-86 -4,-127 -12,11 -7,31 -7,60 0,27 -4,42 5,68l-39 -2c5,-16 4,-37 4,-58 0,-10 1,-21 1,-31l-1 -23c-3,-15 0,-2 -3,-8z"/>
  <path class="fil46" d="M1566 1286c-5,-9 5,-3 -9,-11 29,1 38,29 46,37l-1 -21c-12,-19 -35,-33 -68,-34 -26,2 -5,-1 -14,10l14 -2c14,11 13,13 32,21z"/>
  <path class="fil26" d="M750 1285c-11,8 -15,10 -30,10 -4,1 -15,0 -19,0 -13,3 -3,-1 -8,8 30,-1 86,-5 113,-23 8,-5 2,-1 7,-7l-23 6c1,0 2,-2 2,-3 1,-1 3,-1 3,-3 1,-2 2,-3 3,-4l-48 16z"/>
  <path class="fil47" d="M579 555c19,-5 56,-13 69,2 12,7 -26,95 -25,118 7,-8 38,-90 34,-122 -14,-6 -50,-13 -68,-6 -15,5 -2,-1 -10,8z"/>
  <path class="fil23" d="M930 1082c-10,6 -5,-3 -8,10 10,12 7,7 26,7 35,0 34,3 33,-22 -1,-17 5,-43 13,-56l32 -1c-3,-3 -3,-6 -17,-7 -35,-1 -35,40 -34,79 -54,0 -46,3 -45,-10z"/>
  <path class="fil18" d="M233 487c12,-6 21,-20 30,-31 23,-25 85,-79 94,-89 5,-6 1,0 4,-7 -14,4 -56,46 -68,57 -17,17 -53,50 -60,70z"/>
  <path class="fil36" d="M1941 951c-9,-51 2,-122 2,-138 -13,-1 -21,0 -33,0 -24,-1 -19,-2 -24,6l52 -1c-9,29 -5,64 -6,99 0,3 0,17 0,19 3,26 -1,9 9,15z"/>
  <path class="fil42" d="M889 635l0 15c12,-19 11,-3 15,10l3 0c0,7 -2,5 7,5 -11,-26 -7,-27 10,-54 0,-1 1,-2 1,-3 9,-1 17,-4 26,1l16 14 -5 -9c-19,-33 -66,-2 -73,21z"/>
  <path class="fil30" d="M960 366c22,-3 42,-25 78,-19 11,2 29,6 41,10 19,6 19,11 38,13 -31,-33 -138,-43 -157,-4z"/>
  <path class="fil48" d="M974 854l-16 95c8,-5 5,11 10,-29 5,-34 21,-66 14,-100l54 0c-1,3 -3,11 -3,13 0,10 0,9 7,17 -2,-14 -1,-19 0,-33l-61 1c0,13 6,24 -5,36z"/>
  <path class="fil25" d="M785 916c1,-27 -7,-99 61,-99 23,0 20,10 39,14 -12,-26 -58,-25 -83,-4 -22,19 -24,36 -24,63 0,3 0,13 1,16 3,10 0,4 6,10z"/>
  <path class="fil49" d="M1355 619c11,22 52,81 72,92l-7 -8c-6,-19 -3,-1 6,-8 -12,-21 -39,-19 -55,-75l-9 -15c0,20 2,11 -7,14z"/>
  <path class="fil25" d="M592 1268c-5,-40 -14,-57 5,-94 5,-10 16,-21 25,-28 10,-10 23,-12 33,-24 -28,3 -54,31 -65,53 -9,21 -21,83 2,93z"/>
  <path class="fil50" d="M974 854c11,-12 5,-23 5,-36l61 -1c-1,14 -2,19 0,33 1,9 2,17 3,26 1,3 1,10 2,13 4,17 3,8 8,13 0,-3 -10,-85 -10,-88 -10,-4 -57,-4 -69,0l0 40z"/>
  <path class="fil36" d="M710 1170l0 7c27,11 24,36 25,67 17,-1 28,-13 31,-30 2,-12 1,-32 -6,-41 -7,-9 2,0 -9,-7 9,26 19,54 -9,68 -1,-30 -6,-54 -32,-64z"/>
  <path class="fil51" d="M1386 970l0 20 -24 1c-1,-17 -3,-15 6,-27l1 -15c-5,-14 -1,-19 3,-30 1,1 2,2 3,3l8 12c-1,-14 0,-26 -9,-36 -17,21 -8,46 -12,63 -1,0 -26,58 30,31 2,-17 4,-11 -6,-22z"/>
  <path class="fil52" d="M966 525c-10,-18 -32,-36 -36,-61 -9,-53 10,-53 15,-82 -23,14 -27,54 -22,78 3,20 13,38 25,53 8,10 7,8 18,12z"/>
  <path class="fil52" d="M1017 697c-24,7 -79,43 -126,10 -16,-11 -8,-13 -27,-25 23,61 106,49 144,24 9,-5 3,1 9,-9z"/>
  <path class="fil50" d="M631 1199l-6 25c6,-21 21,-36 44,-39 -16,4 -8,0 -13,13l34 -24 20 3 0 -7c-25,-10 -74,6 -79,29z"/>
  <path class="fil50" d="M1827 981l6 20c21,-10 -8,8 6,-3 0,0 7,-6 7,-7l28 -122c-14,9 -16,42 -21,60 -5,15 -10,41 -14,57 -6,-4 -5,-1 -12,-5z"/>
  <path class="fil33" d="M1759 1415c-10,-15 -8,-2 -13,-19l12 2c-11,-16 -24,-21 -22,-36 1,-14 32,-45 41,-55 -12,3 -10,5 -10,-5 -2,0 -3,0 -4,2 0,1 -25,17 -29,50 -4,34 5,47 25,61z"/>
  <path class="fil53" d="M1147 1439l0 13c15,9 16,18 31,25 47,23 97,-4 106,-48 -12,9 -21,47 -66,50 -48,3 -59,-30 -71,-40z"/>
  <path class="fil54" d="M1275 571c4,10 6,9 12,18l10 17c8,12 13,24 26,32 -2,-12 -8,-6 4,-11 -11,-22 -29,-41 -42,-60 -4,-2 -6,2 -8,-4 0,-2 -3,0 -4,-1l2 9z"/>
  <path class="fil23" d="M1886 1147c0,-8 7,-7 -1,-8l6 -1 -7 -12c2,0 13,5 21,7 -8,-8 -12,-11 -19,-17 -9,-8 -11,-7 -21,-13l-3 -24c-1,1 -6,-9 -5,20 1,19 12,39 29,48z"/>
  <path class="fil40" d="M1305 1040c11,-11 6,-14 11,-38 4,-20 6,-23 3,-44 7,-16 7,-10 11,-32 4,-15 6,-20 5,-38 -1,0 -3,2 -5,8 -1,2 -2,8 -2,10 -1,6 -2,12 -3,19 -4,19 -2,15 -13,30 3,35 -6,53 -7,85z"/>
  <path class="fil55" d="M685 1662c-5,-6 3,-2 -10,-9 -2,-1 -6,-2 -8,-3l-115 -52c4,12 18,15 31,22 13,6 18,9 32,15 15,6 56,27 70,27z"/>
  <path class="fil30" d="M2027 1192c-33,-5 -45,4 -81,-10 -36,-13 -41,-26 -60,-35 5,17 44,36 59,42 11,4 95,19 82,3z"/>
  <path class="fil36" d="M1947 653l11 14c12,11 -2,3 15,8l-3 -14c-13,-24 -69,-88 -88,-96l7 12c19,21 43,33 67,73 -5,7 3,3 -9,3z"/>
  <path class="fil53" d="M559 638c2,-1 12,8 16,-41 2,-20 -2,-25 5,-40 22,-3 46,-4 68,0 -13,-15 -50,-7 -69,-2 -11,-3 -11,22 -11,35 -1,18 -5,31 -9,48z"/>
  <path class="fil39" d="M880 950c-4,-9 5,-5 -13,-11 -18,-5 -60,18 -37,-98 -16,14 -13,34 -12,57 0,22 5,31 17,43l45 9z"/>
  <path class="fil56" d="M1166 1367l25 -5c-6,9 -20,20 -23,34 -5,18 2,35 17,40 -2,-9 1,-2 -6,-12 -28,-40 31,-55 35,-59 -10,-13 -39,-13 -48,2z"/>
  <path class="fil57" d="M808 1086c-6,-11 -15,-18 -19,-29 -5,-12 -5,-25 -8,-34l-6 -12c17,-12 10,-3 32,-3 19,0 14,-3 21,10 3,-7 9,12 1,-13 -10,-5 -45,-7 -54,1 -4,4 -5,-7 -4,9 1,10 1,0 4,10 3,9 2,19 4,26 4,15 17,33 29,35z"/>
  <path class="fil58" d="M997 966c9,-10 5,0 7,-16 -2,-4 -6,-5 0,-22 3,-8 4,-8 5,-10l3 6c8,21 4,19 2,23l4 19c5,15 0,3 8,9l-5 -43c-2,-15 -4,-26 -12,-34 -8,8 -7,12 -10,27 -4,20 -2,22 -2,41z"/>
  <path class="fil26" d="M1370 1352c3,5 0,5 10,12 5,4 9,5 15,7 10,6 19,12 32,12l13 0 -3 -6c-31,-9 -49,-31 -73,-42 1,0 2,2 3,2 0,1 1,2 2,3 0,0 2,1 2,1 1,1 5,2 6,3l5 5c0,0 1,4 2,4 0,-1 1,3 1,5l-15 -6z"/>
  <path class="fil27" d="M1778 1080c0,-27 -7,-88 4,-106 4,12 5,27 14,37 -1,-20 -2,-45 -19,-48 -7,14 -6,98 -5,102 3,18 1,9 6,15z"/>
  <path class="fil48" d="M1013 670c-15,12 -1,3 -19,11 11,-17 -10,-1 11,-15 -42,20 -27,19 -84,23 3,3 -5,5 23,7 28,3 52,-5 69,-26z"/>
  <path class="fil59" d="M1276 1333c13,33 14,31 13,72 16,-17 6,-37 -1,-66l21 11c-6,-10 -13,-20 -26,-28l-10 -3 3 14z"/>
  <path class="fil60" d="M899 854l12 48c-13,0 -32,-1 -46,-1l0 -14c-7,8 -8,-13 -6,14 5,4 -4,4 13,6l45 -3c0,-19 -12,-73 -32,-73 1,0 1,1 2,2 0,1 1,2 1,3l11 18z"/>
  <path class="fil61" d="M1880 995c1,-1 2,-2 2,-2 1,-1 2,-2 3,-3l9 -13 0 102c12,-13 6,-105 1,-117 -17,7 -14,12 -15,33z"/>
  <path class="fil62" d="M1050 642l12 -5 -6 14 8 -1 -2 0c8,-13 3,-5 12,-15l14 -15 9 -23 4 -15 -51 60z"/>
  <path class="fil25" d="M1759 1415c10,2 17,5 26,5 13,0 20,-3 29,-8l-30 -7c0,-1 -1,-2 -1,-3 -6,-6 -6,-5 -12,-5 -7,8 10,8 -9,6l-4 -5 -12 -2c5,17 3,4 13,19z"/>
  <path class="fil33" d="M1332 672l2 7 5 10c8,3 1,-1 7,4 1,0 5,6 6,6 5,7 5,7 9,14l6 2c14,6 13,11 16,13 15,6 1,2 6,-4 -10,-9 -18,-20 -25,-29 -4,-5 -7,-8 -12,-15 -8,-10 -4,-8 -14,-14l4 13c-9,-9 -3,7 -7,-5 0,-1 -2,-1 -3,-2z"/>
  <path class="fil26" d="M573 225c2,0 116,-47 122,-55 -14,0 -50,17 -63,23 -17,8 -49,19 -59,32z"/>
  <path class="fil63" d="M2390 1235c17,-8 18,-21 32,-50 8,-15 22,-46 25,-63 -9,6 -3,-1 -8,7l-21 52c-8,18 -21,35 -28,54z"/>
  <path class="fil64" d="M1088 1082l-3 10 -42 0c0,-11 2,-17 1,-27 -2,-22 -7,-20 -9,-21 4,67 -4,55 35,55 19,0 17,5 26,-7 -2,-12 3,-5 -8,-10z"/>
  <path class="fil17" d="M1477 769c24,16 42,12 68,-1 9,4 21,-14 25,-20 4,-8 8,-24 6,-33 -4,-20 1,-5 -6,-9 -3,15 3,19 -4,35 -22,47 -73,28 -89,28z"/>
  <path class="fil18" d="M2048 822c20,-15 16,-27 52,-28 20,-1 36,2 48,14l11 11c-8,-24 -27,-32 -55,-31 -31,0 -39,11 -56,23l0 11z"/>
  <path class="fil65" d="M1230 1215c-1,-1 -2,-5 -2,-4 0,1 -2,-3 -2,-4 -1,-1 -2,-3 -3,-4l16 3c-8,-12 -29,-22 -45,-25 -23,1 -8,-2 -12,9l48 25z"/>
  <path class="fil25" d="M1533 725l12 -6c2,36 -28,31 -57,27 5,7 0,8 19,11 7,0 13,-1 19,-2 17,-5 35,-24 24,-41 -9,-14 -12,-4 -15,-4l-2 15z"/>
  <path class="fil14" d="M1492 1296c-7,7 -3,-1 -7,9 0,1 -1,9 -1,11 -1,7 1,16 1,24 -18,-4 -17,-6 -23,-20l-1 0c-5,-6 -3,4 -6,-12 0,-1 -1,-10 -1,-11 0,-10 1,-13 4,-22 -24,20 -1,73 32,71l2 -50z"/>
  <path class="fil26" d="M2173 1089c6,-11 4,-10 5,-24 5,19 -4,15 14,20 10,-17 4,-54 -2,-71 0,6 3,15 3,21 0,37 -2,14 -13,22l-3 -30 -4 62z"/>
  <path class="fil56" d="M2097 888l0 9c13,3 3,0 13,6 12,8 3,3 15,8l-6 -13c19,0 35,1 42,-12l-34 4c3,-6 0,-2 4,-7 1,0 2,-1 2,-2 1,-1 2,-1 3,-2 -23,0 -19,5 -28,15l-11 -6z"/>
  <path class="fil66" d="M1215 1268c11,9 16,12 25,18 20,15 7,8 19,27l17 20 -3 -14 10 3c-6,-13 -17,-21 -29,-31 -10,-8 -20,-22 -34,-29l6 11 -11 -5z"/>
  <path class="fil23" d="M420 1601c-6,-9 1,-2 -9,-11 -2,-2 -7,-5 -11,-8 -18,-12 -51,-40 -69,-48 5,12 -1,4 9,14l34 23c13,9 28,23 46,30z"/>
  <path class="fil50" d="M1340 1058l2 36 -51 -1c4,-12 2,-8 7,-19 -4,3 -4,-4 -9,10 -5,12 -1,4 0,11 13,7 13,4 28,4 41,0 24,-3 28,-36 3,-17 5,-20 6,-39 -3,3 -3,2 -6,8 -2,4 -2,6 -3,10 -1,5 -1,11 -2,16z"/>
  <path class="fil67" d="M1568 942c12,-3 13,-8 16,-21 2,-11 3,-19 3,-31 0,-26 0,-45 -21,-54 1,1 2,2 2,3 12,20 12,26 12,51 0,27 -1,30 -12,52z"/>
  <path class="fil68" d="M1061 466l4 0c0,-1 4,-18 4,-18 6,-11 -1,-2 10,-8 5,8 3,5 6,16 2,16 2,23 -6,36 0,1 -2,4 -3,5 -3,7 0,1 -4,10 22,-5 36,-64 -5,-76l-6 35z"/>
  <path class="fil38" d="M1214 525c-7,-18 -56,-65 -76,-76 5,9 2,5 8,12l57 56c1,1 3,3 4,4 6,5 -1,1 7,4z"/>
  <path class="fil56" d="M2405 1334c19,-10 50,-65 55,-83 -10,6 -51,74 -55,83z"/>
  <path class="fil69" d="M705 99c14,-4 74,-20 84,-33 -15,2 -32,8 -47,13 -10,3 -33,6 -37,20z"/>
  <path class="fil70" d="M1298 1074c-5,11 -3,7 -7,19l51 1 -2 -36c-1,1 -16,-4 -3,32l-39 0c1,-1 2,-2 2,-4l7 -14c3,-12 4,-7 0,-19 -9,10 -5,10 -9,21z"/>
  <path class="fil62" d="M1943 686l19 10c-5,-12 1,-4 -7,-15l-28 -26c-6,12 11,16 -17,1 6,13 3,7 15,17 6,5 11,11 18,13z"/>
  <path class="fil50" d="M1426 695c-9,7 -12,-11 -6,8l7 8c4,12 18,19 31,23 -6,-13 4,-7 -11,-11l7 -16 -16 -17c1,1 2,2 2,3l8 17c-13,-4 -16,-7 -22,-15z"/>
  <path class="fil51" d="M1610 1803c19,2 40,-5 59,-10l38 -9c16,-5 8,-4 12,-6l-99 19c-11,3 -8,4 -10,6z"/>
  <path class="fil71" d="M1399 749c7,2 12,5 21,8 -12,-31 -25,-22 -28,-31 0,-2 -2,-2 -3,-2 -5,6 9,10 -6,4 -3,-2 -2,-7 -16,-13l-6 -2c8,9 28,30 38,36z"/>
  <path class="fil72" d="M997 970l0 21 27 -2 2 -14c-8,-6 -3,6 -8,-9 -11,-1 -4,-1 -11,0 -3,1 -6,4 -7,3 0,-1 -2,1 -3,1z"/>
  <path class="fil60" d="M860 615c14,-10 6,-6 15,-19 4,-6 9,-10 16,-15 16,-11 26,-10 48,-9 -2,-9 13,-3 -10,-8 -25,-5 -64,21 -69,51z"/>
  <path class="fil18" d="M1005 666c-21,14 0,-2 -11,15 18,-8 4,1 19,-11 10,-1 24,-15 33,-26l-12 3 5 -9c-10,5 -13,7 -21,14 -5,5 -9,10 -13,14z"/>
  <path class="fil63" d="M1458 1275c-3,9 -4,12 -4,22 0,1 1,10 1,11 3,16 1,6 6,12 -1,-27 -5,-37 7,-59 10,-17 19,-21 27,-36 -11,4 -6,0 -16,10 -3,3 -7,10 -10,13 -6,9 -11,16 -11,27z"/>
  <path class="fil30" d="M1139 1177l3 -3 40 16c4,-11 -11,-8 12,-9 -3,-2 -3,-4 -10,-7 -8,-2 -6,-1 -12,-1 -18,-5 -15,-7 -37,-5 3,3 4,8 4,9z"/>
  <path class="fil20" d="M2303 474c-5,-11 -8,-14 -15,-23 -6,-7 -11,-10 -17,-17 -10,-11 -24,-26 -37,-31 5,12 24,26 33,35 11,11 20,27 36,36z"/>
  <path class="fil73" d="M1386 970l1 2c-13,-7 -9,-9 -19,-8 -9,12 -7,10 -6,27l24 -1 0 -20z"/>
  <path class="fil30" d="M2470 806c-1,-18 -4,-33 -8,-48 -2,-8 -5,-15 -7,-21 -5,-20 -1,-16 -11,-22 0,11 8,33 11,44 6,22 5,35 15,47z"/>
  <path class="fil74" d="M705 659c6,-7 -1,8 7,-10l25 -85c-5,4 -4,-7 -11,20 -7,23 -22,56 -21,75z"/>
  <path class="fil18" d="M1784 630l8 -15c23,18 10,33 9,55 2,-1 5,2 9,-15 5,-20 1,-45 -27,-49l1 24z"/>
  <path class="fil75" d="M2069 1200c17,-3 30,-12 43,-21 7,-4 11,-7 17,-13 13,-12 10,-9 14,-19 -14,7 -20,17 -35,28 -25,17 -28,10 -39,25z"/>
  <path class="fil20" d="M1869 1727c14,1 67,-21 83,-30 8,-5 7,-6 9,-8l-84 32c-12,6 -4,2 -8,6z"/>
  <path class="fil23" d="M2104 1263l10 2c0,1 -3,4 -4,5l-4 4c19,-6 29,-17 31,-36 -15,4 -23,9 -33,25z"/>
  <path class="fil26" d="M2056 1145c11,-6 12,-6 16,-18 3,-5 5,-14 6,-20 3,-14 4,-44 -9,-51 2,18 7,31 4,50 -4,19 -10,26 -17,39z"/>
  <path class="fil36" d="M1649 1346c6,-9 9,-11 7,-34 -3,-34 -8,-28 -12,-30l5 64z"/>
  <path class="fil33" d="M865 887l0 14c14,0 33,1 46,1l-12 -48 7 44 -38 -1c4,-11 9,-23 5,-34 -4,-10 -3,-5 -7,-9l1 25 -2 8z"/>
  <path class="fil57" d="M1966 1075c8,10 16,14 31,9 -2,-12 3,-4 -11,-15 -16,-14 -13,-15 -10,-33 -6,7 -5,-10 -7,14 -2,12 9,19 14,28l-17 -3z"/>
  <path class="fil76" d="M914 1182l-25 16 13 -2 -6 10c14,-5 33,-16 43,-32 -17,2 -11,1 -25,8z"/>
  <path class="fil44" d="M1755 1455c-24,-33 -16,2 -48,-53 -7,-14 -1,-4 -8,-10 3,29 33,57 56,63z"/>
  <path class="fil71" d="M781 1023c1,-13 -3,-6 4,-13 20,3 20,0 38,1 -2,7 -7,14 -7,24 0,0 1,11 1,11 3,11 0,4 7,10 0,-13 -3,-27 4,-38 -7,-13 -2,-10 -21,-10 -22,0 -15,-9 -32,3l6 12z"/>
  <path class="fil52" d="M1943 686c5,8 1,3 6,9 4,4 2,2 7,5 4,4 9,7 14,10l17 6c-1,-3 -4,-9 -6,-13 -7,-8 -11,-9 -15,-17 -9,-3 -5,0 -11,-5 8,11 2,3 7,15l-19 -10z"/>
  <path class="fil17" d="M621 1707c-5,-11 0,-4 -9,-10 -1,-1 -5,-2 -7,-3 -16,-7 -44,-22 -59,-25 7,9 0,5 18,13 6,3 12,6 17,9 16,7 24,11 40,16z"/>
  <path class="fil18" d="M1067 1759c-7,-7 5,-1 -12,-7l-80 -10c7,6 -6,1 12,7l80 10z"/>
  <path class="fil26" d="M23 744c7,-7 4,2 9,-17l19 -61c-11,1 -15,26 -18,36 -4,14 -8,26 -10,42z"/>
  <path class="fil38" d="M1249 1436c8,-4 9,-2 14,-14 4,-8 6,-15 7,-24l0 -38c-3,-9 -4,-9 -6,-11 0,19 5,28 0,50 -4,19 -11,23 -15,37z"/>
  <path class="fil39" d="M966 625c2,11 7,35 20,15 5,-8 6,-25 3,-30 -6,-13 -2,-4 -10,-9l5 35c-9,-2 -6,-1 -10,-4 0,0 -7,-6 -8,-7z"/>
  <path class="fil77" d="M1139 1177c0,-1 -1,-6 -4,-9 22,-2 19,0 37,5l-3 -9 -55 -5c8,18 4,3 12,17l13 1z"/>
  <path class="fil36" d="M778 141c16,-1 60,-12 73,-24 -21,2 -36,8 -56,14 -19,6 -12,4 -17,10z"/>
  <path class="fil49" d="M681 732c10,-5 12,-23 15,-33 5,-14 10,-28 9,-40 -7,7 -23,59 -24,73z"/>
  <path class="fil76" d="M1528 730c-24,1 -27,3 -40,-11l4 -26c-8,6 -4,-6 -8,10 -5,15 0,27 16,32 29,9 28,-5 28,-5z"/>
  <path class="fil62" d="M1462 1320c6,14 5,16 23,20 0,-8 -2,-17 -1,-24 0,-2 1,-10 1,-11 4,-10 0,-2 7,-9l1 -17c-15,7 -13,36 -13,52 -14,-7 -5,-2 -18,-11z"/>
  <path class="fil20" d="M2498 670c-2,-16 -21,-63 -33,-69 2,12 9,23 14,35l11 25c9,15 1,2 8,9z"/>
  <path class="fil64" d="M2059 1178c18,-6 50,-35 54,-56 -16,12 -18,21 -28,31l-21 16c-14,16 11,-17 -5,9z"/>
  <path class="fil78" d="M1467 596l-30 1c10,-12 8,-2 17,-17 -19,10 -9,6 -33,3 5,15 16,23 33,21 24,-4 6,-1 13,-8z"/>
  <path class="fil27" d="M1806 1752c8,-2 60,-18 61,-23 1,-1 2,-1 2,-2 -12,0 -57,10 -63,25z"/>
  <path class="fil11" d="M68 621c12,-8 17,-24 22,-33 8,-15 14,-22 21,-40 -9,5 -2,-4 -11,7l-32 66z"/>
  <path class="fil79" d="M1696 51c-7,-8 6,-3 -14,-9 -4,-1 -10,-2 -15,-3 -14,-5 -21,-6 -36,-6 13,11 48,17 65,18z"/>
  <path class="fil49" d="M599 737c12,-3 11,-16 15,-29 5,-13 9,-20 9,-33 -6,4 -2,-7 -8,10 -2,5 -5,14 -6,19 -4,11 -8,22 -10,33z"/>
  <path class="fil78" d="M1719 1778c12,3 23,-2 36,-6 12,-4 22,-2 26,-14 -13,2 -23,5 -35,9 -7,2 -29,6 -27,11z"/>
  <path class="fil40" d="M1398 502c46,-14 28,-11 71,-1 -9,-10 -20,-14 -34,-15 -19,0 -29,3 -37,16z"/>
  <path class="fil18" d="M2079 881c-15,-28 -23,-6 -31,-59 -2,2 -4,-7 -5,11 -2,19 16,41 36,48z"/>
  <path class="fil80" d="M904 660c-4,-13 -3,-29 -15,-10l0 -15c0,0 -10,-1 -3,21 1,6 5,9 9,14 0,-1 1,-2 2,-2l7 -8z"/>
  <path class="fil42" d="M2116 989l-8 -13c-10,-10 -34,-27 -52,-28 6,8 -5,0 9,8 4,3 4,2 8,4 16,7 26,19 43,29z"/>
  <path class="fil55" d="M855 119l98 -25c-17,0 -90,12 -98,25z"/>
  <path class="fil39" d="M2223 312l10 4c-7,-12 -11,-16 -23,-26 -12,-9 -17,-12 -29,-16 11,19 32,22 42,38z"/>
  <path class="fil55" d="M185 1391c-3,-19 -7,-15 -18,-27 -8,-9 -12,-19 -24,-26 4,12 -1,4 9,17l21 25c0,1 5,6 5,6 4,5 2,2 7,5z"/>
  <path class="fil18" d="M2025 978l-6 -1c-9,13 -16,10 -34,9 -2,-2 -4,-6 -6,-8 -11,-11 -2,-3 -10,-8 6,28 45,32 56,8z"/>
  <path class="fil22" d="M1264 486c-7,-17 -50,-58 -66,-63l66 63z"/>
  <path class="fil58" d="M1024 989l-27 2 0 -21c-12,1 -9,18 -4,23 3,4 11,5 16,5 24,-1 11,-2 15,-9z"/>
  <path class="fil44" d="M1309 1255c-9,-14 -40,-37 -57,-45 9,14 6,9 26,23 21,16 13,15 31,22z"/>
  <path class="fil25" d="M1579 1430c18,-6 46,-21 51,-41 -1,1 -3,2 -3,2l-22 19c-23,18 -23,4 -26,20z"/>
  <path class="fil63" d="M346 1461c-8,-13 -12,-13 -22,-23 -6,-5 -8,-7 -12,-11 -14,-14 -2,-6 -14,-8 5,10 22,26 33,35l15 7z"/>
  <path class="fil39" d="M1694 715c-6,-9 1,-3 -6,-9 -4,-4 -3,-2 -7,-5 -22,-14 -17,-19 -35,-30 8,20 25,36 48,44z"/>
  <path class="fil81" d="M897 1227c17,1 5,1 10,6 -12,4 -3,-3 -8,10l9 -4 14 -16 3 -13 -11 6c-12,3 -11,4 -17,11z"/>
  <path class="fil80" d="M2019 977l6 1 -1 -33 30 3c0,0 2,-13 -35,-7 -5,24 8,11 0,36z"/>
  <path class="fil49" d="M1493 689c26,-12 17,-10 50,-7 -13,-17 -42,-7 -47,-4 -3,3 -3,8 -3,11z"/>
  <path class="fil82" d="M1369 949c11,3 -1,4 13,-2l1 -13 -8 -12c-1,-1 -2,-2 -3,-3 -4,11 -8,16 -3,30z"/>
  <path class="fil43" d="M2256 341c14,7 20,22 36,26 -3,-9 4,-1 -9,-13 -4,-4 -7,-6 -10,-9 -10,-9 -15,-13 -25,-19l7 12c0,-1 1,2 1,3z"/>
  <path class="fil40" d="M2392 598c-4,-16 -20,-43 -34,-52 4,15 7,15 14,27 8,12 6,16 20,25z"/>
  <path class="fil71" d="M1240 1442c-32,8 -31,4 -55,-6 1,10 12,14 23,15 5,1 11,2 18,1 16,-2 10,-4 14,-10z"/>
  <path class="fil81" d="M1454 580c-9,15 -7,5 -17,17l30 -1 5 1 1 -10 -18 6c1,-2 1,-3 2,-4l12 -21c-1,1 -2,1 -2,2 -1,4 -4,3 -5,4 -4,4 -4,4 -8,6z"/>
  <path class="fil38" d="M1918 1636l59 -25c8,-7 1,0 7,-9 -14,5 -55,22 -66,34z"/>
  <path class="fil59" d="M469 284c14,-3 14,-5 25,-11 5,-3 7,-3 13,-7 11,-8 4,-1 11,-12 -17,6 -37,14 -49,30z"/>
  <path class="fil51" d="M751 1163c-6,-17 -20,-31 -39,-39l-11 -2c13,15 20,8 36,28l14 13z"/>
  <path class="fil74" d="M564 810l1 35c14,-11 11,-27 1,-36 1,-1 2,-3 3,-4l5 -5c0,-2 1,-2 2,-3l-12 3 0 10z"/>
  <path class="fil64" d="M2440 550c-4,-17 -20,-44 -34,-53 3,18 2,7 14,28l20 25z"/>
  <path class="fil42" d="M1753 714c19,-6 43,-24 48,-44 -1,1 -2,2 -2,2l-10 9c-28,30 -21,10 -36,33z"/>
  <path class="fil43" d="M1003 1217c1,0 2,-2 3,-1l43 -34c-14,2 -17,3 -28,13 -10,8 -14,10 -18,22z"/>
  <path class="fil83" d="M1872 179c-11,-14 -36,-20 -53,-22 5,6 3,5 10,8 3,2 10,4 14,5 12,5 15,7 29,9z"/>
  <path class="fil40" d="M2107 1532c11,-2 35,-17 43,-30 -12,4 -15,6 -26,13 -7,4 -6,2 -11,7 -11,11 -2,1 -6,10z"/>
  <path class="fil84" d="M1004 950l10 -3c2,-4 6,-2 -2,-23l-3 -6c-1,2 -2,2 -5,10 -6,17 -2,18 0,22z"/>
  <path class="fil68" d="M1771 1397c6,0 6,-1 12,5 0,1 1,2 1,3l30 7 3 -6 -9 1c-11,-7 -8,-6 -24,-10 -12,-4 -10,-5 -24,-10 6,14 3,7 11,10z"/>
  <path class="fil26" d="M2195 1552c19,-7 14,-6 29,-21l11 -12c-14,2 -13,4 -22,12 -13,13 -11,7 -18,21z"/>
  <path class="fil85" d="M106 1130c-2,-13 -4,-17 -8,-29 -1,-5 -3,-10 -4,-14 -4,-10 -4,-7 -6,-10 -2,14 0,15 5,30 1,2 3,10 4,10 6,18 1,7 9,13z"/>
  <path class="fil56" d="M1862 1079c10,-11 14,-35 14,-51 -3,4 -3,0 -7,11 -1,3 -2,10 -3,13 -3,14 -5,11 -4,27z"/>
  <path class="fil23" d="M564 810l0 -10 12 -3 9 -4 4 -18c-5,4 -2,2 -8,8 -15,17 -22,6 -25,20 2,13 -1,1 8,7z"/>
  <path class="fil71" d="M792 1700c-4,-4 -1,-3 -8,-7l-51 -14c4,10 -5,2 11,8 4,2 11,3 15,5 12,4 20,7 33,8z"/>
  <path class="fil64" d="M2025 978c11,-6 6,-13 6,-27l22 1 1 -4 -30 -3 1 33z"/>
  <path class="fil25" d="M195 536c9,0 7,3 7,-4 8,-11 20,-25 24,-36 -7,2 -3,-1 -9,5 -4,4 -6,8 -8,11 -10,13 -9,9 -14,24z"/>
  <path class="fil80" d="M1075 574c-1,2 -4,7 -5,8 -5,7 0,0 -5,8l2 7c11,-7 11,-4 14,-16 8,-9 16,-14 -3,-12l-3 5z"/>
  <path class="fil48" d="M2465 601l1 -9 -8 -13c-9,-11 -3,-13 -17,-21 3,12 6,14 10,23 8,15 4,14 14,20z"/>
  <path class="fil75" d="M107 696c11,-8 1,8 12,-13 2,-3 5,-12 6,-16 5,-12 11,-22 13,-35 -1,1 -2,1 -3,3l-28 61z"/>
  <path class="fil18" d="M733 1679c-3,-3 -1,-3 -8,-7 -3,-1 -8,-2 -11,-3 -12,-5 -14,-6 -26,-8 8,12 30,19 45,18z"/>
  <path class="fil59" d="M432 309c10,-1 12,-3 21,-9 2,-1 8,-5 9,-6 11,-10 2,0 9,-11 -14,4 -13,4 -23,12 -2,1 -8,5 -9,6 -10,8 -3,2 -7,8z"/>
  <path class="fil38" d="M247 1461c-2,-11 6,0 -6,-12 -4,-5 -7,-6 -12,-11 -8,-9 -11,-15 -24,-21 5,11 0,2 5,9l37 35z"/>
  <path class="fil83" d="M1619 987c-3,-17 -8,-19 -17,-28 2,-12 1,-5 4,-16l-11 8c2,13 13,28 24,36z"/>
  <path class="fil83" d="M2017 852l-1 -46c-10,11 -12,36 1,46z"/>
  <path class="fil41" d="M1298 528c-5,-12 -5,-12 -12,-21 -1,-2 -6,-9 -6,-9 -6,-5 -4,-4 -12,-7 5,12 5,10 13,21 2,3 4,7 6,9 8,8 2,2 11,7z"/>
  <path class="fil53" d="M579 148c14,-3 13,-4 25,-9 2,0 10,-3 11,-4 12,-7 4,-1 10,-9 -13,2 -14,3 -26,8 -11,5 -11,3 -20,14z"/>
  <path class="fil75" d="M2392 481c-2,-13 -4,-13 -12,-22 -3,-3 -7,-9 -9,-11 -7,-6 0,-2 -10,-5 5,12 6,10 14,20l17 18z"/>
  <path class="fil44" d="M1974 1014c23,-7 27,-5 50,-3 -3,-2 2,-3 -12,-6 -2,-1 -12,-1 -14,-1 -28,0 -22,6 -24,10z"/>
  <path class="fil27" d="M2360 546c-4,-11 -4,-11 -12,-21 -10,-14 -4,-11 -19,-18 6,12 20,32 31,39z"/>
  <path class="fil30" d="M258 359c-9,5 -3,-2 -5,9 17,-6 28,-18 35,-31 -19,9 -15,14 -30,22z"/>
  <path class="fil49" d="M1774 143c-4,-5 0,-4 -7,-7 -6,-3 -6,-2 -12,-4 -10,-3 -15,-5 -27,-6 8,8 -6,-1 8,7 3,1 7,2 11,3 7,3 17,6 27,7z"/>
  <path class="fil60" d="M305 323c14,-8 28,-16 36,-33 -10,5 -4,1 -12,7 -4,3 -2,3 -8,8 -14,11 -9,1 -16,18z"/>
  <path class="fil43" d="M2513 1124c4,-5 0,6 6,-10 0,0 2,-8 3,-9 2,-12 3,-12 3,-25 -10,10 -5,5 -9,20 -4,14 -4,8 -3,24z"/>
  <path class="fil46" d="M997 966l0 4c1,0 3,-2 3,-1 1,1 4,-2 7,-3 7,-1 0,-1 11,0l-4 -19 -10 3c-2,16 2,6 -7,16z"/>
  <path class="fil77" d="M1970 710c9,11 11,13 28,16 -1,-9 1,-10 -9,-18l-8 -5c2,4 5,10 6,13l-17 -6z"/>
  <path class="fil30" d="M518 179c10,0 47,-16 57,-31l-55 29c0,-1 -1,1 -2,2z"/>
  <path class="fil49" d="M51 666c4,-3 1,4 7,-5 2,-4 2,-7 4,-11 3,-10 5,-14 7,-26 -6,6 -3,0 -9,10 0,0 -3,10 -4,11 -4,11 -4,9 -5,21z"/>
  <path class="fil71" d="M2059 1563c13,-1 13,-3 26,-12 5,-3 7,-4 11,-7 13,-8 8,-4 11,-12l-47 29c0,-1 -1,2 -1,2z"/>
  <path class="fil27" d="M833 1268c22,-7 54,-26 64,-41l-64 41z"/>
  <path class="fil64" d="M1368 964c10,-1 6,1 19,8 -4,-14 -4,-9 -5,-25 -14,6 -2,5 -13,2l-1 15z"/>
  <path class="fil86" d="M1846 991c0,1 -7,7 -7,7 -14,11 15,-7 -6,3l-6 -20 -2 -1c-1,16 1,32 17,29l4 -18z"/>
  <path class="fil35" d="M2117 312c-6,-12 0,-3 -7,-10 -3,-3 -5,-3 -9,-6 -9,-6 -10,-7 -22,-12 8,14 24,23 38,28z"/>
  <path class="fil11" d="M2280 1385c12,-5 25,-17 29,-35 -9,6 -3,1 -10,8 0,1 -5,7 -7,9 -8,10 -8,5 -12,18z"/>
  <path class="fil44" d="M963 672c17,-4 36,-14 46,-29 -13,5 -1,-2 -13,6 -5,4 -4,4 -11,8 -11,8 -12,4 -22,15z"/>
  <path class="fil38" d="M541 1669c-7,-10 -6,-7 -17,-13 -10,-6 -13,-7 -24,-10 9,13 26,20 41,23z"/>
  <path class="fil87" d="M445 224c13,-5 29,-14 38,-23l-10 0c-6,4 -8,5 -14,9 -3,1 -5,2 -8,5 -7,7 0,-4 -6,9z"/>
  <path class="fil44" d="M2235 1519c8,-3 28,-18 32,-28 -11,2 -1,-3 -10,4 -2,1 -5,4 -8,7 -11,9 -11,5 -14,17z"/>
  <path class="fil60" d="M858 1718c-6,-6 1,-3 -12,-8 -1,-1 -7,-2 -8,-3 -12,-3 -9,-3 -22,-3 4,4 -1,3 10,8 4,2 5,1 9,2 8,2 15,3 23,4z"/>
  <path class="fil30" d="M252 1368c-5,-13 -6,-10 -14,-19 -2,-2 -6,-7 -7,-8 -6,-5 -1,-1 -9,-5 4,14 1,8 11,18 3,3 6,5 8,7 8,7 1,2 11,7z"/>
  <path class="fil22" d="M1880 638c-7,-11 -1,-4 -10,-12 -2,-2 -7,-6 -10,-9 -9,-7 -14,-9 -23,-11 7,9 7,7 19,15 8,6 13,11 24,17z"/>
  <path class="fil65" d="M1837 1357l-3 -18 24 16c-9,-14 -12,-18 -30,-22 2,12 -1,10 9,24z"/>
  <path class="fil62" d="M719 518l41 -3c-1,2 -2,2 -2,4l-8 16c12,-3 7,-1 12,-10l1 -12c-8,0 -16,0 -24,0 -13,1 -11,0 -20,5z"/>
  <path class="fil88" d="M115 539c13,2 5,1 12,-10 3,-5 5,-10 8,-15 9,-14 13,-12 18,-31l-38 56z"/>
  <path class="fil36" d="M2361 443c-2,-8 0,-4 -4,-11 -2,-3 -5,-6 -7,-8 -8,-10 -6,-10 -17,-13 3,7 -2,0 6,9 2,3 4,4 7,8 7,10 5,10 15,15z"/>
  <path class="fil40" d="M2085 1624c17,-4 29,-12 38,-23 -12,3 -12,3 -22,9 -1,1 -6,3 -7,4 -7,6 -3,2 -9,10z"/>
  <path class="fil28" d="M399 332c16,-5 7,-3 19,-10 5,-3 3,-1 7,-4 9,-6 3,1 7,-9 -12,2 -7,1 -19,8 -1,1 -5,4 -6,5 -9,8 -4,3 -8,10z"/>
  <path class="fil55" d="M1086 559c0,1 -1,1 -1,2l-7 8c19,-2 11,3 3,12 12,-9 16,-15 22,-29 -5,2 -12,5 -17,7z"/>
  <path class="fil26" d="M2002 1670c12,0 9,0 20,-6 11,-7 9,-1 13,-13 -9,3 -14,5 -21,9 0,0 -6,4 -6,4 -5,4 -4,4 -6,6z"/>
  <path class="fil47" d="M542 917c11,-5 1,2 7,-8 1,-1 3,-7 3,-8 4,-11 4,-8 5,-21 -11,9 -12,23 -15,37z"/>
  <path class="fil81" d="M241 377c-7,13 -5,12 -17,17l1 7c8,-5 10,-8 16,-13 1,-1 5,-5 6,-5 8,-10 2,-2 7,-11l-8 1c-3,4 0,2 -5,4z"/>
  <path class="fil60" d="M1551 1367c16,-4 26,-11 30,-25l4 -13c-5,8 -7,14 -14,21 -4,4 -6,4 -11,8 -9,7 -3,2 -9,9z"/>
  <path class="fil69" d="M2205 375c-6,-8 -20,-21 -33,-25 7,12 18,23 33,25z"/>
  <path class="fil11" d="M186 1283c-4,-8 -7,-15 -10,-20 -3,-5 -1,-3 -5,-7 -5,-6 -1,-2 -8,-6 2,8 4,12 8,18 0,1 4,7 4,7 11,12 0,1 11,8z"/>
  <polygon class="fil18" points="1195,1255 1215,1268 1226,1273 1220,1262 1199,1246 1205,1258 "/>
  <path class="fil74" d="M2116 989c-1,12 -3,-1 4,14 7,13 1,6 11,15 -2,-18 -10,-31 -23,-42l8 13z"/>
  <path class="fil89" d="M1695 602c13,-8 23,-14 30,-27 -17,6 -23,11 -30,27z"/>
  <path class="fil39" d="M2180 979c-2,-4 -7,-17 -8,-20 -6,-11 1,-14 -10,-9 1,6 2,11 6,17 8,15 3,7 12,12z"/>
  <path class="fil25" d="M1336 582c-7,-14 -11,-26 -26,-31 4,8 8,12 12,18 2,3 3,5 5,7 6,6 -1,1 9,6z"/>
  <path class="fil44" d="M2527 762c0,-13 -2,-20 -5,-31 -1,-3 -3,-11 -3,-11 -4,-9 -3,-6 -9,-11l17 53z"/>
  <path class="fil30" d="M2162 950c-5,-15 -12,-22 -27,-28 3,7 2,5 7,10 4,5 1,0 6,6 8,8 3,7 14,12z"/>
  <path class="fil90" d="M2311 1450c12,-5 18,-13 24,-25 -12,5 -7,1 -16,11 -1,1 -5,5 -5,6 -5,8 0,-3 -3,8z"/>
  <path class="fil91" d="M2422 652c-3,-10 -3,-10 -8,-19 -1,-3 -2,-5 -4,-8l-7 -6c2,9 3,12 7,19 0,2 2,5 4,7 6,7 0,1 8,7z"/>
  <path class="fil56" d="M2001 1597c14,-5 22,-7 30,-19 -9,2 -11,2 -19,7 -15,9 -6,3 -11,12z"/>
  <path class="fil30" d="M478 1634c-7,-11 6,-1 -11,-12 -5,-3 -12,-5 -18,-7 7,12 16,15 29,19z"/>
  <path class="fil35" d="M142 1338l-15 -26 -8 -7c3,12 11,31 23,33z"/>
  <path class="fil50" d="M273 1485c-5,-12 0,-5 -11,-15 -8,-7 -6,-6 -15,-9 6,12 13,19 26,24z"/>
  <path class="fil40" d="M914 1216l11 -6 -3 13c7,-4 3,0 9,-8 3,-4 3,-6 4,-9l-1 -8 -20 18z"/>
  <path class="fil89" d="M2161 1493c7,-3 9,-4 14,-8 1,0 6,-4 6,-5 5,-6 1,-1 6,-8 -9,3 -12,3 -17,8 -14,12 -4,2 -9,13z"/>
  <path class="fil20" d="M2234 403c-5,-10 -5,-7 -12,-15 -8,-8 -5,-9 -17,-13l11 15c1,1 8,8 8,8 7,5 2,2 10,5z"/>
  <path class="fil65" d="M2172 273l-1 -8c-10,-7 -11,-9 -22,-12 3,11 9,12 23,20z"/>
  <path class="fil83" d="M1449 1362c-9,-11 -5,-6 -18,-12 -13,-6 -4,-4 -17,-6 10,11 21,15 35,18z"/>
  <path class="fil54" d="M2192 1468c18,-6 19,-15 34,-24l1 -8 -35 32z"/>
  <path class="fil90" d="M1473 587l-1 10c13,-9 17,-13 20,-29 -6,5 -2,1 -7,7 -1,1 -2,4 -3,5 -6,7 -4,5 -9,7z"/>
  <path class="fil50" d="M205 1416c-4,-9 -3,-7 -8,-14 0,-1 -5,-6 -6,-6 -4,-5 -1,-2 -6,-5 1,8 0,8 7,16 10,12 3,4 13,9z"/>
  <path class="fil58" d="M2172 350c-5,-13 -13,-16 -25,-20 7,11 -5,1 10,13 8,5 8,5 15,7z"/>
  <path class="fil37" d="M2256 341c0,-1 -1,-4 -1,-3l-7 -12 -15 -10 -10 -4 7 8c3,2 5,3 9,6 0,0 1,1 2,2l15 13z"/>
  <path class="fil24" d="M1065 466l14 -19 6 9c-3,-11 -1,-8 -6,-16 -11,6 -4,-3 -10,8 0,0 -4,17 -4,18z"/>
  <path class="fil46" d="M2150 1582c-9,2 -9,2 -14,12 14,-2 23,-9 30,-21 -9,7 -5,4 -16,9z"/>
  <path class="fil51" d="M2501 1152c5,-4 4,3 10,-12 4,-9 2,-10 2,-16l-8 10c-3,8 -3,11 -4,18z"/>
  <path class="fil11" d="M2032 779c6,-3 10,-6 14,-8 4,-3 3,-2 6,-5 5,-5 3,-3 7,-8 -9,2 -8,1 -16,6 -10,7 -7,6 -11,15z"/>
  <path class="fil44" d="M2331 1325c12,-7 15,-12 20,-25 -8,5 -3,1 -9,6 -1,1 -3,3 -4,4 -12,15 -3,1 -7,15z"/>
  <path class="fil60" d="M1363 547l7 -2c1,-7 -1,-1 2,-10 7,-16 -5,13 3,-5 5,-11 -1,3 4,-10 -13,4 -13,16 -16,27z"/>
  <path class="fil60" d="M1837 606c-6,-10 -2,-5 -12,-11 -5,-2 -11,-6 -18,-9 4,6 1,4 6,9 5,4 3,2 7,5 5,3 10,5 17,6z"/>
  <path class="fil69" d="M1157 1251c-7,-7 10,-4 -14,-8 9,-10 0,-7 15,-7l-9 -5 -10 5c1,10 6,13 18,15z"/>
  <path class="fil61" d="M383 1492c-4,-7 -1,-3 -6,-8 -6,-8 5,4 -4,-4 -7,-6 -4,-4 -10,-6l-8 -1c9,8 15,15 28,19z"/>
  <path class="fil51" d="M1091 419c-5,-6 3,-3 -12,-10 -6,-2 -13,-4 -20,-5l5 5c7,4 -2,0 8,4 5,2 12,4 19,6z"/>
  <path class="fil47" d="M2313 1350c12,-8 15,-12 20,-25 -8,4 -5,-1 -13,9 -4,5 -4,9 -7,16z"/>
  <path class="fil90" d="M882 1260c9,-3 23,-12 24,-18 0,-2 1,-2 2,-3l-9 4c-4,2 -4,1 -8,4 -1,1 -3,4 -4,4 -5,6 -1,1 -5,9z"/>
  <path class="fil74" d="M1886 115c-5,-6 1,-2 -7,-7 -9,-6 12,3 -6,-3 -5,-2 -8,-2 -16,-3 11,12 14,10 29,13z"/>
  <path class="fil47" d="M119 1305l8 7c-4,-13 -8,-24 -22,-31l14 24z"/>
  <path class="fil11" d="M1334 679l-2 -7c-7,-6 -5,-5 -10,-11 -8,-9 -2,-3 -13,-10 6,13 1,5 11,16 2,3 2,3 5,6 7,6 2,2 9,6z"/>
  <path class="fil53" d="M1861 1160c-3,-9 0,-5 -7,-12 -9,-9 -7,-5 -13,-9 3,9 2,8 8,14 12,13 2,4 12,7z"/>
  <path class="fil36" d="M2333 1423c11,-3 12,-7 17,-13 9,-11 8,-5 9,-17l-26 30z"/>
  <path class="fil11" d="M1882 565c-7,-12 -18,-17 -31,-22 5,8 -1,2 6,8l25 14z"/>
  <path class="fil36" d="M1570 706c-3,-16 -5,-18 -21,-25l11 15c3,4 2,4 5,7l5 3z"/>
  <path class="fil22" d="M2466 1229c12,-6 1,3 9,-6 0,0 5,-7 5,-7 4,-8 5,-12 5,-21l-19 34z"/>
  <path class="fil26" d="M2149 253l-1 -7 -24 -14c0,1 1,1 1,3l9 10c6,5 8,5 15,8z"/>
  <path class="fil54" d="M827 960l-33 -22c9,15 9,9 20,21l13 1z"/>
  <path class="fil11" d="M2032 1579c11,-1 21,-7 27,-16 -13,2 -18,6 -27,16z"/>
  <path class="fil58" d="M2445 711c0,-4 1,-7 -3,-14 -7,-14 -1,-4 -9,-10 0,4 2,12 3,15 8,16 0,2 9,9z"/>
  <path class="fil26" d="M620 1309c-3,-6 -4,-8 -7,-12 -1,0 -3,-3 -4,-4 -7,-5 1,0 -9,-5 3,7 3,10 8,15 11,10 -1,1 12,6z"/>
  <path class="fil66" d="M199 425c8,-3 6,0 14,-8 8,-9 4,-2 6,-12 -11,5 -14,8 -20,20z"/>
  <path class="fil69" d="M138 1199l-12 -24c0,0 -2,0 -2,-1 0,-1 -1,-1 -2,-2 1,7 0,9 3,15 10,17 2,6 13,12z"/>
  <path class="fil92" d="M2227 1436l-1 8c11,-9 15,-11 21,-23 -9,4 -5,0 -14,9 -7,5 -2,0 -6,6z"/>
  <path class="fil50" d="M156 477c8,-4 3,2 11,-7 7,-8 4,-8 7,-15 -13,7 -14,10 -18,22z"/>
  <path class="fil55" d="M1665 542c12,-6 16,-9 21,-20 -6,3 -9,3 -14,8 -13,12 -4,4 -7,12z"/>
  <path class="fil55" d="M1961 1689c10,0 16,-1 23,-11 -8,1 -7,-1 -16,3 -15,8 -2,0 -7,8z"/>
  <path class="fil18" d="M324 1529c-4,-7 0,-5 -9,-13 -7,-6 -7,-5 -14,-8 6,11 11,15 23,21z"/>
  <path class="fil47" d="M1339 1335c-7,-12 -11,-14 -23,-26 -5,-4 -7,-7 -11,-11 -8,-6 -5,-4 -13,-8l47 45z"/>
  <path class="fil75" d="M1228 1299c-3,-3 -2,-3 -5,-7 -2,-2 -4,-5 -7,-8 -6,-4 -12,-6 -20,-10 7,8 25,22 32,25z"/>
  <path class="fil44" d="M2161 886c11,-4 18,-7 20,-21 -5,3 -8,6 -12,10 -10,10 -5,4 -8,11z"/>
  <path class="fil28" d="M2450 1094c10,-4 7,-7 11,-19 -4,-9 7,0 -6,-7l-5 26z"/>
  <path class="fil39" d="M1998 163c-2,-9 3,-3 -6,-8 -6,-4 -11,-3 -15,-4 5,6 -3,3 9,9 5,3 6,2 12,3z"/>
  <path class="fil53" d="M1054 596c9,-3 2,4 11,-6 5,-8 0,-1 5,-8 1,-1 4,-6 5,-8 -12,8 -18,12 -21,22z"/>
  <path class="fil60" d="M1437 689l-20 -24c-8,-8 -4,-3 -11,-7 6,9 8,11 15,18 6,6 7,8 16,13z"/>
  <path class="fil61" d="M298 1419c-3,-9 5,1 -7,-12 -5,-5 -6,-5 -12,-8 3,11 8,15 19,20z"/>
  <path class="fil85" d="M2275 1481c5,-2 7,-2 12,-5 2,-6 -2,-2 4,-5l1 -8c-12,6 -13,6 -17,18z"/>
  <path class="fil30" d="M1883 1176c-8,-11 -10,-14 -22,-16 2,4 -1,4 8,11 8,5 3,3 14,5z"/>
  <path class="fil40" d="M1715 1310l27 -24c-16,5 -20,8 -27,24z"/>
  <path class="fil93" d="M179 447c11,-6 1,6 11,-7 8,-11 1,0 6,-14 -13,9 -12,7 -17,21z"/>
  <path class="fil66" d="M501 1044c8,-6 3,4 9,-10 2,-8 0,-7 1,-14 -11,9 -8,10 -10,24z"/>
  <path class="fil55" d="M2150 1582c11,-5 7,-2 16,-9l10 -10c-17,5 -18,7 -26,19z"/>
  <path class="fil43" d="M299 1508c-7,-13 -7,-13 -21,-20 6,14 8,14 21,20z"/>
  <path class="fil64" d="M2175 777c-6,-14 -5,-12 -20,-17 4,6 0,4 8,11 8,6 5,3 12,6z"/>
  <path class="fil36" d="M1172 403c-8,-12 -8,-12 -22,-15 4,10 0,5 8,10 6,3 6,2 14,5z"/>
  <path class="fil69" d="M448 1538c-5,-9 4,-2 -8,-11 -7,-4 -2,-2 -12,-3 5,8 0,4 6,9 6,4 7,3 14,5z"/>
  <path class="fil20" d="M180 558c11,-8 12,-12 16,-24 -13,8 -13,10 -16,24z"/>
  <path class="fil60" d="M1062 650c11,-6 6,-1 15,-12 4,-5 7,-11 11,-18l-14 15c-9,10 -4,2 -12,15z"/>
  <path class="fil38" d="M1361 713c-4,-7 -4,-7 -9,-14 -1,0 -5,-6 -6,-6 -6,-5 1,-1 -7,-4 5,12 12,19 22,24z"/>
  <path class="fil27" d="M1278 1274c-6,-6 -9,-9 -13,-13 -9,-10 -2,-5 -14,-10 4,5 6,8 11,13 1,1 6,5 6,6 6,3 2,0 10,4z"/>
  <path class="fil26" d="M1198 423c0,-10 -8,-12 -17,-16 2,6 1,7 7,12 11,9 -1,1 10,4z"/>
  <path class="fil50" d="M1230 543c-2,-5 -3,-8 -7,-12 -5,-6 -2,-3 -9,-6 2,6 1,6 5,11 10,13 2,3 11,7z"/>
  <path class="fil91" d="M524 972c12,-7 9,-4 9,-20 -10,7 -7,5 -9,20z"/>
  <path class="fil54" d="M122 1172c0,-5 4,-3 -2,-14 -5,-9 3,-1 -8,-6 1,4 1,7 3,11 0,1 1,2 1,3l4 5c0,0 1,1 2,1z"/>
  <path class="fil25" d="M1017 635c11,-4 4,6 11,-8 14,-7 2,1 7,-11 -11,7 -11,7 -18,19z"/>
  <path class="fil11" d="M1020 692c12,-4 16,-4 22,-16 -8,2 -3,-2 -13,6 -3,3 -5,5 -9,10z"/>
  <path class="fil50" d="M2292 1463l-1 8 20 -21c-10,2 -3,-1 -11,5 -2,1 -6,7 -8,8z"/>
  <path class="fil53" d="M2265 1400c10,-3 11,-5 15,-15 -9,3 0,-5 -11,5 -10,9 -2,0 -4,10z"/>
  <path class="fil50" d="M945 382c7,-4 0,3 9,-7 7,-7 3,-2 6,-9 -13,2 -12,2 -15,16z"/>
  <path class="fil44" d="M1414 1344l-48 -35c8,8 37,33 48,35z"/>
  <path class="fil18" d="M1042 676l22 -26 -8 1c-4,12 -2,3 -8,12 -7,10 -3,3 -6,13z"/>
  <path class="fil32" d="M965 586c-1,-1 -2,-3 -2,-3 -1,1 -2,-2 -2,-2 -2,-1 -7,-6 -8,-7l-14 -2c6,7 16,10 26,14z"/>
  <path class="fil68" d="M965 586l10 6c-4,-12 4,-2 -7,-11 -5,-5 -8,-5 -15,-7 1,1 6,6 8,7 0,0 1,3 2,2 0,0 1,2 2,3z"/>
  <path class="fil11" d="M990 419l24 -17c-14,1 -21,4 -24,17z"/>
  <path class="fil17" d="M1648 559c10,-6 2,2 12,-8 4,-4 3,-4 5,-9 -8,2 -1,-5 -10,5 -4,4 -4,5 -7,12z"/>
  <path class="fil74" d="M1641 1270l-4 -11c-3,-9 1,-1 -4,-8 -3,-6 -1,-2 -6,-5 3,11 4,15 14,24z"/>
  <path class="fil18" d="M1756 1358c6,-5 1,-1 7,-7 0,-1 2,-4 3,-5 2,-3 3,-4 5,-9 -6,1 -4,-2 -9,2l-6 19z"/>
  <polygon class="fil56" points="473,201 483,201 493,194 494,186 "/>
  <path class="fil44" d="M2406 497c-3,-8 0,-4 -5,-10 -9,-10 -3,-2 -9,-6 2,11 3,14 14,16z"/>
  <path class="fil54" d="M1984 1678c4,0 3,3 12,-2 12,-5 1,0 6,-6 -8,0 1,-5 -13,2 -6,3 -3,4 -5,6z"/>
  <polygon class="fil74" points="2097,897 2097,888 2089,883 2078,881 "/>
  <path class="fil44" d="M480 1076c12,-3 8,-1 14,-16 -8,4 -5,1 -11,8 -9,10 0,0 -3,8z"/>
  <path class="fil51" d="M2006 243c-6,-9 3,-3 -6,-9 -11,-6 -1,-1 -11,-3 4,11 5,8 17,12z"/>
  <path class="fil53" d="M501 1648c-5,-9 8,-4 -10,-9l-11 -4c8,9 9,11 21,13z"/>
  <path class="fil48" d="M2029 254c-5,-13 -4,-9 -17,-12 5,6 -1,3 7,8 5,3 4,2 10,4z"/>
  <path class="fil43" d="M695 170c10,1 2,4 11,-1 8,-4 2,-1 7,-7 -12,1 -12,-1 -18,8z"/>
  <path class="fil30" d="M1627 1246c-3,-10 -3,-11 -16,-14 5,8 0,2 6,8 7,7 5,4 10,6z"/>
  <path class="fil62" d="M2359 1393l9 -5 4 -13c-10,7 -11,5 -13,18z"/>
  <path class="fil68" d="M2275 1481c-13,7 -5,3 -8,10 12,-4 11,-4 20,-15 -5,3 -7,3 -12,5z"/>
  <path class="fil43" d="M2318 394c-4,-9 -5,-16 -15,-15 5,11 1,7 15,15z"/>
  <path class="fil53" d="M2372 1375l-4 13c10,-9 10,-8 13,-20 -7,4 0,-4 -9,7z"/>
  <path class="fil51" d="M2037 885c-4,-10 1,-4 -6,-13 -6,-6 -2,-1 -9,-5 4,11 5,12 15,18z"/>
  <path class="fil18" d="M2136 879c8,-1 13,-2 17,-12 -13,4 -1,-3 -13,6 -4,3 -2,3 -4,6z"/>
  <path class="fil56" d="M355 1473l8 1 -9 -10c-4,-7 1,-3 -8,-3 3,5 1,3 5,7 2,3 2,3 4,5z"/>
  <path class="fil51" d="M1152 389c-5,-11 -4,-8 -16,-10 4,11 6,8 16,10z"/>
  <path class="fil61" d="M1914 619c-8,-9 -10,-10 -21,-16 6,9 -1,3 8,11 6,4 8,3 13,5z"/>
  <path class="fil28" d="M2252 1414c9,-5 5,5 8,-6l5 -8c-8,2 -10,-2 -13,14z"/>
  <path class="fil74" d="M2011 172c-5,-8 6,-6 -4,-7l-9 -2c-2,10 8,8 13,9z"/>
  <path class="fil20" d="M440 1610c-4,-11 -5,-8 -15,-10l3 8 12 2z"/>
  <path class="fil63" d="M1235 1237c-4,-6 0,-2 -6,-7 -1,-1 -4,-3 -5,-3 -1,-1 -11,-6 -12,-6 9,10 12,12 23,16z"/>
  <path class="fil76" d="M543 656c11,-6 3,4 9,-6 6,-7 1,4 5,-11 -11,9 -8,5 -14,17z"/>
  <path class="fil40" d="M504 187c12,-1 10,-1 14,-8 -10,0 3,-5 -10,1 -9,4 -1,-1 -4,7z"/>
  <path class="fil26" d="M1246 1317c-2,-4 -6,-10 -8,-13 -7,-6 -3,-3 -10,-5 2,3 6,8 8,10 8,8 4,4 10,8z"/>
  <path class="fil48" d="M2303 379c-2,-5 1,-1 -4,-7 -5,-5 -2,-1 -7,-5 1,17 6,11 11,12z"/>
  <path class="fil89" d="M2428 673c0,-14 2,-4 -2,-9 -5,-8 2,-3 -7,-8 0,12 2,11 9,17z"/>
  <path class="fil93" d="M2042 1189l12 -10 -16 2c-1,14 -4,5 4,8z"/>
  <path class="fil54" d="M2381 1368c6,-3 2,1 7,-5 6,-5 3,-4 5,-9 -9,5 -10,-1 -12,14z"/>
  <path class="fil71" d="M1486 519c-4,-14 4,-2 -6,-12 -4,-4 -6,-4 -12,-7l18 19z"/>
  <path class="fil60" d="M2056 271c0,-7 2,-5 -5,-5l-9 -5 2 8 12 2z"/>
  <path class="fil37" d="M2115 231l-2 -7 -10 -1c1,10 3,7 12,8z"/>
  <path class="fil63" d="M2024 866c-2,-13 0,-4 -4,-10 0,-1 -2,-1 -2,-3 0,-1 -2,-1 -3,-2l2 13 7 2z"/>
  <path class="fil44" d="M1496 1278c15,-8 6,-1 13,-13l-10 4c-8,2 1,0 -3,9z"/>
  <path class="fil67" d="M1633 1384l7 -3 1 -11c-10,4 -7,4 -8,14z"/>
  <path class="fil40" d="M864 974c-5,-11 -2,-10 -15,-12 10,12 4,7 15,12z"/>
  <path class="fil66" d="M493 194c10,-1 9,1 11,-7l-10 -1 -1 8z"/>
  <path class="fil22" d="M1956 1031c6,-7 8,-9 15,-16 -17,6 -10,0 -15,16z"/>
  <path class="fil27" d="M2333 411c-5,-13 -4,-9 -13,-14 3,13 0,6 6,9l7 5z"/>
  <path class="fil69" d="M2142 1148l9 -3 -1 -8c-6,3 -5,-5 -6,3l-2 8z"/>
  <path class="fil27" d="M272 1392l-1 -8 -8 -2c1,11 1,9 9,10z"/>
  <path class="fil78" d="M824 1233c1,0 3,-2 3,-1 1,1 3,-1 4,-2 6,-4 4,-3 8,-7 -10,2 -11,0 -15,10z"/>
  <path class="fil75" d="M361 360c7,-1 4,2 9,-2 12,-9 3,0 8,-11l-17 13z"/>
  <path class="fil52" d="M1039 611c8,-3 5,1 10,-4 7,-7 3,-2 5,-11l-15 15z"/>
  <path class="fil40" d="M1326 1273l-3 -9 -9 -5c5,11 1,6 12,14z"/>
  <path class="fil71" d="M279 1399l0 -8 -7 1 0 5c2,8 1,0 7,2z"/>
  <path class="fil42" d="M1899 627c-9,-8 -11,-10 -20,-16 8,11 7,10 20,16z"/>
  <path class="fil40" d="M226 496l7 -1 0 -8c-6,-2 -5,-3 -5,3l-2 6z"/>
  <path class="fil64" d="M224 394c12,-5 10,-4 17,-17l-17 17z"/>
  <path class="fil51" d="M2144 330c0,-9 2,-8 -5,-8l-8 -2 13 10z"/>
  <polygon class="fil53" points="2183,275 2171,265 2172,273 "/>
  <path class="fil26" d="M1771 1337l17 -14 -10 6c-12,5 -4,1 -7,8z"/>
  <path class="fil38" d="M1125 442l-12 -9c4,10 3,7 12,9z"/>
  <path class="fil60" d="M246 373l8 -1 -1 -4c2,-11 -4,-4 5,-9l-12 14z"/>
  <path class="fil51" d="M1237 551l-7 -8 1 6c1,9 0,0 6,2z"/>
  <polygon class="fil26" points="219,405 225,401 224,394 "/>
  <path class="fil28" d="M1339 689l-5 -10c-1,9 -1,8 5,10z"/>
  <path class="fil18" d="M1245 562c-3,-11 1,-6 -8,-11l8 11z"/>
  <path class="fil49" d="M1188 1207c-1,0 -2,-3 -2,-2 0,1 -2,-2 -2,-2 -7,-4 0,-2 -10,-5l14 9z"/>
  <polygon class="fil46" points="2466,592 2458,579 "/>
  <polygon class="fil83" points="1103,426 1090,418 "/>
 </g>
</svg>
