<?xml version="1.0" encoding="UTF-8"?>
<!DOCTYPE svg PUBLIC "-//W3C//DTD SVG 1.1//EN" "http://www.w3.org/Graphics/SVG/1.1/DTD/svg11.dtd">
<!-- Creator: CorelDRAW X7 -->
<svg xmlns="http://www.w3.org/2000/svg" xml:space="preserve" width="92.7392mm" height="30.0281mm" version="1.1" style="shape-rendering:geometricPrecision; text-rendering:geometricPrecision; image-rendering:optimizeQuality; fill-rule:evenodd; clip-rule:evenodd"
viewBox="0 0 7519 2434"
 xmlns:xlink="http://www.w3.org/1999/xlink">
 <defs>
  <style type="text/css">
   <![CDATA[
    .fil0 {fill:#FEFEFE;fill-rule:nonzero}
   ]]>
  </style>
 </defs>
 <g id="Слой_x0020_1">
  <metadata id="CorelCorpID_0Corel-Layer"/>
  <g id="_776994144">
   <path class="fil0" d="M704 228l189 0 0 -188 89 0 0 188 190 0 0 90 -190 0 0 188 -89 0 0 -188 -189 0 0 -90zm673 275l3 0c20,0 45,-16 75,-47 38,-39 57,-77 57,-114 0,-38 -21,-61 -61,-69 -15,-3 -22,-8 -22,-17 0,-5 7,-13 20,-25 43,-37 64,-77 64,-120 0,-23 -4,-34 -14,-34 -16,0 -36,21 -59,63 -11,19 -18,37 -23,55 -3,10 -7,15 -13,15 -8,0 -18,-7 -30,-19 -17,-19 -25,-37 -25,-56 0,-24 10,-47 31,-69 17,-19 38,-35 63,-46 28,-13 56,-20 86,-20 50,0 87,17 110,52 11,16 16,35 16,55 0,37 -16,67 -48,89 -16,12 -36,23 -62,33l0 2c79,4 118,35 118,91 0,26 -11,56 -34,90 -11,16 -24,33 -40,49 -71,75 -145,113 -222,113 -35,0 -63,-11 -87,-32 -23,-22 -34,-50 -34,-84 0,-24 8,-48 26,-72 15,-21 34,-38 57,-52 24,-14 49,-21 74,-21 10,0 15,4 15,11 0,3 -4,9 -13,16l-2 2c-13,13 -22,29 -29,51 -6,18 -9,38 -9,58 0,20 4,38 12,52zm434 -186l32 -22c-56,-50 -84,-97 -84,-142 0,-39 17,-74 51,-103 35,-29 76,-44 123,-44 36,0 54,6 54,18 0,3 -5,6 -13,7 -17,3 -31,11 -42,26 -20,28 -30,56 -30,85 0,29 11,52 34,68 34,-35 51,-69 51,-103 0,-15 -5,-28 -13,-37 -2,-3 -4,-5 -4,-6 0,-4 5,-9 15,-16 15,-10 30,-14 46,-14 23,0 39,9 49,29 5,9 7,20 7,32 0,30 -11,59 -34,88 -14,18 -37,40 -69,67 44,43 66,85 66,126 0,47 -22,90 -68,130 -45,40 -94,59 -145,59 -37,0 -67,-8 -91,-26 -28,-19 -42,-46 -42,-81 0,-30 11,-58 34,-83 13,-14 37,-34 73,-58zm80 15c-37,32 -56,74 -56,125 0,39 9,59 26,59 7,0 15,-4 22,-11 11,-11 22,-26 31,-45 10,-21 14,-38 14,-53 0,-36 -12,-61 -37,-75zm790 -314l4 0c33,0 59,25 77,75 8,23 12,47 12,72 0,54 -13,112 -40,175 -26,62 -59,112 -98,151 -44,44 -88,66 -133,66 -63,0 -108,-29 -134,-88 -13,-28 -19,-60 -19,-96 0,-61 12,-119 37,-176 26,-58 61,-106 106,-143 43,-35 87,-53 132,-53 23,0 41,6 56,17zm-38 20l8 -5 -2 -1c-36,0 -71,32 -105,95 -35,63 -52,128 -52,195 0,49 15,92 43,129 12,16 23,24 34,24 19,0 36,-22 53,-66 17,-45 29,-88 35,-131 3,-22 5,-41 5,-59 0,-26 -4,-50 -12,-75 -9,-28 -21,-49 -38,-63 -2,-2 -4,-4 -4,-6 0,-6 12,-19 35,-37zm381 235c23,-55 35,-107 35,-156 0,-47 -12,-70 -37,-70 -10,0 -22,7 -36,21 -31,33 -47,71 -47,113 0,24 8,45 24,61 16,17 37,27 61,31zm-9 23l0 2 -2 -2c-42,28 -79,42 -110,42 -31,0 -56,-11 -74,-33 -17,-20 -26,-46 -26,-77 0,-39 12,-76 37,-112 22,-32 51,-59 87,-80 37,-22 74,-33 111,-33 41,0 76,15 106,44 33,34 50,80 50,138 0,86 -38,170 -114,252 -33,35 -68,63 -107,85 -44,25 -88,37 -129,37 -16,0 -25,-4 -25,-13 0,-6 6,-11 18,-17 47,-20 91,-64 131,-132 19,-32 35,-65 47,-101zm405 -177l-31 55 2 2c37,-16 69,-24 98,-24 36,0 64,8 85,24 24,18 36,45 36,80 0,33 -10,68 -28,106 -18,37 -45,73 -79,108 -59,59 -111,89 -157,89 -34,0 -63,-12 -87,-36 -21,-21 -31,-50 -31,-88 0,-72 31,-124 93,-154 19,-9 36,-14 50,-14 15,0 23,4 23,13l0 1c-20,23 -35,49 -46,76 -11,28 -16,61 -16,98 0,28 5,43 17,43 15,0 31,-9 48,-27 17,-17 33,-40 47,-68 15,-31 23,-57 23,-80 0,-55 -25,-83 -74,-83 -13,0 -32,3 -59,8 -11,2 -18,3 -21,3 -19,0 -29,-9 -29,-29 0,-6 4,-21 12,-45 13,-43 26,-78 37,-105l3 -6c1,-2 4,-7 7,-15 8,-19 14,-30 19,-35 7,-7 19,-10 37,-10 46,0 86,1 119,2 4,0 9,0 16,1l5 0c18,0 32,1 43,5 7,2 11,6 11,12 0,11 -11,27 -32,49 -34,32 -66,49 -98,49 -7,0 -18,-1 -33,-3 -5,-1 -7,-2 -8,-2l-2 0zm674 154c23,-55 34,-107 34,-156 0,-47 -12,-70 -36,-70 -11,0 -23,7 -36,21 -32,33 -48,71 -48,113 0,24 8,45 24,61 17,17 37,27 62,31zm-9 23l0 2 -2 -2c-43,28 -80,42 -111,42 -31,0 -55,-11 -73,-33 -18,-20 -27,-46 -27,-77 0,-39 13,-76 37,-112 23,-32 52,-59 87,-80 37,-22 74,-33 111,-33 41,0 77,15 106,44 34,34 51,80 51,138 0,86 -38,170 -115,252 -32,35 -67,63 -106,85 -45,25 -88,37 -129,37 -17,0 -25,-4 -25,-13 0,-6 6,-11 18,-17 47,-20 91,-64 131,-132 19,-32 35,-65 47,-101zm332 -119l8 -21c-4,1 -10,4 -20,8 -19,8 -31,12 -37,12 -11,0 -17,-10 -17,-29 0,-22 6,-38 17,-47 12,-9 44,-25 96,-48l12 -5c1,0 5,-2 13,-6 38,-18 61,-27 71,-27 19,0 29,10 29,30 0,21 -10,58 -29,111 -5,14 -13,36 -22,64 -2,3 -3,9 -5,16 -10,32 -17,56 -21,74 -1,3 -3,9 -6,19l-7 25c-1,4 -3,9 -5,16 -19,72 -34,118 -46,137 -9,13 -24,26 -46,39 -16,9 -34,14 -52,14 -13,0 -25,-4 -37,-11 -13,-9 -19,-19 -19,-31 0,-3 0,-7 2,-10 40,-120 80,-231 121,-330zm321 0l9 -21c-4,1 -10,4 -20,8 -19,8 -31,12 -37,12 -11,0 -17,-10 -17,-29 0,-22 6,-38 17,-47 12,-9 44,-25 96,-48l12 -5c0,0 5,-2 12,-6 38,-18 62,-27 72,-27 19,0 29,10 29,30 0,21 -10,58 -29,111 -5,14 -13,36 -23,64 -1,3 -2,9 -4,16 -10,32 -17,56 -22,74 0,3 -2,9 -5,19l-7 25c-1,4 -3,9 -5,16 -19,72 -35,118 -47,137 -8,13 -23,26 -45,39 -17,9 -34,14 -53,14 -12,0 -25,-4 -36,-11 -13,-9 -19,-19 -19,-31 0,-3 0,-7 1,-10 40,-120 81,-231 121,-330zm604 178l-28 1 -76 4c-34,0 -54,-4 -59,-12 -4,-5 -5,-11 -5,-20 0,-13 9,-44 29,-94 8,-18 15,-37 22,-55 8,-22 22,-54 42,-96 2,-3 4,-7 8,-12 8,-14 19,-26 33,-35 31,-20 59,-30 85,-30 21,0 32,5 32,15 0,14 -27,59 -80,134 -26,37 -49,72 -68,103l98 -5c14,-46 38,-76 72,-90 17,-8 38,-11 61,-11 22,0 33,6 33,17 0,13 -8,39 -23,77l-4 9 18 -2c6,0 10,-1 13,-1 6,0 10,2 10,5 0,1 -1,2 -1,3 -11,23 -26,45 -46,67 -7,7 -14,12 -23,14 -10,33 -21,71 -34,116 -1,1 -1,5 -2,10l-1 6c-1,1 -1,2 -1,3 -4,23 -9,38 -16,44 -43,26 -79,39 -107,39 -10,0 -19,-3 -28,-7 -11,-6 -16,-13 -16,-21 0,-17 11,-54 34,-111 11,-27 21,-49 28,-65zm378 148l2 0c20,0 46,-16 75,-47 38,-39 57,-77 57,-114 0,-38 -20,-61 -61,-69 -14,-3 -21,-8 -21,-17 0,-5 6,-13 20,-25 42,-37 64,-77 64,-120 0,-23 -5,-34 -14,-34 -17,0 -37,21 -60,63 -10,19 -18,37 -23,55 -3,10 -7,15 -12,15 -8,0 -18,-7 -30,-19 -17,-19 -26,-37 -26,-56 0,-24 10,-47 31,-69 17,-19 38,-35 63,-46 28,-13 57,-20 86,-20 51,0 87,17 111,52 11,16 16,35 16,55 0,37 -16,67 -48,89 -16,12 -37,23 -62,33l0 2c78,4 118,35 118,91 0,26 -11,56 -34,90 -12,16 -25,33 -40,49 -71,75 -146,113 -223,113 -34,0 -63,-11 -86,-32 -23,-22 -35,-50 -35,-84 0,-24 9,-48 26,-72 15,-21 34,-38 57,-52 25,-14 50,-21 74,-21 10,0 16,4 16,11 0,3 -5,9 -13,16l-3 2c-12,13 -22,29 -28,51 -6,18 -10,38 -10,58 0,20 4,38 13,52zm542 -230c23,-55 35,-107 35,-156 0,-47 -12,-70 -36,-70 -11,0 -23,7 -37,21 -31,33 -47,71 -47,113 0,24 8,45 24,61 16,17 37,27 61,31zm-9 23l0 2 -2 -2c-42,28 -79,42 -110,42 -31,0 -56,-11 -74,-33 -17,-20 -26,-46 -26,-77 0,-39 12,-76 37,-112 22,-32 52,-59 87,-80 37,-22 74,-33 111,-33 41,0 76,15 106,44 33,34 50,80 50,138 0,86 -38,170 -114,252 -32,35 -68,63 -107,85 -44,25 -88,37 -129,37 -16,0 -25,-4 -25,-13 0,-6 6,-11 18,-17 48,-20 91,-64 131,-132 19,-32 35,-65 47,-101zm405 -177l-31 55 2 2c37,-16 70,-24 98,-24 36,0 64,8 85,24 24,18 36,45 36,80 0,33 -9,68 -28,106 -18,37 -45,73 -79,108 -58,59 -111,89 -157,89 -34,0 -63,-12 -87,-36 -21,-21 -31,-50 -31,-88 0,-72 31,-124 93,-154 19,-9 36,-14 50,-14 15,0 23,4 23,13l0 1c-20,23 -35,49 -46,76 -11,28 -16,61 -16,98 0,28 5,43 17,43 15,0 31,-9 48,-27 17,-17 33,-40 47,-68 16,-31 23,-57 23,-80 0,-55 -25,-83 -74,-83 -13,0 -32,3 -59,8 -11,2 -18,3 -21,3 -19,0 -29,-9 -29,-29 0,-6 4,-21 12,-45 13,-43 26,-78 37,-105l3 -6c1,-2 4,-7 7,-15 8,-19 14,-30 19,-35 7,-7 19,-10 37,-10 46,0 86,1 119,2 4,0 9,0 16,1l5 0c18,0 32,1 43,5 8,2 11,6 11,12 0,11 -10,27 -32,49 -34,32 -66,49 -98,49 -7,0 -18,-1 -33,-3 -5,-1 -7,-2 -7,-2l-3 0zm-4219 1154l15 -31c25,-54 48,-89 67,-103 9,-7 20,-11 30,-11 29,0 52,40 68,120 9,41 13,77 13,108 0,45 -11,75 -34,87 -11,7 -26,11 -45,11 -17,0 -27,-9 -30,-26 -1,-10 -2,-26 -2,-46 0,-37 -2,-73 -6,-106 0,-2 -1,-11 -3,-27l-2 0c-2,4 -3,6 -4,8l-2 6c-14,31 -29,66 -44,107 -15,40 -25,65 -31,74 -2,2 -4,4 -6,7 -11,8 -27,12 -47,12 -19,0 -31,-9 -35,-26 -2,-11 -3,-26 -3,-46 -1,-40 -7,-91 -19,-153 -2,-9 -5,-24 -10,-46l-2 0c-5,14 -8,26 -10,35 -7,29 -10,70 -10,124l0 15c0,30 -7,52 -20,65 -18,18 -36,28 -55,28 -17,0 -26,-16 -26,-48 0,-37 8,-83 23,-138 14,-48 31,-91 53,-131 14,-25 27,-41 41,-47 7,-4 15,-5 24,-5 43,0 74,35 95,105 6,21 10,39 13,55 1,6 1,14 2,23l2 0zm255 181c-20,0 -30,-7 -30,-21 0,-11 3,-25 10,-40 7,-16 13,-26 19,-31 17,-15 39,-22 64,-22 14,0 21,8 21,24 0,15 -5,33 -13,56 -5,11 -12,18 -23,23 -20,7 -35,11 -48,11zm432 -38c0,17 -1,28 -2,31 -3,14 -24,21 -62,21 -25,0 -43,-12 -56,-36 -10,-19 -15,-42 -15,-70 0,-27 5,-59 14,-99 -28,28 -49,46 -63,56 -27,18 -53,27 -79,27 -26,0 -47,-10 -62,-29 -13,-17 -20,-39 -20,-67 0,-43 11,-90 33,-139 31,-70 56,-110 74,-119 11,-6 28,-8 52,-8 16,0 27,1 33,3 11,4 17,12 17,24 0,6 -11,31 -32,74 -21,44 -32,78 -32,101 0,14 8,21 24,21 21,0 44,-12 67,-36 9,-10 27,-33 55,-70 20,-28 36,-45 48,-50 8,-4 18,-6 27,-6 29,0 43,9 43,28 0,5 -3,16 -8,31 -12,35 -20,59 -24,71 -9,30 -15,57 -20,82 -8,48 -12,101 -12,159zm169 -68c10,-7 18,-14 24,-21 11,-14 20,-31 28,-51 6,-15 10,-29 12,-41 3,-16 4,-30 4,-43 0,-13 -2,-19 -7,-19 -8,0 -19,16 -34,48 -20,42 -30,78 -30,107 0,4 1,11 3,20zm1 11c2,14 11,20 26,20 17,0 39,-10 66,-30 16,-11 27,-17 32,-17 6,0 11,2 17,5 8,3 11,7 11,12 0,4 -3,9 -10,16 -40,40 -83,67 -130,81 -14,5 -27,7 -38,7 -28,0 -51,-8 -68,-24 -17,-16 -26,-37 -26,-65 0,-46 17,-93 50,-143 18,-26 40,-48 66,-66 31,-21 62,-32 92,-32 22,0 39,8 51,22 12,13 17,31 17,54 0,39 -19,77 -57,115 -33,32 -61,49 -84,49 -5,0 -10,-2 -15,-4zm297 17c6,18 18,28 36,28 27,0 47,-21 61,-63 6,-19 10,-39 10,-60 0,-41 -5,-62 -13,-62 -6,0 -21,20 -45,60 -20,33 -35,60 -44,82 -2,5 -4,11 -5,15zm26 -145l11 -20c7,-14 17,-29 28,-44 14,-19 29,-32 45,-39 8,-2 16,-4 25,-4 36,0 61,20 76,59 7,19 11,41 11,66 0,34 -8,68 -23,100 -16,34 -37,60 -63,81 -27,20 -54,31 -81,31 -30,0 -54,-16 -70,-46l-3 6 -2 8c-8,31 -20,66 -35,104 -8,22 -16,36 -22,41 -5,5 -11,7 -18,7 -27,0 -41,-24 -41,-72 0,-54 10,-119 31,-197 18,-67 37,-116 57,-146 10,-14 19,-23 27,-30 6,-3 13,-5 20,-5 21,0 32,11 32,33 0,8 -1,19 -2,32 -3,18 -4,29 -4,33l1 2zm433 -33c7,-10 16,-17 26,-23 10,-5 20,-7 30,-7 17,0 29,5 36,16 5,8 7,22 7,41 0,10 -1,24 -2,40 -3,24 -4,45 -4,64 0,23 1,42 3,55 1,4 3,13 8,29 2,6 2,10 2,14 0,3 -1,6 -4,8 -18,15 -37,23 -57,23 -27,0 -47,-17 -59,-50 -2,-5 -5,-17 -8,-36 -1,-10 -1,-18 -1,-25 0,-4 0,-8 0,-12 -27,7 -49,20 -65,38 -6,6 -12,15 -18,26 -7,13 -14,23 -19,30 -7,10 -13,18 -19,24 -8,8 -18,13 -28,13 -16,0 -28,-7 -37,-18 -8,-11 -12,-25 -12,-41 0,-21 5,-50 14,-89 8,-34 19,-69 33,-107 21,-53 46,-80 75,-80 24,0 36,15 36,46 0,11 -6,53 -19,124 14,-4 30,-10 48,-17 6,-6 11,-14 14,-23 2,-8 5,-17 7,-26 2,-8 6,-21 13,-37zm180 259c-10,0 -19,-4 -28,-14 -15,-16 -23,-40 -23,-70 0,-35 6,-75 19,-120 13,-49 30,-85 49,-109 8,-9 17,-13 30,-13 15,0 26,7 34,22 6,12 9,27 9,43 0,60 -15,133 -47,222 -6,17 -13,28 -22,34 -5,3 -12,5 -20,5l-1 0zm41 -341c-21,0 -32,-13 -32,-39 0,-12 3,-26 9,-43 6,-16 13,-28 21,-36 8,-8 18,-12 29,-12 22,0 33,12 33,36 0,34 -10,61 -31,80 -9,9 -18,14 -28,14l-1 0z"/>
   <path class="fil0" d="M4544 1309c-5,2 -9,3 -12,3 -18,0 -27,-11 -27,-31 0,-19 7,-42 20,-71 12,-27 25,-48 39,-62 11,-10 22,-15 35,-15 20,0 35,13 43,39 3,13 5,27 5,44 0,40 -8,79 -25,115 -17,38 -41,69 -72,92 -29,22 -61,33 -95,33 -45,0 -76,-21 -95,-61 -9,-19 -13,-42 -13,-68 0,-50 15,-109 45,-175 36,-81 77,-137 122,-168 19,-13 39,-20 59,-20 21,0 38,6 50,19 12,13 19,30 19,51 0,16 -7,33 -20,50 -11,15 -25,28 -41,37 -17,11 -34,16 -51,16 -8,0 -11,-2 -11,-6 0,-3 3,-9 9,-17 26,-33 39,-64 39,-94 0,-12 -2,-18 -5,-18 -6,0 -15,11 -27,33 -9,15 -15,29 -20,41 -37,96 -55,175 -55,238 0,16 2,31 7,47 7,20 17,31 30,31 28,0 44,-28 47,-83zm355 144c-20,-4 -30,-23 -30,-56 0,-7 0,-16 1,-27 2,-14 2,-21 2,-23l-5 5c-2,1 -10,7 -23,18 -29,22 -47,36 -54,41 -22,16 -41,28 -58,36 -11,6 -21,9 -28,9 -14,0 -24,-6 -31,-18 -6,-10 -9,-22 -9,-37 0,-57 15,-124 45,-201 15,-39 33,-63 55,-72 9,-3 18,-5 28,-5 14,0 26,5 34,14 9,8 13,20 13,35 0,10 -1,20 -5,31 0,1 -5,14 -16,40l-4 10c-20,47 -29,72 -29,75 0,5 2,7 5,7 7,0 20,-11 39,-33 10,-11 19,-22 29,-32l13 -13 11 -11c18,-20 37,-36 56,-49 14,-10 27,-15 36,-15 18,0 27,15 27,47 0,5 -1,17 -2,35 -2,15 -4,35 -8,62 -2,10 -2,19 -2,27 0,8 0,14 2,19 7,-3 16,-4 25,-4 4,0 7,0 11,0 32,4 48,25 48,64 0,3 0,7 0,11 -2,24 -9,47 -22,70 -19,31 -44,47 -76,47 -28,0 -49,-12 -62,-36 10,-8 20,-20 30,-38 10,-19 16,-35 16,-50 -18,13 -34,19 -47,19 -5,0 -10,-1 -15,-2zm242 4c-10,0 -19,-4 -28,-14 -15,-16 -23,-40 -23,-70 0,-35 6,-75 19,-120 13,-49 30,-85 49,-109 8,-9 17,-13 29,-13 16,0 27,7 35,22 6,12 9,27 9,43 0,60 -15,133 -47,222 -6,17 -13,28 -22,34 -5,3 -12,5 -20,5l-1 0zm41 -341c-22,0 -32,-13 -32,-39 0,-12 3,-26 9,-43 6,-16 13,-28 21,-36 8,-8 18,-12 29,-12 22,0 33,12 33,36 0,34 -10,61 -31,80 -9,9 -19,14 -28,14l-1 0zm101 398c-13,0 -20,-7 -20,-23 0,-16 6,-38 17,-64 10,-25 21,-45 33,-58 10,-12 26,-18 47,-18 21,0 31,6 31,18l0 2c-1,14 -6,29 -14,46 -10,22 -18,37 -23,45 -13,22 -28,37 -45,45 -9,5 -18,7 -26,7zm2127 625l-6 2c-14,5 -26,7 -35,7 -9,0 -14,-2 -14,-7 0,-1 2,-6 6,-12 13,-20 19,-38 19,-55 0,-7 -1,-14 -4,-22 -3,-11 -7,-16 -12,-16 -4,0 -10,3 -17,11 -46,49 -69,94 -69,135 0,10 2,19 6,27 5,11 12,16 21,16 16,0 48,-26 98,-77l9 -8 -2 -1zm-20 78l0 1 -1 -1c-41,48 -77,80 -107,96 -15,8 -28,12 -41,12 -26,0 -47,-9 -63,-26 -16,-17 -24,-38 -24,-64 0,-37 15,-77 46,-122 22,-33 51,-61 85,-84 38,-27 76,-40 111,-40 24,0 46,4 64,13 24,12 36,28 36,50 0,13 -5,27 -14,42 11,0 19,1 21,3 5,3 7,9 7,19 -1,1 -1,6 -2,14 -1,18 -2,39 -2,63 0,16 1,30 2,41 1,7 1,12 2,16 2,11 5,21 9,32 -27,26 -52,39 -77,39 -35,0 -53,-30 -53,-88 0,-7 1,-12 1,-16zm-7192 -46c-6,2 -10,3 -12,3 -18,0 -27,-11 -27,-31 0,-19 6,-42 19,-71 12,-27 26,-48 40,-62 10,-10 22,-15 34,-15 21,0 35,13 43,39 4,13 6,27 6,44 0,40 -9,79 -25,115 -17,38 -42,69 -72,92 -30,22 -62,33 -95,33 -45,0 -77,-20 -95,-61 -9,-19 -14,-42 -14,-68 0,-50 15,-109 45,-175 37,-81 78,-137 123,-168 19,-13 38,-20 58,-20 21,0 38,6 50,19 13,13 19,30 19,51 0,16 -7,33 -20,50 -11,15 -24,28 -40,37 -18,11 -35,16 -51,16 -8,0 -12,-2 -12,-6 0,-3 3,-9 10,-17 26,-33 38,-64 38,-94 0,-12 -1,-18 -5,-18 -6,0 -15,11 -27,33 -8,15 -15,29 -20,41 -36,96 -55,175 -55,238 0,16 3,31 8,47 6,20 16,31 29,31 28,0 44,-28 48,-83zm325 -88l5 -15c7,-24 16,-41 26,-52 18,-18 36,-26 54,-26 15,0 22,6 22,19 0,12 -7,37 -22,74 -14,35 -31,75 -53,118 -32,66 -67,117 -104,155 -32,33 -63,56 -93,69 -15,6 -28,9 -40,9 -11,0 -16,-4 -16,-13 0,-18 6,-35 18,-52 5,-8 13,-15 23,-22 12,-8 30,-18 52,-28 -23,-39 -41,-74 -54,-104 -18,-44 -27,-84 -27,-120 0,-54 14,-87 43,-98 14,-6 26,-8 36,-8 18,0 30,12 36,37 1,4 4,23 7,58 4,46 11,90 19,131 2,5 3,14 6,27l1 0c5,-11 12,-27 20,-48 4,-9 11,-29 24,-61 6,-16 12,-33 17,-50zm159 193l-5 10c-6,11 -10,18 -11,20 -5,6 -11,9 -19,9 -18,0 -28,-21 -28,-62 0,-23 4,-42 12,-58 17,-33 46,-76 87,-128 44,-55 77,-83 97,-83 17,0 31,11 42,34 5,11 10,30 16,57 11,46 16,89 16,129 0,62 -10,99 -29,111 -7,5 -15,7 -25,7 -23,0 -40,-7 -51,-19 -9,-9 -14,-27 -15,-55 -1,-16 -1,-38 -1,-66l0 -88 -2 0c-4,9 -7,16 -10,22 -8,15 -22,45 -42,91 -4,9 -12,27 -25,54l-7 15zm270 40c-21,0 -31,-7 -31,-21 0,-11 3,-25 10,-40 7,-16 13,-26 19,-31 17,-15 39,-22 64,-22 14,0 21,8 21,24 0,15 -4,33 -13,56 -5,11 -12,18 -23,23 -20,7 -35,11 -47,11zm271 -153l-7 22c-1,4 -3,11 -5,20 -13,43 -23,71 -31,84 -1,3 -4,7 -9,12 -14,14 -32,20 -53,20 -14,0 -27,-3 -37,-9 -13,-7 -19,-17 -19,-30 0,-20 10,-56 29,-107 -18,-3 -27,-11 -27,-22 0,-19 10,-38 29,-57 9,-9 17,-14 25,-17 1,-1 7,-22 19,-61 21,-67 38,-112 52,-136 4,-5 8,-11 14,-18 12,-11 27,-17 46,-17 23,0 40,7 50,22 4,7 6,15 6,25 0,12 -16,66 -48,162 -1,4 -3,9 -5,16l-1 2 125 -2 6 -22c12,-43 26,-84 42,-123 11,-28 22,-48 32,-59 13,-13 29,-20 49,-20 35,0 53,16 53,46 0,29 -15,81 -46,158 -4,10 -7,17 -8,20 1,0 3,0 5,0 26,0 40,8 40,24 0,11 -10,26 -29,46 -8,8 -14,14 -20,16 -4,2 -13,5 -25,7l-2 5c-1,3 -4,9 -7,19 -6,16 -15,39 -27,70 -7,16 -14,26 -23,33 -25,19 -49,29 -72,29 -23,0 -34,-10 -34,-30 0,-17 8,-51 25,-102 3,-6 5,-15 9,-25l-121 -1zm470 47c10,-7 18,-14 24,-21 11,-14 20,-31 27,-50 6,-16 10,-30 13,-42 3,-16 4,-30 4,-43 0,-13 -3,-19 -8,-19 -7,0 -18,16 -33,48 -20,43 -30,78 -30,107 0,4 1,11 3,20zm0 11c3,14 12,20 27,20 17,0 39,-10 66,-29 16,-12 27,-18 32,-18 5,0 11,2 17,5 7,3 11,7 11,12 0,4 -3,9 -10,16 -40,40 -84,67 -130,81 -14,5 -27,7 -39,7 -28,0 -50,-8 -67,-24 -17,-16 -26,-37 -26,-65 0,-46 17,-93 50,-143 18,-26 40,-48 65,-66 32,-21 63,-32 93,-32 22,0 39,8 51,22 11,14 17,31 17,54 0,39 -19,77 -57,115 -33,32 -61,49 -84,49 -5,0 -10,-2 -16,-4zm524 -327c0,9 -3,18 -8,29 -6,11 -13,18 -21,21 -6,-8 -18,-12 -33,-12 -8,0 -22,2 -44,6 -23,5 -35,9 -35,12 0,1 5,4 17,9 12,5 19,8 21,9 17,11 29,24 36,39 5,10 9,26 12,46 0,4 0,8 0,12 0,15 -3,33 -8,54 -13,47 -37,90 -71,130 -39,47 -81,70 -124,71 0,0 0,0 -1,0 -27,0 -49,-10 -66,-30 -16,-18 -24,-42 -24,-69 0,-48 20,-96 58,-146 40,-52 82,-78 124,-79 -36,-5 -59,-11 -69,-16 -22,-12 -32,-32 -32,-62 0,-31 22,-55 67,-73 35,-14 71,-21 108,-21 26,0 46,6 63,16 20,12 30,30 30,54zm-126 249l-2 -1c-1,1 -3,3 -5,4 -1,1 -5,2 -12,2 0,0 -1,0 -1,0 -8,0 -12,-3 -13,-7 0,-1 3,-8 8,-22 6,-15 8,-28 8,-42 0,-1 0,-2 0,-3 0,-8 -1,-14 -2,-17 -2,-7 -6,-11 -13,-13 -2,0 -3,-1 -5,-1 -7,0 -15,4 -22,11 -29,26 -43,61 -43,107 0,42 13,64 37,64 3,0 6,-1 9,-2 11,-3 23,-13 35,-31 12,-18 19,-34 21,-49zm205 67c10,-7 18,-14 24,-21 11,-14 20,-31 28,-50 6,-16 10,-30 12,-42 3,-16 4,-30 4,-43 0,-13 -2,-19 -7,-19 -8,0 -19,16 -34,48 -20,43 -30,78 -30,107 0,4 1,11 3,20zm1 11c2,14 11,20 26,20 17,0 39,-10 66,-29 16,-12 27,-18 32,-18 6,0 11,2 17,5 8,3 11,7 11,12 0,4 -3,9 -10,16 -40,40 -83,67 -130,81 -14,5 -27,7 -38,7 -28,0 -51,-8 -68,-24 -17,-16 -26,-37 -26,-65 0,-46 17,-93 50,-143 18,-26 40,-48 66,-66 31,-21 62,-32 92,-32 22,0 39,8 51,22 12,14 17,31 17,54 0,39 -19,77 -57,115 -33,32 -61,49 -84,49 -5,0 -10,-2 -15,-4zm357 -233c16,0 30,5 41,15 10,9 15,22 15,37 0,30 -13,55 -41,75 -12,9 -24,14 -36,14 -7,0 -10,-3 -10,-8 0,-2 1,-6 4,-12 9,-15 13,-32 13,-51 0,-10 -1,-15 -3,-15 -9,0 -18,14 -29,41 -16,42 -24,77 -24,106 0,33 8,49 26,49 18,0 41,-14 68,-42 4,-6 9,-9 12,-9 6,0 8,3 8,9 0,28 -10,53 -32,76 -13,13 -29,25 -48,34 -20,10 -39,16 -56,16 -26,0 -49,-9 -66,-25 -19,-17 -28,-39 -28,-65 0,-53 22,-107 64,-162 20,-26 43,-47 68,-65 18,-12 35,-18 53,-18l1 0zm295 72c7,-10 15,-17 26,-23 9,-5 19,-7 29,-7 18,0 30,5 36,16 5,8 8,22 8,42 0,9 -1,23 -3,39 -3,24 -4,45 -4,64 0,23 1,42 3,55 1,4 4,13 8,29 2,6 3,10 3,14 0,3 -2,6 -4,8 -18,15 -37,23 -57,23 -28,0 -47,-17 -60,-50 -2,-5 -5,-17 -8,-36 -1,-10 -1,-18 -1,-25 0,-4 0,-8 0,-12 -27,7 -49,20 -65,38 -6,6 -12,15 -18,26 -7,13 -13,23 -19,30 -7,10 -13,18 -18,24 -9,8 -18,13 -29,13 -15,0 -28,-6 -37,-18 -8,-11 -12,-25 -12,-41 0,-21 5,-50 14,-89 8,-34 20,-69 34,-107 20,-53 45,-80 75,-80 23,0 35,15 35,46 0,11 -6,53 -19,124 14,-4 30,-10 48,-17 6,-6 11,-14 14,-23 2,-8 5,-17 8,-26 1,-8 5,-21 13,-37zm346 -86c33,0 50,4 50,12 0,9 -7,14 -23,15 -36,2 -67,20 -93,54 -26,34 -40,73 -40,118 0,22 5,40 15,56 11,17 27,26 48,26 20,0 36,-10 48,-30 11,-18 17,-38 17,-58 0,-41 -16,-73 -47,-97 -7,-5 -10,-9 -10,-12 0,-9 16,-20 49,-32 12,-5 23,-7 32,-7 21,0 39,10 53,31 15,20 22,45 22,75 0,23 -4,46 -12,69 -9,24 -22,44 -37,59 -19,18 -41,33 -67,45 -28,12 -54,18 -78,18 -23,0 -45,-4 -67,-12 -25,-8 -44,-19 -59,-33 -18,-18 -27,-43 -27,-77 0,-54 24,-104 72,-151 47,-46 99,-69 154,-69zm197 345c-9,0 -19,-4 -27,-14 -16,-16 -23,-40 -23,-70 0,-35 6,-75 18,-120 14,-49 30,-86 50,-109 7,-9 17,-14 29,-14 15,0 27,8 34,23 7,12 10,26 10,43 0,59 -16,133 -47,222 -7,17 -14,28 -22,34 -6,3 -13,5 -21,5l-1 0zm174 -433c0,8 -5,22 -16,40 -10,18 -23,27 -37,27 -25,0 -37,-10 -37,-28 0,-18 6,-32 17,-44 8,-7 22,-11 45,-11 19,0 28,5 28,16zm-97 -14c0,18 -8,34 -24,47 -15,14 -32,21 -50,21 -17,0 -25,-6 -25,-19 0,-7 2,-16 7,-27 5,-12 10,-21 15,-25 11,-10 30,-15 57,-15 13,0 20,6 20,18zm486 198c8,-20 16,-46 23,-77 6,-28 9,-51 9,-69 0,-12 -3,-18 -9,-18 -5,0 -15,6 -28,20 -43,45 -73,100 -92,165 -9,30 -13,60 -13,88 0,20 1,33 4,40 5,13 15,20 31,20 12,0 27,-4 44,-10 37,-15 79,-37 125,-67 19,-13 31,-19 37,-19 7,0 11,4 11,11l0 1c-1,11 -5,22 -11,35 -11,24 -21,41 -30,49 -31,27 -77,50 -137,68 -27,8 -49,12 -67,12 -41,0 -77,-14 -106,-44 -29,-29 -43,-64 -43,-105 0,-31 9,-68 29,-108 14,-30 32,-59 54,-86 16,-20 34,-38 55,-54 10,-8 20,-15 30,-22 33,-22 65,-37 96,-45 15,-4 28,-6 40,-6 29,0 51,7 68,22 18,15 27,37 27,65 0,30 -8,61 -23,93 -13,29 -32,55 -54,78 -35,36 -66,54 -91,54 -11,0 -17,-6 -17,-16 0,-4 6,-16 17,-36 13,-24 20,-37 21,-39zm390 -96c34,0 51,4 51,12 0,9 -8,14 -23,15 -36,2 -68,20 -94,54 -26,34 -39,73 -39,118 0,22 5,40 14,56 12,17 28,26 49,26 19,0 35,-10 48,-30 11,-18 16,-38 16,-58 0,-41 -15,-73 -47,-97 -6,-5 -10,-9 -10,-12 0,-9 17,-20 49,-32 13,-5 24,-7 33,-7 21,0 39,10 53,31 15,20 22,45 22,75 0,23 -4,46 -13,69 -9,24 -21,44 -36,59 -19,18 -41,33 -68,45 -27,12 -53,18 -78,18 -22,0 -44,-4 -67,-12 -24,-8 -44,-19 -58,-33 -18,-18 -27,-43 -27,-77 0,-54 24,-104 72,-151 47,-46 98,-69 153,-69z"/>
   <path class="fil0" d="M4957 2193l-93 95c-20,21 -38,31 -53,31 -14,0 -26,-5 -35,-16 -9,-10 -14,-23 -14,-37 0,-16 7,-43 21,-80 2,-4 5,-11 8,-20l-1 -1c-21,21 -42,46 -65,73 -13,16 -25,29 -33,37 -14,15 -26,26 -37,33 -8,5 -16,8 -22,8 -17,0 -29,-7 -38,-21 -7,-12 -10,-26 -10,-44 0,-25 11,-66 32,-121 20,-51 35,-84 45,-100 16,-24 34,-36 54,-36 11,0 20,3 28,8 10,6 15,14 15,24 0,16 -9,46 -25,91 -3,11 -7,21 -10,30l1 2c10,-11 23,-27 41,-48 31,-38 55,-65 72,-81 21,-19 41,-29 58,-29 16,0 29,9 39,28 4,9 6,19 6,28 0,10 -7,35 -21,75 -3,7 -6,18 -11,32l1 1 9 -8c2,-3 5,-6 8,-8l9 -8c13,-13 29,-29 46,-47 19,-20 32,-32 38,-37 10,-7 18,-10 27,-10 29,0 43,19 43,57 0,8 -2,26 -5,55 -6,44 -9,77 -9,99 0,13 2,27 4,42 3,13 6,32 11,57 -2,9 -9,16 -21,22 -9,5 -19,7 -30,7 -19,0 -36,-8 -52,-25 -14,-14 -22,-31 -25,-51 -2,-11 -3,-25 -3,-43 0,-11 1,-35 4,-71l-1 -2 -6 9zm379 -133c7,-10 16,-17 26,-23 10,-5 19,-7 29,-7 18,0 30,5 37,16 4,8 7,22 7,42 0,9 -1,23 -3,39 -2,24 -4,45 -4,64 0,23 1,42 4,55 0,4 3,13 8,29 1,6 2,10 2,14 0,3 -1,6 -4,8 -18,15 -37,23 -57,23 -27,0 -47,-17 -59,-50 -3,-5 -5,-17 -9,-36 0,-10 -1,-18 -1,-25 0,-4 1,-8 1,-12 -28,7 -49,20 -66,38 -6,6 -12,15 -18,26 -7,13 -13,23 -18,30 -8,10 -14,18 -19,24 -8,8 -18,13 -28,13 -16,0 -28,-6 -37,-18 -8,-11 -12,-25 -12,-41 0,-21 4,-50 14,-89 8,-34 19,-69 33,-107 21,-53 46,-80 75,-80 24,0 35,15 35,46 0,11 -6,53 -18,124 14,-4 30,-10 48,-17 6,-6 10,-14 13,-23 3,-8 5,-17 8,-26 1,-8 6,-21 13,-37zm180 259c-10,0 -19,-4 -28,-14 -16,-16 -23,-39 -23,-70 0,-35 6,-75 18,-120 14,-49 30,-85 50,-109 7,-9 17,-13 29,-13 15,0 27,7 34,22 7,12 10,27 10,43 0,60 -16,133 -47,222 -6,17 -14,28 -22,34 -5,3 -12,5 -21,5l0 0zm40 -341c-21,0 -31,-13 -31,-39 0,-12 3,-26 9,-43 6,-16 13,-28 21,-36 8,-8 17,-12 29,-12 21,0 32,12 32,36 0,34 -10,61 -30,80 -9,9 -19,14 -29,14l-1 0zm102 398c-13,0 -20,-7 -20,-23 0,-16 5,-38 16,-64 11,-25 22,-45 34,-58 10,-12 25,-18 47,-18 20,0 31,6 31,18l0 2c-2,14 -6,29 -14,46 -10,22 -18,37 -23,45 -13,22 -28,37 -45,45 -10,5 -18,7 -26,7zm354 -368l7 -17c-3,1 -8,3 -16,6 -15,7 -25,10 -30,10 -9,0 -14,-8 -14,-24 0,-17 5,-30 14,-37 10,-8 35,-21 78,-39l10 -4c0,-1 3,-2 10,-5 31,-15 50,-22 57,-22 16,0 24,8 24,24 0,17 -8,47 -24,90 -4,12 -10,29 -18,52 0,3 -2,7 -3,13 -8,26 -14,45 -18,60 0,2 -2,7 -4,16l-6 20c-1,2 -2,7 -4,12 -15,59 -28,96 -38,112 -6,10 -18,20 -37,31 -13,7 -27,11 -42,11 -10,0 -20,-3 -29,-9 -11,-7 -16,-15 -16,-25 0,-2 0,-5 1,-8 33,-97 65,-187 98,-267zm340 78c19,-45 28,-87 28,-127 0,-38 -9,-56 -29,-56 -9,0 -18,5 -29,17 -26,27 -39,57 -39,91 0,20 7,36 20,50 13,13 29,22 49,25zm-7 18l0 2 -1 -2c-35,23 -65,35 -90,35 -25,0 -45,-9 -60,-27 -14,-17 -21,-38 -21,-63 0,-31 10,-61 30,-90 18,-27 42,-49 71,-66 29,-17 59,-26 89,-26 34,0 62,12 86,36 27,27 41,64 41,112 0,69 -31,137 -93,203 -26,29 -54,52 -86,69 -36,21 -71,31 -105,31 -13,0 -20,-4 -20,-11 0,-5 5,-9 15,-14 38,-16 74,-52 106,-107 16,-25 28,-53 38,-82zm584 -179l-44 148c3,1 6,1 9,1 12,0 26,-5 41,-16 42,-30 63,-60 63,-91 0,-31 -16,-46 -49,-46 -9,0 -15,1 -20,4zm-51 174c-1,5 -3,12 -5,20 -20,66 -39,114 -58,145 -6,10 -14,20 -24,30 43,14 75,20 93,20 26,0 47,-8 65,-25 30,-29 45,-62 45,-99 0,-19 -7,-35 -20,-48 -10,-10 -28,-18 -53,-23 -20,-3 -34,-10 -43,-20zm-148 45l40 -122c6,-19 15,-41 28,-65 -1,1 -4,2 -8,4 -16,6 -27,10 -33,10 -10,0 -14,-4 -14,-11 0,-8 4,-19 11,-34 8,-14 15,-24 21,-30 35,-33 99,-49 190,-49 51,0 92,9 121,26 29,17 44,41 44,70 0,40 -18,74 -53,101 -21,15 -40,25 -59,30 -3,1 -6,2 -10,2l0 2c79,10 119,43 119,98 0,23 -8,47 -22,70 -7,11 -16,22 -26,32 -29,28 -66,55 -111,79 -52,27 -95,40 -131,40 -39,0 -69,-7 -91,-22 -10,-7 -14,-14 -14,-22 0,-12 9,-26 28,-42l-2 -1c-6,2 -12,3 -18,3 -28,0 -42,-14 -42,-40 0,-21 11,-64 32,-129z"/>
  </g>
 </g>
</svg>
