<?xml version="1.0" encoding="UTF-8"?>
<!DOCTYPE svg PUBLIC "-//W3C//DTD SVG 1.1//EN" "http://www.w3.org/Graphics/SVG/1.1/DTD/svg11.dtd">
<!-- Creator: CorelDRAW X7 -->
<svg xmlns="http://www.w3.org/2000/svg" xml:space="preserve" width="87.9412mm" height="29.2652mm" version="1.1" style="shape-rendering:geometricPrecision; text-rendering:geometricPrecision; image-rendering:optimizeQuality; fill-rule:evenodd; clip-rule:evenodd"
viewBox="0 0 6376 2122"
 xmlns:xlink="http://www.w3.org/1999/xlink">
 <defs>
  <style type="text/css">
   <![CDATA[
    .fil0 {fill:#FEFEFE;fill-rule:nonzero}
   ]]>
  </style>
 </defs>
 <g id="Слой_x0020_1">
  <metadata id="CorelCorpID_0Corel-Layer"/>
  <path class="fil0" d="M2181 1084l13 -28c23,-48 43,-80 60,-92 8,-7 18,-10 27,-10 26,0 47,36 61,107 8,37 12,69 12,97 0,40 -10,67 -31,78 -10,6 -23,9 -40,9 -15,0 -24,-8 -27,-23 -1,-9 -2,-23 -2,-41 0,-33 -1,-65 -5,-95 0,-2 -1,-10 -3,-24l-2 0c-1,4 -2,5 -3,7l-2 6c-12,27 -26,59 -39,95 -14,36 -23,58 -28,66 -2,2 -4,4 -5,7 -10,7 -24,10 -42,10 -17,0 -28,-8 -32,-23 -1,-10 -2,-23 -2,-41 -1,-36 -7,-81 -17,-137 -2,-8 -5,-21 -9,-41l-2 0c-5,13 -7,23 -9,31 -6,26 -9,63 -9,111l0 14c0,27 -6,46 -18,58 -16,16 -32,25 -49,25 -15,0 -23,-14 -23,-43 0,-33 7,-74 20,-123 13,-43 28,-82 48,-118 12,-22 24,-36 36,-42 7,-3 14,-4 22,-4 38,0 66,31 85,94 5,19 9,35 11,49 1,5 1,13 2,21l2 0 0 0zm228 161c-18,0 -27,-6 -27,-18 0,-10 3,-23 9,-36 6,-14 12,-23 17,-28 15,-13 35,-20 57,-20 13,0 19,8 19,22 0,13 -4,29 -11,50 -5,10 -11,16 -21,21 -18,6 -31,9 -43,9zm386 -34c0,16 -1,25 -1,28 -3,13 -22,19 -56,19 -22,0 -38,-11 -50,-32 -9,-17 -13,-38 -13,-63 0,-24 4,-53 12,-88 -25,25 -44,41 -56,50 -24,16 -48,24 -71,24 -23,0 -42,-9 -55,-26 -12,-15 -18,-35 -18,-60 0,-38 10,-80 29,-124 28,-63 50,-99 67,-107 9,-5 25,-7 46,-7 14,0 24,1 30,3 9,3 15,11 15,21 0,6 -10,28 -29,66 -19,40 -29,70 -29,91 0,12 8,19 22,19 19,0 39,-11 60,-33 8,-9 24,-29 49,-62 18,-25 32,-40 43,-45 7,-4 16,-5 24,-5 26,0 39,8 39,25 0,4 -3,14 -8,27 -10,32 -17,53 -21,64 -8,27 -13,51 -18,73 -7,43 -11,91 -11,142zm151 -60c9,-7 17,-13 22,-19 10,-13 18,-28 25,-46 5,-13 9,-26 11,-36 2,-15 3,-27 3,-39 0,-11 -2,-17 -6,-17 -7,0 -17,14 -30,43 -18,38 -27,70 -27,96 0,3 1,10 2,18zm1 9c2,13 10,18 24,18 15,0 34,-9 59,-26 14,-10 24,-16 28,-16 6,0 10,2 15,5 8,2 10,6 10,11 0,3 -2,8 -9,14 -35,36 -74,60 -116,72 -12,5 -24,7 -34,7 -25,0 -45,-8 -61,-22 -15,-14 -23,-33 -23,-58 0,-41 15,-83 45,-128 16,-23 36,-43 59,-59 28,-19 55,-29 82,-29 20,0 35,8 46,20 10,12 15,28 15,48 0,35 -17,69 -51,103 -30,29 -55,44 -75,44 -5,0 -9,-2 -14,-4zm266 16c5,16 16,25 32,25 24,0 42,-19 55,-57 5,-17 9,-34 9,-53 0,-37 -5,-56 -12,-56 -5,0 -19,18 -40,54 -18,29 -32,54 -40,73 -1,5 -3,10 -4,14l0 0zm23 -130l10 -18c6,-12 15,-26 25,-39 13,-17 26,-29 40,-35 7,-2 15,-4 23,-4 32,0 54,18 68,53 6,17 9,37 9,59 0,31 -7,61 -20,90 -14,30 -33,53 -56,72 -25,18 -49,28 -73,28 -27,0 -48,-15 -62,-41l-3 5 -2 7c-7,28 -18,59 -31,93 -7,20 -15,32 -20,37 -4,4 -10,6 -16,6 -24,0 -37,-21 -37,-64 0,-49 9,-107 28,-177 16,-59 33,-103 51,-130 9,-13 17,-21 24,-27 6,-3 12,-4 18,-4 19,0 29,9 29,29 0,7 -1,17 -2,29 -3,16 -4,26 -4,29l1 2zm387 -29c7,-9 15,-16 24,-21 9,-5 18,-6 26,-6 16,0 26,4 33,14 4,7 6,20 6,37 0,9 -1,21 -2,35 -3,22 -3,41 -3,58 0,20 0,37 2,49 1,3 3,11 7,26 2,5 2,9 2,12 0,3 -1,6 -3,7 -16,14 -33,21 -51,21 -24,0 -42,-15 -53,-45 -2,-4 -5,-15 -7,-32 -1,-9 -1,-16 -1,-22 0,-4 0,-7 0,-11 -24,6 -44,18 -58,34 -6,5 -11,13 -16,23 -7,12 -13,21 -17,27 -7,9 -12,16 -17,22 -8,7 -16,11 -25,11 -15,0 -25,-6 -33,-16 -8,-10 -11,-22 -11,-37 0,-18 4,-44 12,-79 7,-31 17,-62 30,-96 19,-47 41,-71 67,-71 21,0 32,13 32,41 0,10 -5,47 -17,111 13,-4 27,-9 43,-16 5,-5 10,-12 13,-20 1,-7 4,-15 6,-23 2,-8 5,-19 11,-33l0 0zm161 231c-9,0 -17,-3 -25,-12 -13,-15 -20,-36 -20,-63 0,-31 5,-67 17,-107 11,-44 27,-76 44,-98 7,-8 15,-11 26,-11 14,0 24,6 31,19 5,11 8,24 8,39 0,53 -14,119 -42,198 -6,15 -12,25 -20,31 -4,2 -11,4 -18,4l-1 0zm37 -305c-19,0 -29,-11 -29,-35 0,-10 3,-23 8,-38 6,-14 12,-25 19,-32 7,-7 16,-11 26,-11 20,0 30,11 30,32 0,31 -9,55 -28,72 -8,8 -16,12 -25,12l-1 0 0 0z"/>
  <path class="fil0" d="M4063 1116c-4,2 -8,2 -10,2 -16,0 -25,-9 -25,-27 0,-17 7,-38 18,-64 11,-24 23,-43 35,-55 10,-9 20,-14 32,-14 17,0 31,12 38,35 3,12 4,24 4,40 0,35 -7,70 -22,102 -15,34 -37,62 -64,83 -26,19 -55,29 -85,29 -40,0 -68,-19 -85,-54 -8,-17 -12,-38 -12,-61 0,-45 14,-98 40,-157 33,-72 69,-122 110,-150 17,-11 34,-18 52,-18 19,0 34,6 45,17 11,12 17,27 17,46 0,14 -6,29 -18,45 -10,13 -22,25 -37,33 -15,9 -30,14 -45,14 -7,0 -10,-2 -10,-5 0,-3 3,-8 8,-16 23,-29 35,-57 35,-84 0,-10 -2,-16 -5,-16 -5,0 -13,10 -24,30 -8,13 -13,26 -18,36 -33,86 -49,157 -49,213 0,15 2,28 7,42 6,18 15,28 26,28 25,0 40,-25 42,-74l0 0zm318 129c-18,-4 -27,-21 -27,-51 0,-6 0,-14 1,-24 2,-12 2,-18 2,-20l-5 4c-2,1 -9,6 -20,16 -26,20 -42,33 -49,37 -19,14 -36,25 -52,32 -9,6 -18,8 -25,8 -12,0 -21,-5 -27,-16 -6,-9 -8,-20 -8,-33 0,-51 13,-111 40,-180 13,-35 29,-56 49,-64 8,-3 16,-5 25,-5 13,0 23,5 31,13 8,7 11,18 11,31 0,9 -1,18 -4,28 0,1 -5,13 -15,36l-3 9c-18,42 -26,64 -26,67 0,4 2,6 4,6 7,0 18,-10 35,-29 9,-10 17,-20 26,-29l12 -12 10 -10c16,-17 33,-32 50,-43 12,-9 24,-14 32,-14 16,0 24,14 24,42 0,5 -1,15 -2,32 -2,13 -3,31 -7,55 -2,9 -2,17 -2,24 0,7 0,13 2,17 6,-3 14,-3 22,-3 4,0 7,0 10,0 29,3 43,22 43,57 0,2 0,6 0,10 -2,21 -8,42 -19,62 -17,28 -40,42 -68,42 -25,0 -44,-11 -56,-32 9,-7 18,-18 27,-34 9,-17 14,-31 14,-45 -16,12 -30,17 -42,17 -4,0 -9,-1 -13,-1l0 0zm216 3c-9,0 -17,-3 -25,-12 -13,-15 -20,-36 -20,-63 0,-31 5,-67 17,-107 11,-44 26,-76 43,-98 8,-8 16,-11 26,-11 15,0 24,6 32,19 5,11 8,24 8,39 0,53 -14,119 -42,198 -6,15 -12,25 -20,31 -4,2 -11,4 -18,4l-1 0zm37 -305c-20,0 -29,-11 -29,-35 0,-10 3,-23 8,-38 6,-14 12,-25 19,-32 7,-7 16,-11 26,-11 20,0 30,11 30,32 0,31 -9,55 -28,72 -8,8 -17,12 -25,12l-1 0 0 0zm90 356c-11,0 -18,-6 -18,-20 0,-15 6,-34 16,-58 8,-22 18,-40 29,-52 9,-10 23,-16 42,-16 19,0 28,6 28,16l0 2c-1,13 -6,26 -13,41 -9,20 -16,33 -20,41 -12,19 -25,33 -41,40 -8,4 -16,6 -23,6l0 0zm-4547 588c-5,1 -9,2 -11,2 -16,0 -24,-10 -24,-27 0,-17 6,-38 17,-64 11,-24 23,-43 36,-55 9,-9 20,-14 30,-14 19,0 32,12 39,35 3,12 5,24 5,39 0,36 -8,71 -22,103 -15,34 -38,62 -65,83 -26,19 -55,29 -85,29 -40,0 -68,-18 -84,-55 -9,-17 -13,-37 -13,-60 0,-45 13,-98 40,-157 33,-72 70,-122 110,-150 17,-12 34,-18 52,-18 19,0 34,5 45,17 11,12 17,27 17,46 0,14 -6,29 -18,44 -10,14 -22,25 -36,33 -16,10 -31,15 -45,15 -8,0 -11,-2 -11,-6 0,-2 2,-8 9,-15 23,-29 34,-57 34,-84 0,-11 -1,-16 -5,-16 -5,0 -13,10 -24,30 -7,13 -13,25 -18,36 -32,86 -49,157 -49,213 0,14 3,28 7,42 6,18 14,28 26,28 25,0 39,-25 43,-74l0 0zm291 -79l4 -14c6,-21 14,-36 23,-46 16,-16 33,-23 49,-23 13,0 19,5 19,17 0,10 -6,33 -19,66 -13,31 -28,67 -48,105 -28,59 -60,105 -93,139 -28,30 -56,50 -83,62 -13,5 -25,8 -36,8 -9,0 -14,-4 -14,-12 0,-16 5,-31 16,-46 5,-8 12,-14 21,-20 10,-7 27,-16 46,-25 -20,-35 -36,-66 -48,-93 -16,-39 -24,-75 -24,-107 0,-49 12,-78 38,-88 13,-5 23,-7 32,-7 17,0 27,11 33,33 1,3 3,20 6,52 3,41 10,80 17,117 2,4 3,12 5,24l1 0c5,-10 11,-24 18,-43 4,-8 10,-26 21,-54 6,-15 11,-30 16,-45zm142 172l-5 9c-5,10 -9,17 -9,18 -5,6 -10,8 -17,8 -17,0 -25,-18 -25,-55 0,-21 3,-38 10,-52 15,-29 41,-68 78,-114 39,-50 69,-75 87,-75 15,0 28,10 37,31 5,10 9,27 15,51 9,41 14,79 14,115 0,56 -9,89 -26,99 -6,5 -13,7 -22,7 -21,0 -36,-7 -46,-17 -8,-8 -12,-25 -13,-50 -1,-14 -1,-34 -1,-59l0 -78 -2 0c-4,8 -6,14 -9,19 -7,14 -20,41 -38,82 -3,8 -10,24 -22,48l-6 13 0 0zm241 36c-18,0 -27,-6 -27,-19 0,-9 2,-22 9,-35 6,-15 11,-24 16,-28 16,-13 35,-20 58,-20 12,0 19,7 19,22 0,13 -4,29 -12,50 -5,10 -11,16 -21,20 -18,7 -31,10 -42,10l0 0zm243 -137l-7 20c-1,4 -2,10 -4,18 -12,38 -21,63 -28,75 -1,3 -3,6 -8,11 -12,12 -28,18 -47,18 -13,0 -24,-3 -33,-8 -12,-7 -17,-16 -17,-27 0,-18 9,-50 26,-96 -17,-3 -25,-10 -25,-19 0,-17 9,-34 26,-51 8,-9 16,-13 23,-16 1,-1 6,-19 17,-54 18,-60 34,-100 46,-122 4,-4 7,-10 13,-16 10,-10 24,-15 41,-15 20,0 36,6 45,20 3,6 5,13 5,22 0,11 -14,59 -43,145 -1,3 -3,8 -4,14l-1 2 111 -2 6 -20c11,-38 23,-75 37,-110 10,-25 20,-43 29,-52 12,-12 26,-18 44,-18 31,0 47,14 47,41 0,26 -13,72 -41,141 -4,9 -6,15 -7,18 1,0 3,0 4,0 24,0 36,7 36,22 0,9 -9,23 -26,41 -7,7 -12,12 -18,14 -3,2 -11,4 -22,6l-2 5c-1,2 -3,8 -6,17 -5,14 -13,35 -24,62 -6,15 -13,24 -21,30 -22,17 -44,26 -64,26 -21,0 -31,-9 -31,-27 0,-15 8,-46 23,-91 2,-6 4,-14 8,-23l-108 -1 0 0zm420 42c9,-6 16,-12 21,-18 10,-13 18,-28 25,-45 5,-14 8,-27 11,-38 3,-14 4,-26 4,-38 0,-12 -3,-17 -7,-17 -7,0 -17,14 -30,43 -18,38 -27,70 -27,96 0,3 1,9 3,17l0 0zm0 10c3,13 11,18 24,18 15,0 35,-9 59,-26 14,-10 24,-16 29,-16 4,0 10,2 15,5 6,2 10,6 10,10 0,4 -3,8 -9,15 -36,35 -75,60 -116,72 -13,5 -25,6 -35,6 -25,0 -45,-7 -60,-21 -15,-14 -23,-33 -23,-58 0,-41 15,-83 44,-128 16,-23 36,-43 58,-59 29,-19 57,-29 84,-29 19,0 34,7 45,20 10,12 15,28 15,48 0,35 -17,69 -51,103 -29,29 -54,44 -75,44 -4,0 -9,-2 -14,-4l0 0zm468 -292c0,8 -2,16 -7,26 -5,10 -11,16 -18,19 -6,-8 -17,-11 -30,-11 -7,0 -20,2 -39,5 -21,5 -32,8 -32,11 0,1 5,4 16,8 10,4 17,7 18,8 16,10 26,22 33,35 4,9 8,23 10,41 0,4 0,7 0,11 0,13 -2,29 -7,48 -11,42 -33,81 -63,116 -35,42 -73,63 -111,64 0,0 0,0 -1,0 -24,0 -44,-9 -59,-27 -14,-16 -22,-38 -22,-62 0,-43 18,-86 52,-130 36,-47 74,-70 111,-71 -32,-4 -53,-10 -62,-14 -19,-11 -28,-29 -28,-56 0,-27 20,-49 60,-65 31,-12 63,-19 96,-19 24,0 41,6 57,15 18,10 26,26 26,48l0 0zm-112 223l-2 -1c-1,1 -3,2 -4,3 -1,1 -5,2 -11,2 0,0 -1,0 -1,0 -7,0 -11,-3 -12,-6 0,-1 3,-7 7,-20 6,-13 8,-25 8,-37 0,-1 0,-2 0,-3 0,-7 -1,-13 -2,-15 -2,-7 -6,-10 -12,-12 -2,0 -2,-1 -4,-1 -7,0 -14,4 -20,10 -26,23 -38,55 -38,96 0,37 11,57 33,57 2,0 5,-1 8,-2 10,-3 20,-12 31,-28 11,-16 17,-30 19,-43l0 0zm183 59c9,-6 16,-12 22,-18 9,-13 17,-28 25,-45 5,-14 9,-27 10,-38 3,-14 4,-26 4,-38 0,-12 -2,-17 -6,-17 -7,0 -17,14 -31,43 -18,38 -27,70 -27,96 0,3 1,9 3,17zm1 10c2,13 10,18 23,18 15,0 35,-9 59,-26 15,-10 24,-16 29,-16 5,0 10,2 15,5 7,2 10,6 10,10 0,4 -3,8 -9,15 -36,35 -74,60 -116,72 -13,5 -24,6 -34,6 -25,0 -46,-7 -61,-21 -15,-14 -23,-33 -23,-58 0,-41 15,-83 44,-128 17,-23 36,-43 59,-59 28,-19 56,-29 83,-29 19,0 35,7 45,20 11,12 16,28 16,48 0,35 -17,69 -51,103 -30,29 -55,44 -76,44 -4,0 -8,-2 -13,-4zm319 -208c15,0 27,4 37,13 9,8 13,20 13,33 0,27 -11,50 -36,68 -11,8 -22,12 -33,12 -6,0 -8,-3 -8,-7 0,-2 0,-5 3,-11 8,-13 12,-28 12,-45 0,-9 -1,-14 -3,-14 -8,0 -16,13 -26,37 -14,37 -21,69 -21,95 0,29 7,43 23,43 16,0 37,-12 61,-37 3,-6 8,-8 10,-8 6,0 8,2 8,8 0,25 -9,47 -29,68 -12,11 -26,22 -43,30 -18,9 -35,15 -50,15 -23,0 -44,-9 -59,-23 -17,-15 -25,-35 -25,-58 0,-47 20,-96 57,-145 18,-23 39,-42 61,-58 16,-11 31,-16 47,-16l1 0 0 0zm264 64c6,-9 13,-15 23,-20 8,-5 17,-6 26,-6 16,0 27,4 32,14 5,7 8,19 8,37 0,8 -1,21 -3,35 -3,22 -4,40 -4,57 0,21 1,38 3,50 1,3 4,11 7,26 2,5 3,9 3,12 0,3 -2,5 -4,7 -16,14 -33,21 -51,21 -25,0 -42,-15 -53,-45 -2,-4 -5,-15 -7,-32 -1,-9 -1,-16 -1,-22 0,-4 0,-8 0,-11 -25,6 -44,18 -59,34 -5,5 -10,13 -16,23 -6,12 -11,21 -17,27 -6,9 -11,16 -16,21 -8,8 -16,12 -26,12 -13,0 -25,-5 -33,-16 -7,-10 -10,-22 -10,-37 0,-19 4,-44 12,-79 7,-31 18,-62 30,-96 18,-47 41,-72 68,-72 20,0 31,14 31,42 0,9 -6,47 -17,110 12,-3 27,-8 43,-15 5,-5 10,-12 12,-20 2,-7 5,-16 7,-24 1,-7 5,-18 12,-33l0 0zm309 -77c30,0 45,4 45,11 0,8 -6,13 -20,14 -33,1 -60,17 -84,48 -23,30 -35,65 -35,105 0,20 4,36 13,50 10,16 24,24 43,24 18,0 32,-9 43,-27 10,-16 15,-34 15,-52 0,-37 -14,-65 -42,-87 -6,-4 -9,-8 -9,-10 0,-9 14,-18 44,-29 11,-5 21,-6 29,-6 18,0 34,9 47,27 13,18 20,41 20,67 0,21 -4,42 -11,62 -8,22 -20,39 -33,53 -17,16 -37,29 -60,40 -25,11 -48,16 -70,16 -20,0 -40,-3 -60,-10 -22,-8 -39,-17 -52,-30 -17,-16 -25,-38 -25,-69 0,-48 22,-93 65,-135 42,-41 88,-62 137,-62l0 0zm177 309c-8,0 -17,-4 -25,-13 -14,-14 -20,-35 -20,-62 0,-31 5,-67 16,-107 13,-44 27,-77 45,-98 6,-8 15,-12 26,-12 13,0 24,7 30,20 6,11 9,23 9,39 0,52 -14,118 -42,198 -6,15 -13,25 -20,30 -5,3 -11,5 -18,5l-1 0 0 0zm155 -387c0,7 -4,19 -14,36 -9,16 -21,24 -33,24 -23,0 -33,-9 -33,-25 0,-16 5,-29 15,-40 7,-6 20,-10 40,-10 17,0 25,5 25,15l0 0zm-87 -13c0,16 -7,31 -21,42 -13,13 -29,19 -45,19 -15,0 -22,-5 -22,-17 0,-6 2,-14 6,-24 5,-11 9,-19 14,-22 9,-9 26,-14 51,-14 11,0 17,5 17,16l0 0zm435 177c7,-18 14,-41 21,-69 5,-25 8,-45 8,-61 0,-11 -3,-16 -8,-16 -5,0 -14,5 -25,18 -39,40 -66,89 -83,147 -8,27 -11,54 -11,79 0,18 1,29 3,36 5,11 14,17 28,17 11,0 24,-3 39,-9 33,-13 71,-33 112,-59 17,-12 28,-17 33,-17 6,0 10,3 10,9l0 1c-1,10 -4,20 -10,32 -10,21 -19,36 -27,43 -27,25 -68,45 -122,61 -24,7 -44,11 -60,11 -37,0 -69,-13 -95,-39 -26,-26 -38,-58 -38,-94 0,-28 8,-61 26,-97 12,-27 28,-53 48,-77 14,-18 30,-34 49,-48 9,-7 18,-13 27,-20 29,-19 58,-33 86,-40 13,-4 25,-5 36,-5 26,0 45,6 60,19 16,14 25,33 25,58 0,27 -8,55 -21,84 -12,26 -29,49 -48,69 -32,33 -59,49 -82,49 -10,0 -15,-6 -15,-15 0,-3 5,-14 15,-32 12,-21 18,-33 19,-35l0 0zm349 -86c30,0 45,4 45,11 0,8 -7,13 -20,14 -32,1 -61,17 -84,48 -23,30 -35,65 -35,105 0,20 4,36 12,50 11,16 25,24 44,24 17,0 32,-9 43,-27 10,-16 14,-34 14,-52 0,-37 -13,-65 -42,-87 -5,-4 -8,-8 -8,-10 0,-9 15,-18 43,-29 12,-5 22,-6 30,-6 19,0 35,9 47,27 14,18 20,41 20,67 0,21 -4,42 -12,62 -8,22 -18,39 -32,53 -17,16 -37,29 -61,40 -24,11 -47,16 -69,16 -20,0 -40,-3 -60,-10 -22,-8 -40,-17 -52,-30 -16,-16 -24,-38 -24,-69 0,-48 21,-93 64,-135 42,-41 88,-62 137,-62l0 0z"/>
  <path class="fil0" d="M4433 1906l-83 85c-18,19 -34,28 -48,28 -12,0 -23,-5 -31,-14 -8,-9 -13,-21 -13,-33 0,-15 7,-39 19,-72 2,-4 5,-10 7,-18l-1 -1c-18,19 -37,41 -58,66 -11,14 -22,25 -29,33 -13,13 -24,23 -33,29 -8,5 -15,7 -20,7 -15,0 -26,-6 -34,-19 -6,-10 -9,-23 -9,-39 0,-22 10,-59 29,-108 18,-46 31,-75 40,-89 14,-22 30,-33 48,-33 10,0 18,3 25,7 9,6 14,13 14,22 0,14 -8,41 -23,81 -2,10 -6,19 -9,27l1 2c9,-10 21,-24 37,-43 28,-34 49,-58 64,-72 19,-17 37,-26 52,-26 14,0 26,8 35,25 4,8 5,17 5,25 0,9 -6,31 -18,67 -3,6 -6,16 -10,28l1 1 8 -7c1,-3 4,-5 7,-7l8 -7c12,-12 26,-26 41,-42 17,-18 29,-29 34,-33 9,-7 16,-9 24,-9 26,0 39,17 39,51 0,7 -2,23 -5,49 -5,39 -8,69 -8,88 0,12 2,25 4,38 2,12 5,29 10,51 -2,8 -9,14 -19,20 -8,4 -17,6 -27,6 -17,0 -32,-7 -47,-22 -12,-13 -19,-28 -22,-46 -2,-10 -3,-22 -3,-39 0,-9 1,-31 4,-63l-1 -2 -5 8 0 0zm339 -119c6,-9 14,-15 23,-20 9,-5 17,-6 26,-6 16,0 27,4 33,14 3,7 6,19 6,37 0,8 -1,21 -3,35 -1,22 -3,40 -3,57 0,21 1,38 3,50 0,3 3,11 8,26 0,5 1,9 1,12 0,3 -1,5 -3,7 -16,14 -33,21 -51,21 -24,0 -42,-15 -53,-45 -3,-4 -4,-15 -8,-32 0,-9 -1,-16 -1,-22 0,-4 1,-8 1,-11 -25,6 -44,18 -59,34 -5,5 -11,13 -16,23 -6,12 -12,21 -16,27 -7,9 -13,16 -17,21 -7,8 -16,12 -25,12 -15,0 -25,-5 -33,-16 -7,-10 -11,-22 -11,-37 0,-19 4,-44 12,-79 8,-31 17,-62 30,-96 19,-47 41,-72 67,-72 22,0 31,14 31,42 0,9 -5,47 -16,110 13,-3 27,-8 43,-15 6,-5 9,-12 12,-20 2,-7 4,-16 7,-24 1,-7 5,-18 12,-33l0 0zm161 232c-9,0 -17,-4 -25,-13 -15,-14 -21,-34 -21,-62 0,-31 5,-67 16,-107 13,-44 27,-77 45,-98 6,-8 15,-12 26,-12 13,0 24,7 30,20 6,11 9,24 9,39 0,53 -14,118 -42,198 -5,15 -13,25 -20,30 -4,3 -10,5 -18,5l0 0zm35 -305c-18,0 -27,-12 -27,-35 0,-11 2,-23 8,-38 5,-15 11,-25 18,-33 8,-7 16,-10 26,-10 19,0 29,10 29,32 0,30 -9,55 -27,71 -8,9 -17,13 -26,13l-1 0zm92 356c-12,0 -18,-6 -18,-21 0,-14 4,-34 14,-57 10,-22 20,-40 30,-52 9,-10 23,-16 42,-16 18,0 28,6 28,16l0 2c-2,13 -5,26 -12,41 -9,20 -17,33 -21,40 -12,20 -25,33 -40,41 -9,4 -16,6 -23,6l0 0zm316 -329l6 -15c-2,1 -7,2 -14,5 -13,6 -22,9 -27,9 -8,0 -12,-7 -12,-22 0,-15 4,-26 12,-33 9,-7 32,-18 70,-34l9 -4c0,-1 3,-2 9,-5 28,-13 45,-19 51,-19 14,0 21,7 21,21 0,15 -7,42 -21,81 -4,10 -9,26 -16,46 0,3 -2,6 -3,12 -7,23 -12,40 -16,54 0,1 -2,6 -4,14l-5 18c-1,1 -2,6 -4,10 -13,53 -25,86 -34,101 -5,9 -16,17 -33,27 -11,7 -24,10 -37,10 -9,0 -18,-3 -26,-8 -10,-6 -14,-13 -14,-22 0,-2 0,-5 0,-7 30,-87 59,-168 88,-239zm304 70c17,-41 25,-78 25,-114 0,-34 -8,-50 -26,-50 -8,0 -16,4 -26,15 -23,24 -35,51 -35,82 0,17 7,32 18,44 12,12 26,20 44,23l0 0zm-6 16l0 1 -1 -1c-31,20 -58,31 -81,31 -22,0 -40,-8 -53,-24 -13,-15 -19,-34 -19,-57 0,-27 9,-54 27,-80 16,-24 37,-44 63,-59 26,-15 53,-23 80,-23 30,0 55,10 77,32 24,24 37,57 37,100 0,62 -28,123 -84,182 -23,26 -48,46 -77,61 -32,19 -63,28 -93,28 -12,0 -18,-4 -18,-10 0,-4 4,-8 13,-12 34,-15 66,-47 95,-96 14,-22 25,-47 34,-73l0 0zm522 -160l-39 132c2,1 5,1 8,1 11,0 23,-5 36,-14 38,-27 57,-54 57,-82 0,-28 -15,-41 -44,-41 -8,0 -13,1 -18,4l0 0zm-46 155c0,5 -2,11 -4,18 -18,59 -35,102 -52,130 -5,9 -12,18 -21,27 38,12 67,17 83,17 23,0 42,-7 58,-22 27,-26 40,-55 40,-88 0,-17 -6,-32 -18,-43 -9,-9 -25,-16 -47,-21 -18,-3 -30,-9 -39,-18l0 0zm-132 40l36 -109c5,-17 13,-36 25,-58 -1,1 -4,2 -7,4 -15,5 -24,9 -30,9 -9,0 -12,-4 -12,-10 0,-7 3,-17 10,-31 7,-12 13,-21 18,-26 32,-30 89,-44 170,-44 46,0 83,8 108,23 26,15 40,37 40,63 0,35 -16,66 -48,90 -18,13 -35,22 -52,27 -3,1 -6,2 -9,2l0 1c70,9 106,39 106,88 0,21 -7,42 -20,63 -6,9 -14,19 -23,28 -26,25 -59,49 -99,71 -47,24 -85,36 -117,36 -35,0 -62,-7 -82,-20 -8,-6 -12,-13 -12,-20 0,-10 8,-23 25,-37l-2 -1c-5,2 -11,3 -16,3 -25,0 -37,-13 -37,-36 0,-19 9,-57 28,-116l0 0z"/>
  <path class="fil0" d="M886 474l2 0c19,0 43,-15 71,-44 36,-37 54,-73 54,-108 0,-35 -20,-57 -58,-65 -14,-2 -20,-7 -20,-16 0,-4 6,-12 18,-23 41,-35 61,-73 61,-113 0,-22 -4,-32 -13,-32 -15,0 -34,19 -56,59 -10,18 -17,35 -22,52 -3,9 -6,14 -12,14 -7,0 -17,-7 -28,-18 -16,-18 -24,-35 -24,-53 0,-22 10,-44 29,-65 16,-18 36,-33 60,-43 26,-12 53,-19 81,-19 47,0 82,16 104,49 10,15 15,33 15,52 0,35 -15,63 -46,84 -15,11 -33,22 -58,31l0 2c75,4 111,33 111,86 0,24 -10,52 -32,84 -10,16 -22,32 -37,47 -67,70 -137,106 -210,106 -33,0 -59,-10 -82,-30 -22,-21 -32,-47 -32,-79 0,-23 8,-45 25,-68 14,-20 32,-36 53,-49 23,-13 47,-20 70,-20 10,0 14,4 14,11 0,2 -4,8 -12,15l-2 1c-12,13 -21,28 -27,49 -6,17 -9,35 -9,54 0,19 4,36 12,49l0 0zm409 -175l30 -21c-53,-47 -79,-91 -79,-134 0,-36 16,-69 48,-97 33,-27 72,-41 116,-41 34,0 51,5 51,17 0,2 -5,5 -12,6 -16,3 -30,11 -40,25 -19,26 -28,53 -28,80 0,27 10,49 32,64 32,-33 48,-65 48,-97 0,-14 -5,-27 -12,-35 -2,-3 -4,-5 -4,-6 0,-3 4,-8 14,-15 14,-9 28,-13 43,-13 22,0 37,9 47,27 4,9 6,19 6,31 0,28 -10,55 -32,83 -13,17 -35,37 -65,63 41,40 62,80 62,119 0,44 -21,84 -64,122 -42,38 -89,56 -137,56 -35,0 -63,-8 -85,-25 -27,-18 -40,-43 -40,-76 0,-28 10,-55 32,-78 12,-14 35,-32 69,-55l0 0zm75 14c-35,30 -53,70 -53,118 0,37 9,56 25,56 7,0 14,-4 21,-11 10,-10 20,-24 29,-42 9,-20 13,-36 13,-50 0,-34 -11,-58 -35,-71zm745 -296l4 0c31,0 56,24 73,71 7,21 11,44 11,68 0,50 -12,105 -38,165 -24,58 -55,105 -92,142 -42,41 -83,62 -126,62 -59,0 -101,-27 -126,-83 -12,-26 -18,-56 -18,-90 0,-58 11,-113 35,-166 24,-55 57,-100 100,-135 40,-33 82,-50 124,-50 22,0 39,6 53,16l0 0zm-36 19l8 -5 -2 -1c-34,0 -67,30 -99,90 -33,59 -49,120 -49,184 0,46 14,86 41,121 11,15 21,23 32,23 17,0 34,-21 50,-62 16,-43 27,-83 33,-124 2,-21 4,-39 4,-56 0,-24 -3,-47 -11,-70 -9,-27 -20,-46 -36,-60 -2,-2 -4,-3 -4,-5 0,-6 12,-18 33,-35l0 0zm360 221c21,-51 33,-100 33,-147 0,-44 -12,-66 -35,-66 -10,0 -21,7 -34,20 -29,31 -45,67 -45,107 0,22 8,42 23,57 15,16 35,26 58,29zm-9 22l0 2 -2 -2c-39,27 -74,40 -103,40 -30,0 -53,-11 -70,-31 -16,-19 -25,-44 -25,-73 0,-37 12,-72 35,-106 21,-30 48,-55 82,-75 35,-21 70,-31 105,-31 38,0 71,14 100,41 31,32 47,76 47,130 0,82 -36,161 -108,238 -31,33 -64,59 -100,80 -42,24 -83,35 -122,35 -15,0 -24,-4 -24,-12 0,-6 6,-11 17,-16 45,-19 86,-61 124,-125 18,-30 33,-61 44,-95l0 0zm382 -167l-29 52 2 2c35,-15 65,-23 92,-23 34,0 60,8 80,23 23,17 34,42 34,75 0,32 -9,65 -26,100 -17,35 -43,69 -75,102 -55,56 -104,84 -148,84 -32,0 -59,-11 -82,-34 -20,-20 -29,-47 -29,-83 0,-68 29,-117 88,-145 18,-9 34,-13 47,-13 14,0 21,4 21,12l0 1c-18,22 -33,46 -43,72 -10,26 -15,57 -15,92 0,26 5,41 16,41 14,0 29,-9 45,-26 16,-16 31,-38 45,-64 14,-29 21,-54 21,-75 0,-52 -23,-79 -69,-79 -13,0 -31,3 -56,8 -10,2 -17,3 -20,3 -18,0 -27,-9 -27,-28 0,-5 4,-19 11,-42 12,-41 25,-74 35,-99l3 -6c1,-2 4,-6 6,-14 8,-18 14,-28 18,-33 7,-6 18,-9 35,-9 44,0 81,1 112,2 4,0 9,0 15,1l5 0c17,0 30,0 41,4 6,2 10,6 10,12 0,10 -10,25 -30,46 -32,30 -62,46 -92,46 -7,0 -17,-1 -32,-3 -4,-1 -6,-2 -7,-2l-2 0 0 0zm636 145c21,-51 32,-100 32,-147 0,-44 -12,-66 -34,-66 -11,0 -22,7 -34,20 -30,31 -46,67 -46,107 0,22 8,42 23,57 16,16 35,26 59,29l0 0zm-9 22l0 2 -2 -2c-40,27 -75,40 -104,40 -30,0 -52,-11 -69,-31 -17,-19 -26,-44 -26,-73 0,-37 12,-72 35,-106 22,-30 49,-55 82,-75 35,-21 70,-31 105,-31 38,0 72,14 100,41 32,32 48,76 48,130 0,82 -36,161 -109,238 -30,33 -63,59 -100,80 -42,24 -83,35 -121,35 -16,0 -24,-4 -24,-12 0,-6 6,-11 17,-16 45,-19 86,-61 124,-125 18,-30 33,-61 44,-95l0 0zm313 -112l8 -20c-4,1 -10,4 -19,8 -18,7 -29,11 -35,11 -10,0 -16,-9 -16,-27 0,-21 6,-36 16,-45 11,-8 41,-23 90,-45l12 -5c1,0 4,-2 12,-5 36,-17 58,-26 67,-26 18,0 27,10 27,28 0,20 -9,55 -27,105 -5,13 -12,34 -21,61 -2,2 -3,8 -5,15 -9,30 -16,52 -19,69 -1,3 -3,9 -6,18l-7 24c-1,4 -2,8 -4,15 -18,68 -32,111 -44,129 -8,12 -22,25 -43,37 -15,8 -32,13 -49,13 -12,0 -24,-4 -35,-10 -12,-9 -18,-18 -18,-30 0,-2 0,-6 2,-9 38,-113 75,-218 114,-311l0 0zm303 0l8 -20c-3,1 -9,4 -19,8 -17,7 -29,11 -34,11 -11,0 -17,-9 -17,-27 0,-21 6,-36 17,-45 11,-8 41,-23 90,-45l11 -5c0,0 5,-2 12,-5 36,-17 58,-26 68,-26 17,0 27,10 27,28 0,20 -10,55 -27,105 -5,13 -13,34 -22,61 -1,2 -2,8 -4,15 -9,30 -16,52 -21,69 0,3 -2,9 -4,18l-7 24c-1,4 -3,8 -5,15 -18,68 -33,111 -44,129 -8,12 -22,25 -42,37 -16,8 -32,13 -50,13 -12,0 -24,-4 -34,-10 -13,-9 -18,-18 -18,-30 0,-2 0,-6 1,-9 37,-113 76,-218 114,-311l0 0zm569 168l-26 1 -72 3c-32,0 -51,-3 -55,-11 -4,-5 -5,-10 -5,-19 0,-12 8,-41 27,-88 8,-17 14,-35 21,-52 8,-21 21,-51 40,-91 1,-3 3,-6 7,-11 8,-13 18,-25 31,-33 29,-19 56,-28 80,-28 20,0 31,4 31,14 0,13 -26,55 -76,126 -24,35 -46,68 -64,97l92 -4c14,-44 36,-72 68,-85 16,-8 36,-11 58,-11 21,0 31,6 31,16 0,13 -8,37 -22,73l-4 8 17 -1c6,0 10,-1 13,-1 5,0 9,1 9,4 0,1 -1,2 -1,3 -10,22 -24,43 -43,63 -7,7 -13,12 -22,14 -9,31 -20,66 -32,109 -1,1 -1,5 -2,9l-1 6c-1,1 -1,2 -1,3 -3,22 -8,36 -15,41 -40,25 -74,37 -101,37 -9,0 -18,-3 -26,-7 -10,-5 -15,-12 -15,-19 0,-16 10,-51 32,-105 10,-25 20,-46 26,-61l0 0zm357 139l2 0c18,0 43,-15 70,-44 36,-37 54,-73 54,-108 0,-35 -19,-57 -57,-65 -14,-2 -20,-7 -20,-16 0,-4 5,-12 19,-23 39,-35 60,-73 60,-113 0,-22 -5,-32 -13,-32 -16,0 -35,19 -57,59 -9,18 -17,35 -21,52 -3,9 -7,14 -12,14 -7,0 -17,-7 -28,-18 -16,-18 -25,-35 -25,-53 0,-22 10,-44 30,-65 16,-18 35,-33 59,-43 26,-12 54,-19 81,-19 48,0 82,16 105,49 10,15 15,33 15,52 0,35 -15,63 -45,84 -15,11 -35,22 -59,31l0 2c74,4 111,33 111,86 0,24 -10,52 -32,84 -11,16 -23,32 -37,47 -67,70 -138,106 -211,106 -32,0 -59,-10 -81,-30 -21,-21 -33,-47 -33,-79 0,-23 9,-45 25,-68 14,-20 32,-36 54,-49 23,-13 47,-20 69,-20 10,0 15,4 15,11 0,2 -4,8 -12,15l-3 1c-11,13 -20,28 -26,49 -6,17 -10,35 -10,54 0,19 4,36 13,49l0 0zm511 -217c21,-51 33,-100 33,-147 0,-44 -12,-66 -34,-66 -11,0 -22,7 -35,20 -29,31 -44,67 -44,107 0,22 7,42 22,57 15,16 35,26 58,29zm-9 22l0 2 -2 -2c-39,27 -74,40 -103,40 -30,0 -53,-11 -70,-31 -16,-19 -25,-44 -25,-73 0,-37 12,-72 35,-106 21,-30 49,-55 82,-75 35,-21 70,-31 105,-31 39,0 72,14 100,41 31,32 47,76 47,130 0,82 -36,161 -107,238 -31,33 -64,59 -101,80 -42,24 -83,35 -122,35 -15,0 -23,-4 -23,-12 0,-6 5,-11 16,-16 46,-19 86,-61 124,-125 18,-30 33,-61 44,-95l0 0zm382 -167l-29 52 2 2c35,-15 66,-23 92,-23 34,0 61,8 80,23 23,17 34,42 34,75 0,32 -8,65 -26,100 -17,35 -42,69 -75,102 -54,56 -104,84 -148,84 -32,0 -59,-11 -82,-34 -19,-20 -29,-47 -29,-83 0,-68 29,-117 88,-145 18,-9 34,-13 47,-13 14,0 22,4 22,12l0 1c-19,22 -33,46 -44,72 -10,26 -15,57 -15,92 0,26 5,41 16,41 14,0 29,-9 46,-26 16,-16 31,-38 44,-64 15,-29 22,-54 22,-75 0,-52 -24,-79 -70,-79 -13,0 -30,3 -56,8 -10,2 -17,3 -20,3 -18,0 -27,-9 -27,-28 0,-5 4,-19 11,-42 13,-41 25,-74 35,-99l3 -6c1,-2 4,-6 7,-14 7,-18 13,-28 18,-33 6,-6 17,-9 34,-9 44,0 81,1 113,2 3,0 8,0 15,1l4 0c17,0 31,0 41,4 8,2 10,6 10,12 0,10 -9,25 -30,46 -32,30 -62,46 -92,46 -7,0 -17,-1 -31,-3 -5,-1 -7,-2 -7,-2l-3 0 0 0z"/>
  <polygon class="fil0" points="401,222 523,222 523,101 581,101 581,222 704,222 704,280 581,280 581,402 523,402 523,280 401,280 "/>
 </g>
</svg>
